G04 #@! TF.GenerationSoftware,KiCad,Pcbnew,5.1.6-c6e7f7d~87~ubuntu16.04.1*
G04 #@! TF.CreationDate,2020-09-01T19:23:28-04:00*
G04 #@! TF.ProjectId,Controller,436f6e74-726f-46c6-9c65-722e6b696361,rev?*
G04 #@! TF.SameCoordinates,PX5734380PY65bcec0*
G04 #@! TF.FileFunction,Copper,L1,Top*
G04 #@! TF.FilePolarity,Positive*
%FSLAX46Y46*%
G04 Gerber Fmt 4.6, Leading zero omitted, Abs format (unit mm)*
G04 Created by KiCad (PCBNEW 5.1.6-c6e7f7d~87~ubuntu16.04.1) date 2020-09-01 19:23:28*
%MOMM*%
%LPD*%
G01*
G04 APERTURE LIST*
G04 #@! TA.AperFunction,ComponentPad*
%ADD10C,1.905000*%
G04 #@! TD*
G04 #@! TA.AperFunction,ComponentPad*
%ADD11R,1.905000X1.905000*%
G04 #@! TD*
G04 #@! TA.AperFunction,ComponentPad*
%ADD12C,2.032000*%
G04 #@! TD*
G04 #@! TA.AperFunction,SMDPad,CuDef*
%ADD13R,4.000500X1.600200*%
G04 #@! TD*
G04 #@! TA.AperFunction,SMDPad,CuDef*
%ADD14R,1.270000X1.016000*%
G04 #@! TD*
G04 #@! TA.AperFunction,ComponentPad*
%ADD15C,1.778000*%
G04 #@! TD*
G04 #@! TA.AperFunction,ViaPad*
%ADD16C,1.016000*%
G04 #@! TD*
G04 #@! TA.AperFunction,Conductor*
%ADD17C,1.270000*%
G04 #@! TD*
G04 #@! TA.AperFunction,Conductor*
%ADD18C,0.762000*%
G04 #@! TD*
G04 #@! TA.AperFunction,Conductor*
%ADD19C,0.508000*%
G04 #@! TD*
G04 APERTURE END LIST*
D10*
X2540000Y-10160000D03*
X5080000Y-10160000D03*
X30480000Y-10160000D03*
X7620000Y-10160000D03*
X10160000Y-10160000D03*
X12700000Y-10160000D03*
X15240000Y-10160000D03*
X17780000Y-10160000D03*
X20320000Y-10160000D03*
X22860000Y-10160000D03*
X25400000Y-10160000D03*
X27940000Y-10160000D03*
X33020000Y-10160000D03*
X35560000Y-10160000D03*
X35560000Y-25400000D03*
X33020000Y-25400000D03*
X30480000Y-25400000D03*
X27940000Y-25400000D03*
X25400000Y-25400000D03*
X22860000Y-25400000D03*
X20320000Y-25400000D03*
X17780000Y-25400000D03*
D11*
X2540000Y-25400000D03*
D10*
X5080000Y-25400000D03*
X7620000Y-25400000D03*
X10160000Y-25400000D03*
X12700000Y-25400000D03*
X15240000Y-25400000D03*
X66040000Y-15240000D03*
X66040000Y-17780000D03*
X66040000Y-20320000D03*
X66040000Y-22860000D03*
D11*
X66040000Y-38100000D03*
D10*
X66040000Y-35560000D03*
X66040000Y-33020000D03*
X66040000Y-30480000D03*
X66040000Y-27940000D03*
X66040000Y-25400000D03*
D12*
X62738000Y-17780000D03*
X7620000Y-6604000D03*
D13*
X10975340Y-31496000D03*
X4874260Y-31496000D03*
D14*
X18542000Y-4826000D03*
X18542000Y-6858000D03*
X31242000Y-6858000D03*
X31242000Y-4826000D03*
X43942000Y-4826000D03*
X43942000Y-6858000D03*
X56896000Y-6858000D03*
X56896000Y-4826000D03*
D15*
X27940000Y-2540000D03*
X21082000Y-2540000D03*
X27940000Y-7112000D03*
X21082000Y-7112000D03*
X33782000Y-7112000D03*
X40640000Y-7112000D03*
X33782000Y-2540000D03*
X40640000Y-2540000D03*
X53340000Y-2540000D03*
X46482000Y-2540000D03*
X53340000Y-7112000D03*
X46482000Y-7112000D03*
X59182000Y-7112000D03*
X66040000Y-7112000D03*
X59182000Y-2540000D03*
X66040000Y-2540000D03*
D12*
X11176000Y-33782000D03*
X2540000Y-6604000D03*
D16*
X49022000Y-33274000D03*
X28448000Y-13716000D03*
X44450000Y-12192000D03*
X17272000Y-17018000D03*
X56642000Y-12700000D03*
X55626000Y-30734000D03*
X52324000Y-39370000D03*
X55118000Y-21082000D03*
X50800000Y-23368000D03*
X49276000Y-21590000D03*
X61976000Y-21336000D03*
X51054000Y-29464000D03*
X41148000Y-24384000D03*
X41148000Y-26924000D03*
X41148000Y-29464000D03*
X41148000Y-32004000D03*
D17*
X2540000Y-25400000D02*
X2540000Y-27686000D01*
X2540000Y-27686000D02*
X4318000Y-29464000D01*
X4318000Y-29464000D02*
X4318000Y-30939740D01*
X4318000Y-30939740D02*
X4874260Y-31496000D01*
D18*
X49022000Y-33274000D02*
X46990000Y-33274000D01*
X46990000Y-33274000D02*
X44704000Y-35560000D01*
X44704000Y-35560000D02*
X20828000Y-35560000D01*
X56896000Y-4826000D02*
X43942000Y-4826000D01*
X43942000Y-4826000D02*
X31242000Y-4826000D01*
X31242000Y-4826000D02*
X18542000Y-4826000D01*
D17*
X11176000Y-33782000D02*
X11176000Y-31696660D01*
X11176000Y-31696660D02*
X10975340Y-31496000D01*
D18*
X10975340Y-31496000D02*
X16764000Y-31496000D01*
X16764000Y-31496000D02*
X20828000Y-35560000D01*
D17*
X2540000Y-6604000D02*
X2540000Y-10160000D01*
D18*
X18542000Y-4826000D02*
X11684000Y-4826000D01*
X11684000Y-4826000D02*
X9906000Y-3048000D01*
X9906000Y-3048000D02*
X6096000Y-3048000D01*
X6096000Y-3048000D02*
X2540000Y-6604000D01*
D19*
X18542000Y-6858000D02*
X20828000Y-6858000D01*
X20828000Y-6858000D02*
X21082000Y-7112000D01*
X27940000Y-10160000D02*
X27940000Y-7112000D01*
X31242000Y-6858000D02*
X33528000Y-6858000D01*
X33528000Y-6858000D02*
X33782000Y-7112000D01*
X30480000Y-10160000D02*
X30480000Y-8636000D01*
X31242000Y-7874000D02*
X31242000Y-6858000D01*
X30480000Y-8636000D02*
X31242000Y-7874000D01*
X43942000Y-6858000D02*
X46228000Y-6858000D01*
X46228000Y-6858000D02*
X46482000Y-7112000D01*
X30480000Y-25400000D02*
X30480000Y-24892000D01*
X30480000Y-24892000D02*
X28194000Y-22606000D01*
X28194000Y-22606000D02*
X20574000Y-22606000D01*
X20574000Y-22606000D02*
X17272000Y-19304000D01*
X28448000Y-13716000D02*
X42926000Y-13716000D01*
X44450000Y-12192000D02*
X42926000Y-13716000D01*
X17272000Y-19304000D02*
X17272000Y-17018000D01*
X25400000Y-10160000D02*
X25400000Y-13716000D01*
X27178000Y-15494000D02*
X25400000Y-13716000D01*
X29464000Y-15494000D02*
X27178000Y-15494000D01*
X56896000Y-6858000D02*
X58928000Y-6858000D01*
X58928000Y-6858000D02*
X59182000Y-7112000D01*
X56642000Y-12700000D02*
X54610000Y-14732000D01*
X54610000Y-14732000D02*
X30226000Y-14732000D01*
X30226000Y-14732000D02*
X29464000Y-15494000D01*
X55626000Y-30734000D02*
X56642000Y-31750000D01*
X56642000Y-31750000D02*
X56642000Y-37084000D01*
X56642000Y-37084000D02*
X54356000Y-39370000D01*
X54356000Y-39370000D02*
X52324000Y-39370000D01*
X12700000Y-25400000D02*
X12700000Y-24892000D01*
X15240000Y-25400000D02*
X15240000Y-24892000D01*
D17*
X66040000Y-17780000D02*
X62738000Y-17780000D01*
X7620000Y-6604000D02*
X7620000Y-10160000D01*
D19*
X66040000Y-27940000D02*
X65532000Y-27940000D01*
X10160000Y-10160000D02*
X10160000Y-11430000D01*
X10160000Y-11430000D02*
X14224000Y-15494000D01*
X33274000Y-20828000D02*
X43942000Y-20828000D01*
X43942000Y-20828000D02*
X49022000Y-25908000D01*
X49022000Y-25908000D02*
X62230000Y-25908000D01*
X33274000Y-20828000D02*
X32512000Y-21590000D01*
X32512000Y-21590000D02*
X24130000Y-21590000D01*
X62230000Y-25908000D02*
X64262000Y-27940000D01*
X64262000Y-27940000D02*
X66040000Y-27940000D01*
X14224000Y-15494000D02*
X18034000Y-15494000D01*
X18034000Y-15494000D02*
X24130000Y-21590000D01*
X12700000Y-10160000D02*
X12700000Y-11430000D01*
X12700000Y-11430000D02*
X15748000Y-14478000D01*
X44450000Y-19812000D02*
X49530000Y-24892000D01*
X49530000Y-24892000D02*
X62738000Y-24892000D01*
X44450000Y-19812000D02*
X32766000Y-19812000D01*
X32766000Y-19812000D02*
X32004000Y-20574000D01*
X32004000Y-20574000D02*
X24638000Y-20574000D01*
X66040000Y-25400000D02*
X65532000Y-25400000D01*
X65532000Y-25400000D02*
X63246000Y-25400000D01*
X63246000Y-25400000D02*
X62738000Y-24892000D01*
X15748000Y-14478000D02*
X18542000Y-14478000D01*
X18542000Y-14478000D02*
X24638000Y-20574000D01*
X33020000Y-10160000D02*
X33020000Y-10668000D01*
X33020000Y-10668000D02*
X35052000Y-12700000D01*
X35052000Y-12700000D02*
X36830000Y-12700000D01*
X36830000Y-12700000D02*
X38862000Y-10668000D01*
X38862000Y-10668000D02*
X56896000Y-10668000D01*
X56896000Y-10668000D02*
X58420000Y-12192000D01*
X58420000Y-12192000D02*
X58420000Y-17780000D01*
X55118000Y-21082000D02*
X58420000Y-17780000D01*
X17780000Y-10160000D02*
X17780000Y-11684000D01*
X31750000Y-17780000D02*
X47752000Y-17780000D01*
X17780000Y-11684000D02*
X18542000Y-12446000D01*
X50800000Y-20828000D02*
X47752000Y-17780000D01*
X31750000Y-17780000D02*
X30988000Y-18542000D01*
X30988000Y-18542000D02*
X25654000Y-18542000D01*
X50800000Y-23368000D02*
X50800000Y-20828000D01*
X18542000Y-12446000D02*
X19558000Y-12446000D01*
X19558000Y-12446000D02*
X25654000Y-18542000D01*
X20320000Y-10160000D02*
X20320000Y-11684000D01*
X20320000Y-11684000D02*
X26162000Y-17526000D01*
X31242000Y-16764000D02*
X48260000Y-16764000D01*
X48260000Y-16764000D02*
X52324000Y-20828000D01*
X31242000Y-16764000D02*
X30480000Y-17526000D01*
X30480000Y-17526000D02*
X26162000Y-17526000D01*
X66040000Y-22860000D02*
X65532000Y-22860000D01*
X65532000Y-22860000D02*
X64516000Y-23876000D01*
X64516000Y-23876000D02*
X53848000Y-23876000D01*
X53848000Y-23876000D02*
X52324000Y-22352000D01*
X52324000Y-22352000D02*
X52324000Y-20828000D01*
X22860000Y-10160000D02*
X22860000Y-12700000D01*
X48768000Y-15748000D02*
X53340000Y-20320000D01*
X30734000Y-15748000D02*
X48768000Y-15748000D01*
X22860000Y-12700000D02*
X26670000Y-16510000D01*
X30734000Y-15748000D02*
X29972000Y-16510000D01*
X29972000Y-16510000D02*
X26670000Y-16510000D01*
X66040000Y-20320000D02*
X65532000Y-20320000D01*
X65532000Y-20320000D02*
X62992000Y-22860000D01*
X62992000Y-22860000D02*
X54356000Y-22860000D01*
X54356000Y-22860000D02*
X53340000Y-21844000D01*
X53340000Y-21844000D02*
X53340000Y-20320000D01*
X15240000Y-10160000D02*
X15240000Y-11684000D01*
X32258000Y-18796000D02*
X46482000Y-18796000D01*
X15240000Y-11684000D02*
X17018000Y-13462000D01*
X46482000Y-18796000D02*
X49276000Y-21590000D01*
X32258000Y-18796000D02*
X31496000Y-19558000D01*
X31496000Y-19558000D02*
X25146000Y-19558000D01*
X17018000Y-13462000D02*
X19050000Y-13462000D01*
X19050000Y-13462000D02*
X25146000Y-19558000D01*
X35560000Y-10160000D02*
X36068000Y-9652000D01*
X36068000Y-9652000D02*
X57404000Y-9652000D01*
X57404000Y-9652000D02*
X59436000Y-11684000D01*
X61976000Y-21336000D02*
X59436000Y-18796000D01*
X59436000Y-18796000D02*
X59436000Y-11684000D01*
X38100000Y-22860000D02*
X42926000Y-22860000D01*
X42926000Y-22860000D02*
X48006000Y-27940000D01*
X48006000Y-27940000D02*
X61214000Y-27940000D01*
X61214000Y-27940000D02*
X62738000Y-29464000D01*
X62738000Y-29464000D02*
X62738000Y-32766000D01*
X62738000Y-32766000D02*
X65532000Y-35560000D01*
X65532000Y-35560000D02*
X66040000Y-35560000D01*
X35560000Y-25400000D02*
X38100000Y-22860000D01*
X36068000Y-21844000D02*
X43434000Y-21844000D01*
X43434000Y-21844000D02*
X48514000Y-26924000D01*
X48514000Y-26924000D02*
X61722000Y-26924000D01*
X36068000Y-21844000D02*
X33020000Y-24892000D01*
X33020000Y-24892000D02*
X33020000Y-25400000D01*
X61722000Y-26924000D02*
X63754000Y-28956000D01*
X63754000Y-28956000D02*
X63754000Y-31242000D01*
X63754000Y-31242000D02*
X65532000Y-33020000D01*
X65532000Y-33020000D02*
X66040000Y-33020000D01*
X10160000Y-27178000D02*
X10160000Y-25400000D01*
X11684000Y-28702000D02*
X10160000Y-27178000D01*
X17780000Y-28702000D02*
X11684000Y-28702000D01*
X20574000Y-31496000D02*
X17780000Y-28702000D01*
X36322000Y-31496000D02*
X20574000Y-31496000D01*
X36322000Y-31496000D02*
X38608000Y-33782000D01*
X38608000Y-33782000D02*
X42672000Y-33782000D01*
X51054000Y-29464000D02*
X46990000Y-29464000D01*
X46990000Y-29464000D02*
X42672000Y-33782000D01*
X25400000Y-26670000D02*
X25400000Y-25400000D01*
X26416000Y-27432000D02*
X25400000Y-26670000D01*
X37338000Y-27432000D02*
X26416000Y-27432000D01*
X41148000Y-24384000D02*
X40386000Y-24384000D01*
X40386000Y-24384000D02*
X37338000Y-27432000D01*
X22860000Y-26924000D02*
X22860000Y-25400000D01*
X24384000Y-28448000D02*
X22860000Y-26924000D01*
X24384000Y-28448000D02*
X37846000Y-28448000D01*
X41148000Y-26924000D02*
X39370000Y-26924000D01*
X39370000Y-26924000D02*
X37846000Y-28448000D01*
X20320000Y-26924000D02*
X20320000Y-25400000D01*
X22860000Y-29464000D02*
X20320000Y-26924000D01*
X22860000Y-29464000D02*
X41148000Y-29464000D01*
X17780000Y-27178000D02*
X17780000Y-25400000D01*
X21082000Y-30480000D02*
X17780000Y-27178000D01*
X21082000Y-30480000D02*
X37338000Y-30480000D01*
X37338000Y-30480000D02*
X38862000Y-32004000D01*
X38862000Y-32004000D02*
X41148000Y-32004000D01*
M02*
