G04 #@! TF.GenerationSoftware,KiCad,Pcbnew,5.0.2-bee76a0~70~ubuntu16.04.1*
G04 #@! TF.CreationDate,2019-08-01T21:54:42-04:00*
G04 #@! TF.ProjectId,Controller,436f6e74-726f-46c6-9c65-722e6b696361,rev?*
G04 #@! TF.SameCoordinates,PX5734380PY65bcec0*
G04 #@! TF.FileFunction,Copper,L2,Bot*
G04 #@! TF.FilePolarity,Positive*
%FSLAX46Y46*%
G04 Gerber Fmt 4.6, Leading zero omitted, Abs format (unit mm)*
G04 Created by KiCad (PCBNEW 5.0.2-bee76a0~70~ubuntu16.04.1) date Thu 01 Aug 2019 09:54:42 PM EDT*
%MOMM*%
%LPD*%
G01*
G04 APERTURE LIST*
G04 #@! TA.AperFunction,ComponentPad*
%ADD10C,1.905000*%
G04 #@! TD*
G04 #@! TA.AperFunction,ComponentPad*
%ADD11R,1.905000X1.905000*%
G04 #@! TD*
G04 #@! TA.AperFunction,ComponentPad*
%ADD12O,2.032000X3.048000*%
G04 #@! TD*
G04 #@! TA.AperFunction,ComponentPad*
%ADD13O,3.048000X2.032000*%
G04 #@! TD*
G04 #@! TA.AperFunction,ComponentPad*
%ADD14C,1.778000*%
G04 #@! TD*
G04 #@! TA.AperFunction,SMDPad,CuDef*
%ADD15R,3.430000X1.650000*%
G04 #@! TD*
G04 #@! TA.AperFunction,SMDPad,CuDef*
%ADD16R,1.270000X2.921000*%
G04 #@! TD*
G04 #@! TA.AperFunction,SMDPad,CuDef*
%ADD17R,1.950720X0.599440*%
G04 #@! TD*
G04 #@! TA.AperFunction,ComponentPad*
%ADD18C,2.032000*%
G04 #@! TD*
G04 #@! TA.AperFunction,ViaPad*
%ADD19C,0.800000*%
G04 #@! TD*
G04 #@! TA.AperFunction,ViaPad*
%ADD20C,1.016000*%
G04 #@! TD*
G04 #@! TA.AperFunction,ViaPad*
%ADD21C,2.540000*%
G04 #@! TD*
G04 #@! TA.AperFunction,Conductor*
%ADD22C,1.270000*%
G04 #@! TD*
G04 #@! TA.AperFunction,Conductor*
%ADD23C,0.508000*%
G04 #@! TD*
G04 #@! TA.AperFunction,Conductor*
%ADD24C,0.254000*%
G04 #@! TD*
G04 APERTURE END LIST*
D10*
G04 #@! TO.P,M1,28*
G04 #@! TO.N,+5V*
X2540000Y-10160000D03*
G04 #@! TO.P,M1,27*
G04 #@! TO.N,Net-(M1-Pad27)*
X5080000Y-10160000D03*
G04 #@! TO.P,M1,17*
G04 #@! TO.N,/Left*
X30480000Y-10160000D03*
G04 #@! TO.P,M1,26*
G04 #@! TO.N,Net-(M1-Pad26)*
X7620000Y-10160000D03*
G04 #@! TO.P,M1,25*
G04 #@! TO.N,Net-(M1-Pad25)*
X10160000Y-10160000D03*
G04 #@! TO.P,M1,24*
G04 #@! TO.N,Net-(M1-Pad24)*
X12700000Y-10160000D03*
G04 #@! TO.P,M1,23*
G04 #@! TO.N,Net-(M1-Pad23)*
X15240000Y-10160000D03*
G04 #@! TO.P,M1,22*
G04 #@! TO.N,Net-(M1-Pad22)*
X17780000Y-10160000D03*
G04 #@! TO.P,M1,21*
G04 #@! TO.N,Net-(M1-Pad21)*
X20320000Y-10160000D03*
G04 #@! TO.P,M1,20*
G04 #@! TO.N,Net-(M1-Pad20)*
X22860000Y-10160000D03*
G04 #@! TO.P,M1,19*
G04 #@! TO.N,/Right*
X25400000Y-10160000D03*
G04 #@! TO.P,M1,18*
G04 #@! TO.N,/Up*
X27940000Y-10160000D03*
G04 #@! TO.P,M1,16*
G04 #@! TO.N,/Down*
X33020000Y-10160000D03*
G04 #@! TO.P,M1,15*
G04 #@! TO.N,Net-(M1-Pad15)*
X35560000Y-10160000D03*
G04 #@! TO.P,M1,14*
G04 #@! TO.N,Net-(M1-Pad14)*
X35560000Y-25400000D03*
G04 #@! TO.P,M1,13*
G04 #@! TO.N,Net-(M1-Pad13)*
X33020000Y-25400000D03*
G04 #@! TO.P,M1,12*
G04 #@! TO.N,Net-(M1-Pad12)*
X30480000Y-25400000D03*
G04 #@! TO.P,M1,11*
G04 #@! TO.N,Net-(M1-Pad11)*
X27940000Y-25400000D03*
G04 #@! TO.P,M1,10*
G04 #@! TO.N,Net-(M1-Pad10)*
X25400000Y-25400000D03*
G04 #@! TO.P,M1,9*
G04 #@! TO.N,Net-(M1-Pad9)*
X22860000Y-25400000D03*
G04 #@! TO.P,M1,8*
G04 #@! TO.N,Net-(M1-Pad8)*
X20320000Y-25400000D03*
G04 #@! TO.P,M1,7*
G04 #@! TO.N,Net-(M1-Pad7)*
X17780000Y-25400000D03*
D11*
G04 #@! TO.P,M1,1*
G04 #@! TO.N,DC_GND*
X2540000Y-25400000D03*
D10*
G04 #@! TO.P,M1,2*
G04 #@! TO.N,Net-(M1-Pad2)*
X5080000Y-25400000D03*
G04 #@! TO.P,M1,3*
G04 #@! TO.N,Net-(M1-Pad3)*
X7620000Y-25400000D03*
G04 #@! TO.P,M1,4*
G04 #@! TO.N,Net-(M1-Pad4)*
X10160000Y-25400000D03*
G04 #@! TO.P,M1,5*
G04 #@! TO.N,Net-(M1-Pad5)*
X12700000Y-25400000D03*
G04 #@! TO.P,M1,6*
G04 #@! TO.N,Net-(M1-Pad6)*
X15240000Y-25400000D03*
G04 #@! TD*
D12*
G04 #@! TO.P,J1,3*
G04 #@! TO.N,Net-(J1-Pad3)*
X9779000Y-40182800D03*
D13*
G04 #@! TO.P,J1,1*
G04 #@! TO.N,/SwitchPad1*
X5080000Y-37185600D03*
G04 #@! TO.P,J1,2*
G04 #@! TO.N,DC_GND*
X5080000Y-43180000D03*
G04 #@! TD*
G04 #@! TO.P,J2,2*
G04 #@! TO.N,DC_GND*
X16510000Y-43180000D03*
G04 #@! TO.P,J2,1*
G04 #@! TO.N,+5V*
X16510000Y-37185600D03*
D12*
G04 #@! TO.P,J2,3*
G04 #@! TO.N,Net-(J2-Pad3)*
X11811000Y-40182800D03*
G04 #@! TD*
D14*
G04 #@! TO.P,SW2,1*
G04 #@! TO.N,DC_GND*
X27940000Y-2540000D03*
G04 #@! TO.P,SW2,2*
X21082000Y-2540000D03*
G04 #@! TO.P,SW2,3*
G04 #@! TO.N,/Up*
X27940000Y-7112000D03*
G04 #@! TO.P,SW2,4*
X21082000Y-7112000D03*
G04 #@! TD*
G04 #@! TO.P,SW3,4*
G04 #@! TO.N,/Down*
X33782000Y-7112000D03*
G04 #@! TO.P,SW3,3*
X40640000Y-7112000D03*
G04 #@! TO.P,SW3,2*
G04 #@! TO.N,DC_GND*
X33782000Y-2540000D03*
G04 #@! TO.P,SW3,1*
X40640000Y-2540000D03*
G04 #@! TD*
G04 #@! TO.P,SW4,1*
G04 #@! TO.N,DC_GND*
X53340000Y-2540000D03*
G04 #@! TO.P,SW4,2*
X46482000Y-2540000D03*
G04 #@! TO.P,SW4,3*
G04 #@! TO.N,/Left*
X53340000Y-7112000D03*
G04 #@! TO.P,SW4,4*
X46482000Y-7112000D03*
G04 #@! TD*
G04 #@! TO.P,SW5,4*
G04 #@! TO.N,/Right*
X59182000Y-7112000D03*
G04 #@! TO.P,SW5,3*
X66040000Y-7112000D03*
G04 #@! TO.P,SW5,2*
G04 #@! TO.N,DC_GND*
X59182000Y-2540000D03*
G04 #@! TO.P,SW5,1*
X66040000Y-2540000D03*
G04 #@! TD*
D15*
G04 #@! TO.P,J3,6*
G04 #@! TO.N,DC_GND*
X65980000Y-46113700D03*
G04 #@! TO.P,J3,5*
X45780000Y-46113700D03*
D16*
G04 #@! TO.P,J3,4*
G04 #@! TO.N,Net-(J3-Pad4)*
X60380000Y-40640000D03*
G04 #@! TO.P,J3,3*
G04 #@! TO.N,Net-(J3-Pad3)*
X57380000Y-40640000D03*
G04 #@! TO.P,J3,2*
G04 #@! TO.N,Net-(J3-Pad2)*
X54380000Y-40640000D03*
G04 #@! TO.P,J3,1*
G04 #@! TO.N,Net-(J3-Pad1)*
X51380000Y-40640000D03*
G04 #@! TD*
G04 #@! TO.P,J4,1*
G04 #@! TO.N,Net-(J4-Pad1)*
X26615000Y-40640000D03*
G04 #@! TO.P,J4,2*
G04 #@! TO.N,Net-(J4-Pad2)*
X29615000Y-40640000D03*
G04 #@! TO.P,J4,3*
G04 #@! TO.N,Net-(J4-Pad3)*
X32615000Y-40640000D03*
G04 #@! TO.P,J4,4*
G04 #@! TO.N,Net-(J4-Pad4)*
X35615000Y-40640000D03*
D15*
G04 #@! TO.P,J4,5*
G04 #@! TO.N,DC_GND*
X21015000Y-46113700D03*
G04 #@! TO.P,J4,6*
X41215000Y-46113700D03*
G04 #@! TD*
D17*
G04 #@! TO.P,U1,1*
G04 #@! TO.N,DC_GND*
X38608000Y-39624000D03*
G04 #@! TO.P,U1,2*
G04 #@! TO.N,Net-(M1-Pad9)*
X38608000Y-38354000D03*
G04 #@! TO.P,U1,3*
G04 #@! TO.N,Net-(J4-Pad4)*
X38608000Y-37084000D03*
G04 #@! TO.P,U1,4*
G04 #@! TO.N,Net-(M1-Pad10)*
X38608000Y-35814000D03*
G04 #@! TO.P,U1,5*
G04 #@! TO.N,Net-(J4-Pad3)*
X38608000Y-34544000D03*
G04 #@! TO.P,U1,6*
G04 #@! TO.N,Net-(M1-Pad11)*
X38608000Y-33274000D03*
G04 #@! TO.P,U1,7*
G04 #@! TO.N,Net-(J4-Pad2)*
X38608000Y-32004000D03*
G04 #@! TO.P,U1,8*
G04 #@! TO.N,Net-(M1-Pad12)*
X38608000Y-30734000D03*
G04 #@! TO.P,U1,9*
G04 #@! TO.N,Net-(J4-Pad1)*
X38608000Y-29464000D03*
G04 #@! TO.P,U1,10*
G04 #@! TO.N,DC_GND*
X38608000Y-28194000D03*
G04 #@! TO.P,U1,11*
G04 #@! TO.N,Net-(M1-Pad5)*
X48516540Y-28194000D03*
G04 #@! TO.P,U1,12*
G04 #@! TO.N,Net-(J3-Pad4)*
X48516540Y-29464000D03*
G04 #@! TO.P,U1,13*
G04 #@! TO.N,Net-(M1-Pad6)*
X48516540Y-30734000D03*
G04 #@! TO.P,U1,14*
G04 #@! TO.N,Net-(J3-Pad3)*
X48516540Y-32004000D03*
G04 #@! TO.P,U1,15*
G04 #@! TO.N,Net-(M1-Pad7)*
X48516540Y-33274000D03*
G04 #@! TO.P,U1,16*
G04 #@! TO.N,Net-(J3-Pad2)*
X48516540Y-34544000D03*
G04 #@! TO.P,U1,17*
G04 #@! TO.N,Net-(M1-Pad8)*
X48516540Y-35814000D03*
G04 #@! TO.P,U1,18*
G04 #@! TO.N,Net-(J3-Pad1)*
X48516540Y-37084000D03*
G04 #@! TO.P,U1,19*
G04 #@! TO.N,DC_GND*
X48516540Y-38354000D03*
G04 #@! TO.P,U1,20*
G04 #@! TO.N,+5V*
X48516540Y-39624000D03*
G04 #@! TD*
D10*
G04 #@! TO.P,M2,10*
G04 #@! TO.N,DC_GND*
X66040000Y-15240000D03*
G04 #@! TO.P,M2,9*
G04 #@! TO.N,Net-(M1-Pad26)*
X66040000Y-17780000D03*
G04 #@! TO.P,M2,8*
G04 #@! TO.N,Net-(M1-Pad20)*
X66040000Y-20320000D03*
G04 #@! TO.P,M2,7*
G04 #@! TO.N,Net-(M1-Pad21)*
X66040000Y-22860000D03*
D11*
G04 #@! TO.P,M2,1*
G04 #@! TO.N,Net-(M2-Pad1)*
X66040000Y-38100000D03*
D10*
G04 #@! TO.P,M2,2*
G04 #@! TO.N,Net-(M1-Pad14)*
X66040000Y-35560000D03*
G04 #@! TO.P,M2,3*
G04 #@! TO.N,Net-(M1-Pad13)*
X66040000Y-33020000D03*
G04 #@! TO.P,M2,4*
G04 #@! TO.N,Net-(M1-Pad15)*
X66040000Y-30480000D03*
G04 #@! TO.P,M2,5*
G04 #@! TO.N,Net-(M1-Pad23)*
X66040000Y-27940000D03*
G04 #@! TO.P,M2,6*
G04 #@! TO.N,Net-(M1-Pad22)*
X66040000Y-25400000D03*
G04 #@! TD*
D18*
G04 #@! TO.P,J5,1*
G04 #@! TO.N,+5V*
X20574000Y-30226000D03*
G04 #@! TD*
G04 #@! TO.P,J6,1*
G04 #@! TO.N,+5V*
X2540000Y-13462000D03*
G04 #@! TD*
D19*
G04 #@! TO.N,+5V*
X46990000Y-40640000D03*
D20*
G04 #@! TO.N,Net-(M1-Pad15)*
X39878000Y-12954000D03*
X61468000Y-23368000D03*
G04 #@! TO.N,Net-(M1-Pad14)*
X63246000Y-33274000D03*
G04 #@! TO.N,Net-(M1-Pad12)*
X35814000Y-30226000D03*
G04 #@! TO.N,Net-(M1-Pad5)*
X48514000Y-26924000D03*
G04 #@! TO.N,Net-(M1-Pad6)*
X46482000Y-30734000D03*
G04 #@! TO.N,Net-(M1-Pad10)*
X36322000Y-35814000D03*
G04 #@! TO.N,Net-(M1-Pad9)*
X41148000Y-33782000D03*
G04 #@! TO.N,Net-(M1-Pad8)*
X46228000Y-35814000D03*
G04 #@! TO.N,Net-(M1-Pad7)*
X46228000Y-33274000D03*
D21*
G04 #@! TO.N,Net-(M1-Pad26)*
X47752000Y-15748000D03*
D20*
G04 #@! TO.N,Net-(M1-Pad11)*
X34290000Y-33274000D03*
G04 #@! TD*
D22*
G04 #@! TO.N,DC_GND*
X21082000Y-2540000D02*
X27940000Y-2540000D01*
X27940000Y-2540000D02*
X33782000Y-2540000D01*
X33782000Y-2540000D02*
X40640000Y-2540000D01*
X40640000Y-2540000D02*
X46482000Y-2540000D01*
X46482000Y-2540000D02*
X53340000Y-2540000D01*
X53340000Y-2540000D02*
X59182000Y-2540000D01*
X59182000Y-2540000D02*
X62484000Y-2540000D01*
X62484000Y-2540000D02*
X66040000Y-2540000D01*
X62484000Y-2540000D02*
X62484000Y-15240000D01*
X62484000Y-15240000D02*
X66040000Y-15240000D01*
X2540000Y-25400000D02*
X2540000Y-22860000D01*
X38100000Y-21590000D02*
X43180000Y-21590000D01*
X35560000Y-19050000D02*
X38100000Y-21590000D01*
X6350000Y-19050000D02*
X35560000Y-19050000D01*
X2540000Y-22860000D02*
X6350000Y-19050000D01*
X56134000Y-21590000D02*
X43180000Y-21590000D01*
X56134000Y-21590000D02*
X62484000Y-15240000D01*
X45780000Y-46113700D02*
X65980000Y-46113700D01*
X43180000Y-39624000D02*
X43180000Y-38354000D01*
X43180000Y-38354000D02*
X43180000Y-28194000D01*
X43180000Y-28194000D02*
X43180000Y-21590000D01*
D23*
X38608000Y-39624000D02*
X43180000Y-39624000D01*
X48516540Y-38354000D02*
X43180000Y-38354000D01*
X38608000Y-28194000D02*
X43180000Y-28194000D01*
D22*
X5080000Y-43180000D02*
X5080000Y-40640000D01*
X5080000Y-43180000D02*
X7620000Y-43180000D01*
X5080000Y-43180000D02*
X5080000Y-45720000D01*
X5080000Y-43180000D02*
X2540000Y-43180000D01*
X16510000Y-43180000D02*
X13970000Y-43180000D01*
X16510000Y-43180000D02*
X16510000Y-40640000D01*
X16510000Y-43180000D02*
X19685000Y-43180000D01*
X16510000Y-43180000D02*
X16510000Y-45720000D01*
X2540000Y-25400000D02*
X2540000Y-27940000D01*
X45780000Y-46113700D02*
X41215000Y-46113700D01*
X41215000Y-46113700D02*
X21015000Y-46113700D01*
X21082000Y-2540000D02*
X17018000Y-2540000D01*
G04 #@! TO.N,+5V*
X2540000Y-10160000D02*
X2540000Y-13462000D01*
D23*
X48516540Y-39624000D02*
X48006000Y-39624000D01*
X48006000Y-39624000D02*
X46990000Y-40640000D01*
G04 #@! TO.N,Net-(J3-Pad3)*
X48516540Y-32004000D02*
X50038000Y-32004000D01*
X57380000Y-39854000D02*
X57380000Y-40640000D01*
X55626000Y-38100000D02*
X57380000Y-39854000D01*
X54102000Y-38100000D02*
X55626000Y-38100000D01*
X51816000Y-35814000D02*
X54102000Y-38100000D01*
X51816000Y-33782000D02*
X51816000Y-35814000D01*
X50038000Y-32004000D02*
X51816000Y-33782000D01*
G04 #@! TO.N,Net-(J3-Pad2)*
X48516540Y-34544000D02*
X50038000Y-34544000D01*
X54380000Y-39902000D02*
X54380000Y-40640000D01*
X50800000Y-36322000D02*
X54380000Y-39902000D01*
X50800000Y-35306000D02*
X50800000Y-36322000D01*
X50038000Y-34544000D02*
X50800000Y-35306000D01*
G04 #@! TO.N,Net-(J3-Pad1)*
X49784000Y-37084000D02*
X51380000Y-38680000D01*
X51380000Y-38680000D02*
X51380000Y-40640000D01*
X48516540Y-37084000D02*
X49784000Y-37084000D01*
G04 #@! TO.N,Net-(M1-Pad15)*
X66040000Y-30480000D02*
X65532000Y-30480000D01*
X65532000Y-30480000D02*
X63754000Y-28702000D01*
X37084000Y-10160000D02*
X35560000Y-10160000D01*
X39878000Y-12954000D02*
X37084000Y-10160000D01*
X35560000Y-10160000D02*
X36068000Y-10160000D01*
X63754000Y-25654000D02*
X63754000Y-28702000D01*
X63754000Y-25654000D02*
X61468000Y-23368000D01*
G04 #@! TO.N,Net-(M1-Pad14)*
X65532000Y-35560000D02*
X63246000Y-33274000D01*
X66040000Y-35560000D02*
X65532000Y-35560000D01*
G04 #@! TO.N,Net-(M1-Pad12)*
X36322000Y-30734000D02*
X38608000Y-30734000D01*
X35814000Y-30226000D02*
X36322000Y-30734000D01*
G04 #@! TO.N,Net-(J4-Pad4)*
X38608000Y-37084000D02*
X37338000Y-37084000D01*
X35615000Y-38807000D02*
X35615000Y-40640000D01*
X37338000Y-37084000D02*
X35615000Y-38807000D01*
G04 #@! TO.N,Net-(J4-Pad3)*
X38608000Y-34544000D02*
X37084000Y-34544000D01*
X32615000Y-39521000D02*
X32615000Y-40640000D01*
X33528000Y-38608000D02*
X32615000Y-39521000D01*
X37084000Y-34544000D02*
X36830000Y-34290000D01*
X36830000Y-34290000D02*
X35560000Y-34290000D01*
X35560000Y-34290000D02*
X34544000Y-35306000D01*
X34544000Y-35306000D02*
X34544000Y-37592000D01*
X34544000Y-37592000D02*
X33528000Y-38608000D01*
G04 #@! TO.N,Net-(J4-Pad2)*
X38608000Y-32004000D02*
X35306000Y-32004000D01*
X29615000Y-39727000D02*
X29615000Y-40640000D01*
X32766000Y-36576000D02*
X29615000Y-39727000D01*
X32766000Y-32766000D02*
X32766000Y-36576000D01*
X33782000Y-31750000D02*
X32766000Y-32766000D01*
X35052000Y-31750000D02*
X33782000Y-31750000D01*
X35306000Y-32004000D02*
X35052000Y-31750000D01*
G04 #@! TO.N,Net-(J4-Pad1)*
X38608000Y-29464000D02*
X37084000Y-29464000D01*
X26615000Y-39933000D02*
X26615000Y-40640000D01*
X28702000Y-37846000D02*
X26615000Y-39933000D01*
X29972000Y-37846000D02*
X28702000Y-37846000D01*
X31750000Y-36068000D02*
X29972000Y-37846000D01*
X31750000Y-32004000D02*
X31750000Y-36068000D01*
X35052000Y-28702000D02*
X31750000Y-32004000D01*
X36322000Y-28702000D02*
X35052000Y-28702000D01*
X37084000Y-29464000D02*
X36322000Y-28702000D01*
G04 #@! TO.N,Net-(J3-Pad4)*
X48516540Y-29464000D02*
X49784000Y-29464000D01*
X60380000Y-40060000D02*
X60380000Y-40640000D01*
X57404000Y-37084000D02*
X60380000Y-40060000D01*
X54610000Y-37084000D02*
X57404000Y-37084000D01*
X52832000Y-35306000D02*
X54610000Y-37084000D01*
X52832000Y-32512000D02*
X52832000Y-35306000D01*
X49784000Y-29464000D02*
X52832000Y-32512000D01*
G04 #@! TO.N,Net-(M1-Pad5)*
X48516540Y-26926540D02*
X48516540Y-28194000D01*
X48514000Y-26924000D02*
X48516540Y-26926540D01*
G04 #@! TO.N,Net-(M1-Pad6)*
X46482000Y-30734000D02*
X48516540Y-30734000D01*
G04 #@! TO.N,Net-(M1-Pad10)*
X38608000Y-35814000D02*
X36322000Y-35814000D01*
G04 #@! TO.N,Net-(M1-Pad9)*
X41148000Y-37338000D02*
X41148000Y-33782000D01*
X40132000Y-38354000D02*
X41148000Y-37338000D01*
X38608000Y-38354000D02*
X40132000Y-38354000D01*
G04 #@! TO.N,Net-(M1-Pad8)*
X48516540Y-35814000D02*
X46228000Y-35814000D01*
G04 #@! TO.N,Net-(M1-Pad7)*
X46228000Y-33274000D02*
X48516540Y-33274000D01*
D22*
G04 #@! TO.N,Net-(M1-Pad26)*
X7620000Y-10160000D02*
X7620000Y-11684000D01*
X38862000Y-15748000D02*
X47752000Y-15748000D01*
X36322000Y-13208000D02*
X38862000Y-15748000D01*
X9144000Y-13208000D02*
X36322000Y-13208000D01*
X7620000Y-11684000D02*
X9144000Y-13208000D01*
D23*
G04 #@! TO.N,Net-(M1-Pad11)*
X38608000Y-33274000D02*
X34290000Y-33274000D01*
G04 #@! TD*
D24*
G04 #@! TO.N,DC_GND*
G36*
X19895212Y-1532820D02*
X20009802Y-1647410D01*
X19754461Y-1732467D01*
X19546484Y-2301965D01*
X19572277Y-2907700D01*
X19754461Y-3347533D01*
X20009804Y-3432591D01*
X20902395Y-2540000D01*
X20888253Y-2525858D01*
X21067858Y-2346253D01*
X21082000Y-2360395D01*
X21096143Y-2346253D01*
X21275748Y-2525858D01*
X21261605Y-2540000D01*
X22154196Y-3432591D01*
X22409539Y-3347533D01*
X22617516Y-2778035D01*
X22591723Y-2172300D01*
X22409539Y-1732467D01*
X22154198Y-1647410D01*
X22268788Y-1532820D01*
X22207968Y-1472000D01*
X26814032Y-1472000D01*
X26753212Y-1532820D01*
X26867802Y-1647410D01*
X26612461Y-1732467D01*
X26404484Y-2301965D01*
X26430277Y-2907700D01*
X26612461Y-3347533D01*
X26867804Y-3432591D01*
X27760395Y-2540000D01*
X27746253Y-2525858D01*
X27925858Y-2346253D01*
X27940000Y-2360395D01*
X27954143Y-2346253D01*
X28133748Y-2525858D01*
X28119605Y-2540000D01*
X29012196Y-3432591D01*
X29267539Y-3347533D01*
X29475516Y-2778035D01*
X29449723Y-2172300D01*
X29267539Y-1732467D01*
X29012198Y-1647410D01*
X29126788Y-1532820D01*
X29065968Y-1472000D01*
X32656032Y-1472000D01*
X32595212Y-1532820D01*
X32709802Y-1647410D01*
X32454461Y-1732467D01*
X32246484Y-2301965D01*
X32272277Y-2907700D01*
X32454461Y-3347533D01*
X32709804Y-3432591D01*
X33602395Y-2540000D01*
X33588253Y-2525858D01*
X33767858Y-2346253D01*
X33782000Y-2360395D01*
X33796143Y-2346253D01*
X33975748Y-2525858D01*
X33961605Y-2540000D01*
X34854196Y-3432591D01*
X35109539Y-3347533D01*
X35317516Y-2778035D01*
X35291723Y-2172300D01*
X35109539Y-1732467D01*
X34854198Y-1647410D01*
X34968788Y-1532820D01*
X34907968Y-1472000D01*
X39514032Y-1472000D01*
X39453212Y-1532820D01*
X39567802Y-1647410D01*
X39312461Y-1732467D01*
X39104484Y-2301965D01*
X39130277Y-2907700D01*
X39312461Y-3347533D01*
X39567804Y-3432591D01*
X40460395Y-2540000D01*
X40446253Y-2525858D01*
X40625858Y-2346253D01*
X40640000Y-2360395D01*
X40654143Y-2346253D01*
X40833748Y-2525858D01*
X40819605Y-2540000D01*
X41712196Y-3432591D01*
X41967539Y-3347533D01*
X42175516Y-2778035D01*
X42149723Y-2172300D01*
X41967539Y-1732467D01*
X41712198Y-1647410D01*
X41826788Y-1532820D01*
X41765968Y-1472000D01*
X45356032Y-1472000D01*
X45295212Y-1532820D01*
X45409802Y-1647410D01*
X45154461Y-1732467D01*
X44946484Y-2301965D01*
X44972277Y-2907700D01*
X45154461Y-3347533D01*
X45409804Y-3432591D01*
X46302395Y-2540000D01*
X46288253Y-2525858D01*
X46467858Y-2346253D01*
X46482000Y-2360395D01*
X46496143Y-2346253D01*
X46675748Y-2525858D01*
X46661605Y-2540000D01*
X47554196Y-3432591D01*
X47809539Y-3347533D01*
X48017516Y-2778035D01*
X47991723Y-2172300D01*
X47809539Y-1732467D01*
X47554198Y-1647410D01*
X47668788Y-1532820D01*
X47607968Y-1472000D01*
X52214032Y-1472000D01*
X52153212Y-1532820D01*
X52267802Y-1647410D01*
X52012461Y-1732467D01*
X51804484Y-2301965D01*
X51830277Y-2907700D01*
X52012461Y-3347533D01*
X52267804Y-3432591D01*
X53160395Y-2540000D01*
X53146253Y-2525858D01*
X53325858Y-2346253D01*
X53340000Y-2360395D01*
X53354143Y-2346253D01*
X53533748Y-2525858D01*
X53519605Y-2540000D01*
X54412196Y-3432591D01*
X54667539Y-3347533D01*
X54875516Y-2778035D01*
X54849723Y-2172300D01*
X54667539Y-1732467D01*
X54412198Y-1647410D01*
X54526788Y-1532820D01*
X54465968Y-1472000D01*
X58056032Y-1472000D01*
X57995212Y-1532820D01*
X58109802Y-1647410D01*
X57854461Y-1732467D01*
X57646484Y-2301965D01*
X57672277Y-2907700D01*
X57854461Y-3347533D01*
X58109804Y-3432591D01*
X59002395Y-2540000D01*
X58988253Y-2525858D01*
X59167858Y-2346253D01*
X59182000Y-2360395D01*
X59196143Y-2346253D01*
X59375748Y-2525858D01*
X59361605Y-2540000D01*
X60254196Y-3432591D01*
X60509539Y-3347533D01*
X60717516Y-2778035D01*
X60691723Y-2172300D01*
X60509539Y-1732467D01*
X60254198Y-1647410D01*
X60368788Y-1532820D01*
X60307968Y-1472000D01*
X64914032Y-1472000D01*
X64853212Y-1532820D01*
X64967802Y-1647410D01*
X64712461Y-1732467D01*
X64504484Y-2301965D01*
X64530277Y-2907700D01*
X64712461Y-3347533D01*
X64967804Y-3432591D01*
X65860395Y-2540000D01*
X65846253Y-2525858D01*
X66025858Y-2346253D01*
X66040000Y-2360395D01*
X66054143Y-2346253D01*
X66233748Y-2525858D01*
X66219605Y-2540000D01*
X66233748Y-2554143D01*
X66054143Y-2733748D01*
X66040000Y-2719605D01*
X65147409Y-3612196D01*
X65232467Y-3867539D01*
X65801965Y-4075516D01*
X66407700Y-4049723D01*
X66847533Y-3867539D01*
X66932590Y-3612198D01*
X67047180Y-3726788D01*
X67108000Y-3665968D01*
X67108000Y-5080032D01*
X66494714Y-4826000D01*
X65585286Y-4826000D01*
X64745085Y-5174023D01*
X64102023Y-5817085D01*
X63754000Y-6657286D01*
X63754000Y-7566714D01*
X64102023Y-8406915D01*
X64745085Y-9049977D01*
X65585286Y-9398000D01*
X66494714Y-9398000D01*
X67108000Y-9143968D01*
X67108000Y-14022472D01*
X67092960Y-14007432D01*
X66978553Y-14121839D01*
X66885712Y-13859912D01*
X66293199Y-13641325D01*
X65662139Y-13666122D01*
X65194288Y-13859912D01*
X65101446Y-14121841D01*
X66040000Y-15060395D01*
X66054143Y-15046253D01*
X66233748Y-15225858D01*
X66219605Y-15240000D01*
X66233748Y-15254143D01*
X66057390Y-15430500D01*
X66050895Y-15430500D01*
X66040000Y-15419605D01*
X66029105Y-15430500D01*
X66022610Y-15430500D01*
X65846253Y-15254143D01*
X65860395Y-15240000D01*
X64921841Y-14301446D01*
X64659912Y-14394288D01*
X64441325Y-14986801D01*
X64466122Y-15617861D01*
X64587181Y-15910124D01*
X64048190Y-16449115D01*
X63690500Y-17312655D01*
X63690500Y-18247345D01*
X64022971Y-19050000D01*
X63690500Y-19852655D01*
X63690500Y-20787345D01*
X64022971Y-21590000D01*
X63690500Y-22392655D01*
X63690500Y-23255634D01*
X63336981Y-22902115D01*
X63082981Y-22288904D01*
X62547096Y-21753019D01*
X61846928Y-21463000D01*
X61089072Y-21463000D01*
X60388904Y-21753019D01*
X59853019Y-22288904D01*
X59563000Y-22989072D01*
X59563000Y-23746928D01*
X59853019Y-24447096D01*
X60388904Y-24982981D01*
X61002115Y-25236981D01*
X62103000Y-26337867D01*
X62103001Y-28539387D01*
X62070655Y-28702000D01*
X62162609Y-29164280D01*
X62198793Y-29346188D01*
X62563696Y-29892305D01*
X62701549Y-29984416D01*
X63708900Y-30991767D01*
X63914908Y-31489114D01*
X63624928Y-31369000D01*
X62867072Y-31369000D01*
X62166904Y-31659019D01*
X61631019Y-32194904D01*
X61341000Y-32895072D01*
X61341000Y-33652928D01*
X61631019Y-34353096D01*
X62166904Y-34888981D01*
X62780115Y-35142981D01*
X63708900Y-36071767D01*
X63868565Y-36457233D01*
X63771556Y-36602418D01*
X63663132Y-37147500D01*
X63663132Y-39052500D01*
X63771556Y-39597582D01*
X64080320Y-40059680D01*
X64542418Y-40368444D01*
X65087500Y-40476868D01*
X66992500Y-40476868D01*
X67108001Y-40453893D01*
X67108001Y-44653700D01*
X66265750Y-44653700D01*
X66107000Y-44812450D01*
X66107000Y-45986700D01*
X66127000Y-45986700D01*
X66127000Y-46240700D01*
X66107000Y-46240700D01*
X66107000Y-46260700D01*
X65853000Y-46260700D01*
X65853000Y-46240700D01*
X63788750Y-46240700D01*
X63630000Y-46399450D01*
X63630000Y-46788000D01*
X48130000Y-46788000D01*
X48130000Y-46399450D01*
X47971250Y-46240700D01*
X45907000Y-46240700D01*
X45907000Y-46260700D01*
X45653000Y-46260700D01*
X45653000Y-46240700D01*
X43588750Y-46240700D01*
X43497500Y-46331950D01*
X43406250Y-46240700D01*
X41342000Y-46240700D01*
X41342000Y-46260700D01*
X41088000Y-46260700D01*
X41088000Y-46240700D01*
X39023750Y-46240700D01*
X38865000Y-46399450D01*
X38865000Y-46788000D01*
X23365000Y-46788000D01*
X23365000Y-46399450D01*
X23206250Y-46240700D01*
X21142000Y-46240700D01*
X21142000Y-46260700D01*
X20888000Y-46260700D01*
X20888000Y-46240700D01*
X18823750Y-46240700D01*
X18665000Y-46399450D01*
X18665000Y-46788000D01*
X2632613Y-46788000D01*
X2500976Y-46771370D01*
X1478677Y-45749071D01*
X1472647Y-45717462D01*
X1472000Y-45696866D01*
X1472000Y-45162390D01*
X18665000Y-45162390D01*
X18665000Y-45827950D01*
X18823750Y-45986700D01*
X20888000Y-45986700D01*
X20888000Y-44812450D01*
X21142000Y-44812450D01*
X21142000Y-45986700D01*
X23206250Y-45986700D01*
X23365000Y-45827950D01*
X23365000Y-45162390D01*
X38865000Y-45162390D01*
X38865000Y-45827950D01*
X39023750Y-45986700D01*
X41088000Y-45986700D01*
X41088000Y-44812450D01*
X41342000Y-44812450D01*
X41342000Y-45986700D01*
X43406250Y-45986700D01*
X43497500Y-45895450D01*
X43588750Y-45986700D01*
X45653000Y-45986700D01*
X45653000Y-44812450D01*
X45907000Y-44812450D01*
X45907000Y-45986700D01*
X47971250Y-45986700D01*
X48130000Y-45827950D01*
X48130000Y-45162390D01*
X63630000Y-45162390D01*
X63630000Y-45827950D01*
X63788750Y-45986700D01*
X65853000Y-45986700D01*
X65853000Y-44812450D01*
X65694250Y-44653700D01*
X64138691Y-44653700D01*
X63905302Y-44750373D01*
X63726673Y-44929001D01*
X63630000Y-45162390D01*
X48130000Y-45162390D01*
X48033327Y-44929001D01*
X47854698Y-44750373D01*
X47621309Y-44653700D01*
X46065750Y-44653700D01*
X45907000Y-44812450D01*
X45653000Y-44812450D01*
X45494250Y-44653700D01*
X43938691Y-44653700D01*
X43705302Y-44750373D01*
X43526673Y-44929001D01*
X43497500Y-44999431D01*
X43468327Y-44929001D01*
X43289698Y-44750373D01*
X43056309Y-44653700D01*
X41500750Y-44653700D01*
X41342000Y-44812450D01*
X41088000Y-44812450D01*
X40929250Y-44653700D01*
X39373691Y-44653700D01*
X39140302Y-44750373D01*
X38961673Y-44929001D01*
X38865000Y-45162390D01*
X23365000Y-45162390D01*
X23268327Y-44929001D01*
X23089698Y-44750373D01*
X22856309Y-44653700D01*
X21300750Y-44653700D01*
X21142000Y-44812450D01*
X20888000Y-44812450D01*
X20729250Y-44653700D01*
X19173691Y-44653700D01*
X18940302Y-44750373D01*
X18761673Y-44929001D01*
X18665000Y-45162390D01*
X1472000Y-45162390D01*
X1472000Y-43562944D01*
X2966025Y-43562944D01*
X2998074Y-43694477D01*
X3314764Y-44257630D01*
X3822857Y-44656724D01*
X4445000Y-44831000D01*
X4953000Y-44831000D01*
X4953000Y-43307000D01*
X5207000Y-43307000D01*
X5207000Y-44831000D01*
X5715000Y-44831000D01*
X6337143Y-44656724D01*
X6845236Y-44257630D01*
X7161926Y-43694477D01*
X7193975Y-43562944D01*
X14396025Y-43562944D01*
X14428074Y-43694477D01*
X14744764Y-44257630D01*
X15252857Y-44656724D01*
X15875000Y-44831000D01*
X16383000Y-44831000D01*
X16383000Y-43307000D01*
X16637000Y-43307000D01*
X16637000Y-44831000D01*
X17145000Y-44831000D01*
X17767143Y-44656724D01*
X18275236Y-44257630D01*
X18591926Y-43694477D01*
X18623975Y-43562944D01*
X18504836Y-43307000D01*
X16637000Y-43307000D01*
X16383000Y-43307000D01*
X14515164Y-43307000D01*
X14396025Y-43562944D01*
X7193975Y-43562944D01*
X7074836Y-43307000D01*
X5207000Y-43307000D01*
X4953000Y-43307000D01*
X3085164Y-43307000D01*
X2966025Y-43562944D01*
X1472000Y-43562944D01*
X1472000Y-42797056D01*
X2966025Y-42797056D01*
X3085164Y-43053000D01*
X4953000Y-43053000D01*
X4953000Y-41529000D01*
X5207000Y-41529000D01*
X5207000Y-43053000D01*
X7074836Y-43053000D01*
X7193975Y-42797056D01*
X7161926Y-42665523D01*
X6845236Y-42102370D01*
X6337143Y-41703276D01*
X5715000Y-41529000D01*
X5207000Y-41529000D01*
X4953000Y-41529000D01*
X4445000Y-41529000D01*
X3822857Y-41703276D01*
X3314764Y-42102370D01*
X2998074Y-42665523D01*
X2966025Y-42797056D01*
X1472000Y-42797056D01*
X1472000Y-37185600D01*
X2111727Y-37185600D01*
X2299004Y-38127106D01*
X2832324Y-38925276D01*
X3630494Y-39458596D01*
X4334342Y-39598600D01*
X5825658Y-39598600D01*
X6529506Y-39458596D01*
X6561612Y-39437143D01*
X7366000Y-39437143D01*
X7366000Y-40928458D01*
X7506004Y-41632306D01*
X8039325Y-42430476D01*
X8837495Y-42963796D01*
X9779000Y-43151073D01*
X10720506Y-42963796D01*
X10795001Y-42914020D01*
X10869495Y-42963796D01*
X11811000Y-43151073D01*
X12752506Y-42963796D01*
X13002050Y-42797056D01*
X14396025Y-42797056D01*
X14515164Y-43053000D01*
X16383000Y-43053000D01*
X16383000Y-41529000D01*
X16637000Y-41529000D01*
X16637000Y-43053000D01*
X18504836Y-43053000D01*
X18623975Y-42797056D01*
X18591926Y-42665523D01*
X18275236Y-42102370D01*
X17767143Y-41703276D01*
X17145000Y-41529000D01*
X16637000Y-41529000D01*
X16383000Y-41529000D01*
X15875000Y-41529000D01*
X15252857Y-41703276D01*
X14744764Y-42102370D01*
X14428074Y-42665523D01*
X14396025Y-42797056D01*
X13002050Y-42797056D01*
X13550676Y-42430476D01*
X14083996Y-41632305D01*
X14224000Y-40928457D01*
X14224000Y-39437142D01*
X14083996Y-38733294D01*
X13550676Y-37935124D01*
X12752505Y-37401804D01*
X11811000Y-37214527D01*
X10869494Y-37401804D01*
X10795000Y-37451580D01*
X10720505Y-37401804D01*
X9779000Y-37214527D01*
X8837494Y-37401804D01*
X8039324Y-37935124D01*
X7506004Y-38733295D01*
X7366000Y-39437143D01*
X6561612Y-39437143D01*
X7327676Y-38925276D01*
X7860996Y-38127106D01*
X8048273Y-37185600D01*
X13541727Y-37185600D01*
X13729004Y-38127106D01*
X14262324Y-38925276D01*
X15060494Y-39458596D01*
X15764342Y-39598600D01*
X17255658Y-39598600D01*
X17959506Y-39458596D01*
X18757676Y-38925276D01*
X19290996Y-38127106D01*
X19478273Y-37185600D01*
X19290996Y-36244094D01*
X18757676Y-35445924D01*
X17959506Y-34912604D01*
X17255658Y-34772600D01*
X15764342Y-34772600D01*
X15060494Y-34912604D01*
X14262324Y-35445924D01*
X13729004Y-36244094D01*
X13541727Y-37185600D01*
X8048273Y-37185600D01*
X7860996Y-36244094D01*
X7327676Y-35445924D01*
X6529506Y-34912604D01*
X5825658Y-34772600D01*
X4334342Y-34772600D01*
X3630494Y-34912604D01*
X2832324Y-35445924D01*
X2299004Y-36244094D01*
X2111727Y-37185600D01*
X1472000Y-37185600D01*
X1472000Y-26987500D01*
X2254250Y-26987500D01*
X2413000Y-26828750D01*
X2413000Y-25527000D01*
X2393000Y-25527000D01*
X2393000Y-25273000D01*
X2413000Y-25273000D01*
X2413000Y-23971250D01*
X2667000Y-23971250D01*
X2667000Y-25273000D01*
X2687000Y-25273000D01*
X2687000Y-25527000D01*
X2667000Y-25527000D01*
X2667000Y-26828750D01*
X2825750Y-26987500D01*
X3344805Y-26987500D01*
X3749115Y-27391810D01*
X4612655Y-27749500D01*
X5547345Y-27749500D01*
X6350000Y-27417029D01*
X7152655Y-27749500D01*
X8087345Y-27749500D01*
X8890000Y-27417029D01*
X9692655Y-27749500D01*
X10627345Y-27749500D01*
X11430000Y-27417029D01*
X12232655Y-27749500D01*
X13167345Y-27749500D01*
X13970000Y-27417029D01*
X14772655Y-27749500D01*
X15707345Y-27749500D01*
X16510000Y-27417029D01*
X17312655Y-27749500D01*
X18247345Y-27749500D01*
X18288000Y-27732660D01*
X18288000Y-29439420D01*
X18161000Y-29746025D01*
X18161000Y-30705975D01*
X18528358Y-31592854D01*
X19207146Y-32271642D01*
X20094025Y-32639000D01*
X21053975Y-32639000D01*
X21940854Y-32271642D01*
X22619642Y-31592854D01*
X22987000Y-30705975D01*
X22987000Y-27749500D01*
X23327345Y-27749500D01*
X24130000Y-27417029D01*
X24932655Y-27749500D01*
X25867345Y-27749500D01*
X26670000Y-27417029D01*
X27472655Y-27749500D01*
X28407345Y-27749500D01*
X29210000Y-27417029D01*
X30012655Y-27749500D01*
X30947345Y-27749500D01*
X31750000Y-27417029D01*
X32552655Y-27749500D01*
X33487345Y-27749500D01*
X33785250Y-27626104D01*
X33769584Y-27649549D01*
X30697552Y-30721582D01*
X30559695Y-30813695D01*
X30194792Y-31359813D01*
X30105068Y-31810885D01*
X30066655Y-32004000D01*
X30099000Y-32166608D01*
X30099001Y-35384132D01*
X29288134Y-36195000D01*
X28864609Y-36195000D01*
X28702000Y-36162655D01*
X28057811Y-36290792D01*
X27807286Y-36458188D01*
X27511695Y-36655695D01*
X27419584Y-36793549D01*
X26458002Y-37755132D01*
X25980000Y-37755132D01*
X25434918Y-37863556D01*
X24972820Y-38172320D01*
X24664056Y-38634418D01*
X24555632Y-39179500D01*
X24555632Y-42100500D01*
X24664056Y-42645582D01*
X24972820Y-43107680D01*
X25434918Y-43416444D01*
X25980000Y-43524868D01*
X27250000Y-43524868D01*
X27795082Y-43416444D01*
X28115000Y-43202682D01*
X28434918Y-43416444D01*
X28980000Y-43524868D01*
X30250000Y-43524868D01*
X30795082Y-43416444D01*
X31115000Y-43202682D01*
X31434918Y-43416444D01*
X31980000Y-43524868D01*
X33250000Y-43524868D01*
X33795082Y-43416444D01*
X34115000Y-43202682D01*
X34434918Y-43416444D01*
X34980000Y-43524868D01*
X36250000Y-43524868D01*
X36795082Y-43416444D01*
X37257180Y-43107680D01*
X37565944Y-42645582D01*
X37674368Y-42100500D01*
X37674368Y-40558720D01*
X38322250Y-40558720D01*
X38481000Y-40399970D01*
X38481000Y-40078088D01*
X38735000Y-40078088D01*
X38735000Y-40399970D01*
X38893750Y-40558720D01*
X39709670Y-40558720D01*
X39943059Y-40462047D01*
X40121687Y-40283418D01*
X40218360Y-40050029D01*
X40218360Y-40020167D01*
X40294608Y-40005000D01*
X40294609Y-40005000D01*
X40776188Y-39909208D01*
X41322305Y-39544305D01*
X41414418Y-39406448D01*
X42200449Y-38620417D01*
X42338305Y-38528305D01*
X42703208Y-37982188D01*
X42799000Y-37500609D01*
X42799000Y-37500608D01*
X42831345Y-37338000D01*
X42799000Y-37175392D01*
X42799000Y-34774138D01*
X43053000Y-34160928D01*
X43053000Y-33403072D01*
X42842580Y-32895072D01*
X44323000Y-32895072D01*
X44323000Y-33652928D01*
X44613019Y-34353096D01*
X44803923Y-34544000D01*
X44613019Y-34734904D01*
X44323000Y-35435072D01*
X44323000Y-36192928D01*
X44613019Y-36893096D01*
X45148904Y-37428981D01*
X45849072Y-37719000D01*
X46183504Y-37719000D01*
X46225236Y-37928802D01*
X46509344Y-38354000D01*
X46225236Y-38779198D01*
X46174832Y-39032595D01*
X45972081Y-39116577D01*
X45466577Y-39622081D01*
X45193000Y-40282555D01*
X45193000Y-40997445D01*
X45466577Y-41657919D01*
X45972081Y-42163423D01*
X46632555Y-42437000D01*
X47347445Y-42437000D01*
X48007919Y-42163423D01*
X48513423Y-41657919D01*
X48641759Y-41348088D01*
X49320632Y-41348088D01*
X49320632Y-42100500D01*
X49429056Y-42645582D01*
X49737820Y-43107680D01*
X50199918Y-43416444D01*
X50745000Y-43524868D01*
X52015000Y-43524868D01*
X52560082Y-43416444D01*
X52880000Y-43202682D01*
X53199918Y-43416444D01*
X53745000Y-43524868D01*
X55015000Y-43524868D01*
X55560082Y-43416444D01*
X55880000Y-43202682D01*
X56199918Y-43416444D01*
X56745000Y-43524868D01*
X58015000Y-43524868D01*
X58560082Y-43416444D01*
X58880000Y-43202682D01*
X59199918Y-43416444D01*
X59745000Y-43524868D01*
X61015000Y-43524868D01*
X61560082Y-43416444D01*
X62022180Y-43107680D01*
X62330944Y-42645582D01*
X62439368Y-42100500D01*
X62439368Y-39179500D01*
X62330944Y-38634418D01*
X62022180Y-38172320D01*
X61560082Y-37863556D01*
X61015000Y-37755132D01*
X60409999Y-37755132D01*
X58686418Y-36031552D01*
X58594305Y-35893695D01*
X58048188Y-35528792D01*
X57566609Y-35433000D01*
X57566608Y-35433000D01*
X57404000Y-35400655D01*
X57241392Y-35433000D01*
X55293867Y-35433000D01*
X54483000Y-34622134D01*
X54483000Y-32674608D01*
X54515345Y-32512000D01*
X54471029Y-32289208D01*
X54387208Y-31867812D01*
X54022305Y-31321695D01*
X53884452Y-31229585D01*
X51066418Y-28411552D01*
X50974305Y-28273695D01*
X50916268Y-28234916D01*
X50916268Y-27894280D01*
X50807844Y-27349198D01*
X50499080Y-26887100D01*
X50419000Y-26833592D01*
X50419000Y-26545072D01*
X50128981Y-25844904D01*
X49593096Y-25309019D01*
X48892928Y-25019000D01*
X48135072Y-25019000D01*
X47434904Y-25309019D01*
X46899019Y-25844904D01*
X46609000Y-26545072D01*
X46609000Y-26836987D01*
X46534000Y-26887100D01*
X46225236Y-27349198D01*
X46116812Y-27894280D01*
X46116812Y-28493720D01*
X46183504Y-28829000D01*
X46103072Y-28829000D01*
X45402904Y-29119019D01*
X44867019Y-29654904D01*
X44577000Y-30355072D01*
X44577000Y-31112928D01*
X44867019Y-31813096D01*
X44930923Y-31877000D01*
X44613019Y-32194904D01*
X44323000Y-32895072D01*
X42842580Y-32895072D01*
X42762981Y-32702904D01*
X42227096Y-32167019D01*
X41526928Y-31877000D01*
X41007728Y-31877000D01*
X41007728Y-31704280D01*
X40941036Y-31369000D01*
X41007728Y-31033720D01*
X41007728Y-30434280D01*
X40941036Y-30099000D01*
X41007728Y-29763720D01*
X41007728Y-29164280D01*
X40899304Y-28619198D01*
X40590540Y-28157100D01*
X40218260Y-27908350D01*
X40218360Y-27908250D01*
X40218360Y-27767971D01*
X40121687Y-27534582D01*
X39943059Y-27355953D01*
X39709670Y-27259280D01*
X38893750Y-27259280D01*
X38735000Y-27418030D01*
X38735000Y-27739912D01*
X38481000Y-27739912D01*
X38481000Y-27418030D01*
X38322250Y-27259280D01*
X37506330Y-27259280D01*
X37276817Y-27354347D01*
X37067925Y-27214770D01*
X37551810Y-26730885D01*
X37909500Y-25867345D01*
X37909500Y-24932655D01*
X37551810Y-24069115D01*
X36890885Y-23408190D01*
X36027345Y-23050500D01*
X35092655Y-23050500D01*
X34290000Y-23382971D01*
X33487345Y-23050500D01*
X32552655Y-23050500D01*
X31750000Y-23382971D01*
X30947345Y-23050500D01*
X30012655Y-23050500D01*
X29210000Y-23382971D01*
X28407345Y-23050500D01*
X27472655Y-23050500D01*
X26670000Y-23382971D01*
X25867345Y-23050500D01*
X24932655Y-23050500D01*
X24130000Y-23382971D01*
X23327345Y-23050500D01*
X22392655Y-23050500D01*
X21590000Y-23382971D01*
X20787345Y-23050500D01*
X19852655Y-23050500D01*
X19050000Y-23382971D01*
X18247345Y-23050500D01*
X17312655Y-23050500D01*
X16510000Y-23382971D01*
X15707345Y-23050500D01*
X14772655Y-23050500D01*
X13970000Y-23382971D01*
X13167345Y-23050500D01*
X12232655Y-23050500D01*
X11430000Y-23382971D01*
X10627345Y-23050500D01*
X9692655Y-23050500D01*
X8890000Y-23382971D01*
X8087345Y-23050500D01*
X7152655Y-23050500D01*
X6350000Y-23382971D01*
X5547345Y-23050500D01*
X4612655Y-23050500D01*
X3749115Y-23408190D01*
X3344805Y-23812500D01*
X2825750Y-23812500D01*
X2667000Y-23971250D01*
X2413000Y-23971250D01*
X2254250Y-23812500D01*
X1472000Y-23812500D01*
X1472000Y-15631432D01*
X2060025Y-15875000D01*
X3019975Y-15875000D01*
X3906854Y-15507642D01*
X4585642Y-14828854D01*
X4953000Y-13941975D01*
X4953000Y-12982025D01*
X4757273Y-12509500D01*
X5547345Y-12509500D01*
X5699830Y-12446338D01*
X5705899Y-12476847D01*
X6024723Y-12954000D01*
X6155011Y-13148990D01*
X6324674Y-13262356D01*
X7565643Y-14503325D01*
X7679010Y-14672990D01*
X8351153Y-15122102D01*
X8943867Y-15240000D01*
X8943871Y-15240000D01*
X9143999Y-15279808D01*
X9344127Y-15240000D01*
X35480319Y-15240000D01*
X37283644Y-17043326D01*
X37397010Y-17212990D01*
X38069153Y-17662102D01*
X38661867Y-17780000D01*
X38661871Y-17780000D01*
X38861999Y-17819808D01*
X39062127Y-17780000D01*
X46012292Y-17780000D01*
X46241266Y-18008974D01*
X47221501Y-18415000D01*
X48282499Y-18415000D01*
X49262734Y-18008974D01*
X50012974Y-17258734D01*
X50419000Y-16278499D01*
X50419000Y-15217501D01*
X50012974Y-14237266D01*
X49262734Y-13487026D01*
X48282499Y-13081000D01*
X47221501Y-13081000D01*
X46241266Y-13487026D01*
X46012292Y-13716000D01*
X41624326Y-13716000D01*
X41783000Y-13332928D01*
X41783000Y-12575072D01*
X41492981Y-11874904D01*
X40957096Y-11339019D01*
X40343886Y-11085019D01*
X38366418Y-9107552D01*
X38274305Y-8969695D01*
X37728188Y-8604792D01*
X37246609Y-8509000D01*
X37246608Y-8509000D01*
X37227992Y-8505297D01*
X36890885Y-8168190D01*
X36027345Y-7810500D01*
X35967020Y-7810500D01*
X36068000Y-7566714D01*
X36068000Y-6657286D01*
X38354000Y-6657286D01*
X38354000Y-7566714D01*
X38702023Y-8406915D01*
X39345085Y-9049977D01*
X40185286Y-9398000D01*
X41094714Y-9398000D01*
X41934915Y-9049977D01*
X42577977Y-8406915D01*
X42926000Y-7566714D01*
X42926000Y-6657286D01*
X44196000Y-6657286D01*
X44196000Y-7566714D01*
X44544023Y-8406915D01*
X45187085Y-9049977D01*
X46027286Y-9398000D01*
X46936714Y-9398000D01*
X47776915Y-9049977D01*
X48419977Y-8406915D01*
X48768000Y-7566714D01*
X48768000Y-6657286D01*
X51054000Y-6657286D01*
X51054000Y-7566714D01*
X51402023Y-8406915D01*
X52045085Y-9049977D01*
X52885286Y-9398000D01*
X53794714Y-9398000D01*
X54634915Y-9049977D01*
X55277977Y-8406915D01*
X55626000Y-7566714D01*
X55626000Y-6657286D01*
X56896000Y-6657286D01*
X56896000Y-7566714D01*
X57244023Y-8406915D01*
X57887085Y-9049977D01*
X58727286Y-9398000D01*
X59636714Y-9398000D01*
X60476915Y-9049977D01*
X61119977Y-8406915D01*
X61468000Y-7566714D01*
X61468000Y-6657286D01*
X61119977Y-5817085D01*
X60476915Y-5174023D01*
X59636714Y-4826000D01*
X58727286Y-4826000D01*
X57887085Y-5174023D01*
X57244023Y-5817085D01*
X56896000Y-6657286D01*
X55626000Y-6657286D01*
X55277977Y-5817085D01*
X54634915Y-5174023D01*
X53794714Y-4826000D01*
X52885286Y-4826000D01*
X52045085Y-5174023D01*
X51402023Y-5817085D01*
X51054000Y-6657286D01*
X48768000Y-6657286D01*
X48419977Y-5817085D01*
X47776915Y-5174023D01*
X46936714Y-4826000D01*
X46027286Y-4826000D01*
X45187085Y-5174023D01*
X44544023Y-5817085D01*
X44196000Y-6657286D01*
X42926000Y-6657286D01*
X42577977Y-5817085D01*
X41934915Y-5174023D01*
X41094714Y-4826000D01*
X40185286Y-4826000D01*
X39345085Y-5174023D01*
X38702023Y-5817085D01*
X38354000Y-6657286D01*
X36068000Y-6657286D01*
X35719977Y-5817085D01*
X35076915Y-5174023D01*
X34236714Y-4826000D01*
X33327286Y-4826000D01*
X32487085Y-5174023D01*
X31844023Y-5817085D01*
X31496000Y-6657286D01*
X31496000Y-7566714D01*
X31731523Y-8135317D01*
X30947345Y-7810500D01*
X30125020Y-7810500D01*
X30226000Y-7566714D01*
X30226000Y-6657286D01*
X29877977Y-5817085D01*
X29234915Y-5174023D01*
X28394714Y-4826000D01*
X27485286Y-4826000D01*
X26645085Y-5174023D01*
X26002023Y-5817085D01*
X25654000Y-6657286D01*
X25654000Y-7566714D01*
X25754980Y-7810500D01*
X24932655Y-7810500D01*
X24130000Y-8142971D01*
X23327345Y-7810500D01*
X23267020Y-7810500D01*
X23368000Y-7566714D01*
X23368000Y-6657286D01*
X23019977Y-5817085D01*
X22376915Y-5174023D01*
X21536714Y-4826000D01*
X20627286Y-4826000D01*
X19787085Y-5174023D01*
X19144023Y-5817085D01*
X18796000Y-6657286D01*
X18796000Y-7566714D01*
X19031523Y-8135317D01*
X18247345Y-7810500D01*
X17312655Y-7810500D01*
X16510000Y-8142971D01*
X15707345Y-7810500D01*
X14772655Y-7810500D01*
X13970000Y-8142971D01*
X13167345Y-7810500D01*
X12232655Y-7810500D01*
X11430000Y-8142971D01*
X10627345Y-7810500D01*
X9692655Y-7810500D01*
X8890000Y-8142971D01*
X8087345Y-7810500D01*
X7152655Y-7810500D01*
X6350000Y-8142971D01*
X5547345Y-7810500D01*
X4612655Y-7810500D01*
X3810000Y-8142971D01*
X3007345Y-7810500D01*
X2072655Y-7810500D01*
X1472000Y-8059299D01*
X1472000Y-3612196D01*
X20189409Y-3612196D01*
X20274467Y-3867539D01*
X20843965Y-4075516D01*
X21449700Y-4049723D01*
X21889533Y-3867539D01*
X21974591Y-3612196D01*
X27047409Y-3612196D01*
X27132467Y-3867539D01*
X27701965Y-4075516D01*
X28307700Y-4049723D01*
X28747533Y-3867539D01*
X28832591Y-3612196D01*
X32889409Y-3612196D01*
X32974467Y-3867539D01*
X33543965Y-4075516D01*
X34149700Y-4049723D01*
X34589533Y-3867539D01*
X34674591Y-3612196D01*
X39747409Y-3612196D01*
X39832467Y-3867539D01*
X40401965Y-4075516D01*
X41007700Y-4049723D01*
X41447533Y-3867539D01*
X41532591Y-3612196D01*
X45589409Y-3612196D01*
X45674467Y-3867539D01*
X46243965Y-4075516D01*
X46849700Y-4049723D01*
X47289533Y-3867539D01*
X47374591Y-3612196D01*
X52447409Y-3612196D01*
X52532467Y-3867539D01*
X53101965Y-4075516D01*
X53707700Y-4049723D01*
X54147533Y-3867539D01*
X54232591Y-3612196D01*
X58289409Y-3612196D01*
X58374467Y-3867539D01*
X58943965Y-4075516D01*
X59549700Y-4049723D01*
X59989533Y-3867539D01*
X60074591Y-3612196D01*
X59182000Y-2719605D01*
X58289409Y-3612196D01*
X54232591Y-3612196D01*
X53340000Y-2719605D01*
X52447409Y-3612196D01*
X47374591Y-3612196D01*
X46482000Y-2719605D01*
X45589409Y-3612196D01*
X41532591Y-3612196D01*
X40640000Y-2719605D01*
X39747409Y-3612196D01*
X34674591Y-3612196D01*
X33782000Y-2719605D01*
X32889409Y-3612196D01*
X28832591Y-3612196D01*
X27940000Y-2719605D01*
X27047409Y-3612196D01*
X21974591Y-3612196D01*
X21082000Y-2719605D01*
X20189409Y-3612196D01*
X1472000Y-3612196D01*
X1472000Y-2632612D01*
X1488630Y-2500976D01*
X2510929Y-1478677D01*
X2542538Y-1472647D01*
X2563134Y-1472000D01*
X19956032Y-1472000D01*
X19895212Y-1532820D01*
X19895212Y-1532820D01*
G37*
X19895212Y-1532820D02*
X20009802Y-1647410D01*
X19754461Y-1732467D01*
X19546484Y-2301965D01*
X19572277Y-2907700D01*
X19754461Y-3347533D01*
X20009804Y-3432591D01*
X20902395Y-2540000D01*
X20888253Y-2525858D01*
X21067858Y-2346253D01*
X21082000Y-2360395D01*
X21096143Y-2346253D01*
X21275748Y-2525858D01*
X21261605Y-2540000D01*
X22154196Y-3432591D01*
X22409539Y-3347533D01*
X22617516Y-2778035D01*
X22591723Y-2172300D01*
X22409539Y-1732467D01*
X22154198Y-1647410D01*
X22268788Y-1532820D01*
X22207968Y-1472000D01*
X26814032Y-1472000D01*
X26753212Y-1532820D01*
X26867802Y-1647410D01*
X26612461Y-1732467D01*
X26404484Y-2301965D01*
X26430277Y-2907700D01*
X26612461Y-3347533D01*
X26867804Y-3432591D01*
X27760395Y-2540000D01*
X27746253Y-2525858D01*
X27925858Y-2346253D01*
X27940000Y-2360395D01*
X27954143Y-2346253D01*
X28133748Y-2525858D01*
X28119605Y-2540000D01*
X29012196Y-3432591D01*
X29267539Y-3347533D01*
X29475516Y-2778035D01*
X29449723Y-2172300D01*
X29267539Y-1732467D01*
X29012198Y-1647410D01*
X29126788Y-1532820D01*
X29065968Y-1472000D01*
X32656032Y-1472000D01*
X32595212Y-1532820D01*
X32709802Y-1647410D01*
X32454461Y-1732467D01*
X32246484Y-2301965D01*
X32272277Y-2907700D01*
X32454461Y-3347533D01*
X32709804Y-3432591D01*
X33602395Y-2540000D01*
X33588253Y-2525858D01*
X33767858Y-2346253D01*
X33782000Y-2360395D01*
X33796143Y-2346253D01*
X33975748Y-2525858D01*
X33961605Y-2540000D01*
X34854196Y-3432591D01*
X35109539Y-3347533D01*
X35317516Y-2778035D01*
X35291723Y-2172300D01*
X35109539Y-1732467D01*
X34854198Y-1647410D01*
X34968788Y-1532820D01*
X34907968Y-1472000D01*
X39514032Y-1472000D01*
X39453212Y-1532820D01*
X39567802Y-1647410D01*
X39312461Y-1732467D01*
X39104484Y-2301965D01*
X39130277Y-2907700D01*
X39312461Y-3347533D01*
X39567804Y-3432591D01*
X40460395Y-2540000D01*
X40446253Y-2525858D01*
X40625858Y-2346253D01*
X40640000Y-2360395D01*
X40654143Y-2346253D01*
X40833748Y-2525858D01*
X40819605Y-2540000D01*
X41712196Y-3432591D01*
X41967539Y-3347533D01*
X42175516Y-2778035D01*
X42149723Y-2172300D01*
X41967539Y-1732467D01*
X41712198Y-1647410D01*
X41826788Y-1532820D01*
X41765968Y-1472000D01*
X45356032Y-1472000D01*
X45295212Y-1532820D01*
X45409802Y-1647410D01*
X45154461Y-1732467D01*
X44946484Y-2301965D01*
X44972277Y-2907700D01*
X45154461Y-3347533D01*
X45409804Y-3432591D01*
X46302395Y-2540000D01*
X46288253Y-2525858D01*
X46467858Y-2346253D01*
X46482000Y-2360395D01*
X46496143Y-2346253D01*
X46675748Y-2525858D01*
X46661605Y-2540000D01*
X47554196Y-3432591D01*
X47809539Y-3347533D01*
X48017516Y-2778035D01*
X47991723Y-2172300D01*
X47809539Y-1732467D01*
X47554198Y-1647410D01*
X47668788Y-1532820D01*
X47607968Y-1472000D01*
X52214032Y-1472000D01*
X52153212Y-1532820D01*
X52267802Y-1647410D01*
X52012461Y-1732467D01*
X51804484Y-2301965D01*
X51830277Y-2907700D01*
X52012461Y-3347533D01*
X52267804Y-3432591D01*
X53160395Y-2540000D01*
X53146253Y-2525858D01*
X53325858Y-2346253D01*
X53340000Y-2360395D01*
X53354143Y-2346253D01*
X53533748Y-2525858D01*
X53519605Y-2540000D01*
X54412196Y-3432591D01*
X54667539Y-3347533D01*
X54875516Y-2778035D01*
X54849723Y-2172300D01*
X54667539Y-1732467D01*
X54412198Y-1647410D01*
X54526788Y-1532820D01*
X54465968Y-1472000D01*
X58056032Y-1472000D01*
X57995212Y-1532820D01*
X58109802Y-1647410D01*
X57854461Y-1732467D01*
X57646484Y-2301965D01*
X57672277Y-2907700D01*
X57854461Y-3347533D01*
X58109804Y-3432591D01*
X59002395Y-2540000D01*
X58988253Y-2525858D01*
X59167858Y-2346253D01*
X59182000Y-2360395D01*
X59196143Y-2346253D01*
X59375748Y-2525858D01*
X59361605Y-2540000D01*
X60254196Y-3432591D01*
X60509539Y-3347533D01*
X60717516Y-2778035D01*
X60691723Y-2172300D01*
X60509539Y-1732467D01*
X60254198Y-1647410D01*
X60368788Y-1532820D01*
X60307968Y-1472000D01*
X64914032Y-1472000D01*
X64853212Y-1532820D01*
X64967802Y-1647410D01*
X64712461Y-1732467D01*
X64504484Y-2301965D01*
X64530277Y-2907700D01*
X64712461Y-3347533D01*
X64967804Y-3432591D01*
X65860395Y-2540000D01*
X65846253Y-2525858D01*
X66025858Y-2346253D01*
X66040000Y-2360395D01*
X66054143Y-2346253D01*
X66233748Y-2525858D01*
X66219605Y-2540000D01*
X66233748Y-2554143D01*
X66054143Y-2733748D01*
X66040000Y-2719605D01*
X65147409Y-3612196D01*
X65232467Y-3867539D01*
X65801965Y-4075516D01*
X66407700Y-4049723D01*
X66847533Y-3867539D01*
X66932590Y-3612198D01*
X67047180Y-3726788D01*
X67108000Y-3665968D01*
X67108000Y-5080032D01*
X66494714Y-4826000D01*
X65585286Y-4826000D01*
X64745085Y-5174023D01*
X64102023Y-5817085D01*
X63754000Y-6657286D01*
X63754000Y-7566714D01*
X64102023Y-8406915D01*
X64745085Y-9049977D01*
X65585286Y-9398000D01*
X66494714Y-9398000D01*
X67108000Y-9143968D01*
X67108000Y-14022472D01*
X67092960Y-14007432D01*
X66978553Y-14121839D01*
X66885712Y-13859912D01*
X66293199Y-13641325D01*
X65662139Y-13666122D01*
X65194288Y-13859912D01*
X65101446Y-14121841D01*
X66040000Y-15060395D01*
X66054143Y-15046253D01*
X66233748Y-15225858D01*
X66219605Y-15240000D01*
X66233748Y-15254143D01*
X66057390Y-15430500D01*
X66050895Y-15430500D01*
X66040000Y-15419605D01*
X66029105Y-15430500D01*
X66022610Y-15430500D01*
X65846253Y-15254143D01*
X65860395Y-15240000D01*
X64921841Y-14301446D01*
X64659912Y-14394288D01*
X64441325Y-14986801D01*
X64466122Y-15617861D01*
X64587181Y-15910124D01*
X64048190Y-16449115D01*
X63690500Y-17312655D01*
X63690500Y-18247345D01*
X64022971Y-19050000D01*
X63690500Y-19852655D01*
X63690500Y-20787345D01*
X64022971Y-21590000D01*
X63690500Y-22392655D01*
X63690500Y-23255634D01*
X63336981Y-22902115D01*
X63082981Y-22288904D01*
X62547096Y-21753019D01*
X61846928Y-21463000D01*
X61089072Y-21463000D01*
X60388904Y-21753019D01*
X59853019Y-22288904D01*
X59563000Y-22989072D01*
X59563000Y-23746928D01*
X59853019Y-24447096D01*
X60388904Y-24982981D01*
X61002115Y-25236981D01*
X62103000Y-26337867D01*
X62103001Y-28539387D01*
X62070655Y-28702000D01*
X62162609Y-29164280D01*
X62198793Y-29346188D01*
X62563696Y-29892305D01*
X62701549Y-29984416D01*
X63708900Y-30991767D01*
X63914908Y-31489114D01*
X63624928Y-31369000D01*
X62867072Y-31369000D01*
X62166904Y-31659019D01*
X61631019Y-32194904D01*
X61341000Y-32895072D01*
X61341000Y-33652928D01*
X61631019Y-34353096D01*
X62166904Y-34888981D01*
X62780115Y-35142981D01*
X63708900Y-36071767D01*
X63868565Y-36457233D01*
X63771556Y-36602418D01*
X63663132Y-37147500D01*
X63663132Y-39052500D01*
X63771556Y-39597582D01*
X64080320Y-40059680D01*
X64542418Y-40368444D01*
X65087500Y-40476868D01*
X66992500Y-40476868D01*
X67108001Y-40453893D01*
X67108001Y-44653700D01*
X66265750Y-44653700D01*
X66107000Y-44812450D01*
X66107000Y-45986700D01*
X66127000Y-45986700D01*
X66127000Y-46240700D01*
X66107000Y-46240700D01*
X66107000Y-46260700D01*
X65853000Y-46260700D01*
X65853000Y-46240700D01*
X63788750Y-46240700D01*
X63630000Y-46399450D01*
X63630000Y-46788000D01*
X48130000Y-46788000D01*
X48130000Y-46399450D01*
X47971250Y-46240700D01*
X45907000Y-46240700D01*
X45907000Y-46260700D01*
X45653000Y-46260700D01*
X45653000Y-46240700D01*
X43588750Y-46240700D01*
X43497500Y-46331950D01*
X43406250Y-46240700D01*
X41342000Y-46240700D01*
X41342000Y-46260700D01*
X41088000Y-46260700D01*
X41088000Y-46240700D01*
X39023750Y-46240700D01*
X38865000Y-46399450D01*
X38865000Y-46788000D01*
X23365000Y-46788000D01*
X23365000Y-46399450D01*
X23206250Y-46240700D01*
X21142000Y-46240700D01*
X21142000Y-46260700D01*
X20888000Y-46260700D01*
X20888000Y-46240700D01*
X18823750Y-46240700D01*
X18665000Y-46399450D01*
X18665000Y-46788000D01*
X2632613Y-46788000D01*
X2500976Y-46771370D01*
X1478677Y-45749071D01*
X1472647Y-45717462D01*
X1472000Y-45696866D01*
X1472000Y-45162390D01*
X18665000Y-45162390D01*
X18665000Y-45827950D01*
X18823750Y-45986700D01*
X20888000Y-45986700D01*
X20888000Y-44812450D01*
X21142000Y-44812450D01*
X21142000Y-45986700D01*
X23206250Y-45986700D01*
X23365000Y-45827950D01*
X23365000Y-45162390D01*
X38865000Y-45162390D01*
X38865000Y-45827950D01*
X39023750Y-45986700D01*
X41088000Y-45986700D01*
X41088000Y-44812450D01*
X41342000Y-44812450D01*
X41342000Y-45986700D01*
X43406250Y-45986700D01*
X43497500Y-45895450D01*
X43588750Y-45986700D01*
X45653000Y-45986700D01*
X45653000Y-44812450D01*
X45907000Y-44812450D01*
X45907000Y-45986700D01*
X47971250Y-45986700D01*
X48130000Y-45827950D01*
X48130000Y-45162390D01*
X63630000Y-45162390D01*
X63630000Y-45827950D01*
X63788750Y-45986700D01*
X65853000Y-45986700D01*
X65853000Y-44812450D01*
X65694250Y-44653700D01*
X64138691Y-44653700D01*
X63905302Y-44750373D01*
X63726673Y-44929001D01*
X63630000Y-45162390D01*
X48130000Y-45162390D01*
X48033327Y-44929001D01*
X47854698Y-44750373D01*
X47621309Y-44653700D01*
X46065750Y-44653700D01*
X45907000Y-44812450D01*
X45653000Y-44812450D01*
X45494250Y-44653700D01*
X43938691Y-44653700D01*
X43705302Y-44750373D01*
X43526673Y-44929001D01*
X43497500Y-44999431D01*
X43468327Y-44929001D01*
X43289698Y-44750373D01*
X43056309Y-44653700D01*
X41500750Y-44653700D01*
X41342000Y-44812450D01*
X41088000Y-44812450D01*
X40929250Y-44653700D01*
X39373691Y-44653700D01*
X39140302Y-44750373D01*
X38961673Y-44929001D01*
X38865000Y-45162390D01*
X23365000Y-45162390D01*
X23268327Y-44929001D01*
X23089698Y-44750373D01*
X22856309Y-44653700D01*
X21300750Y-44653700D01*
X21142000Y-44812450D01*
X20888000Y-44812450D01*
X20729250Y-44653700D01*
X19173691Y-44653700D01*
X18940302Y-44750373D01*
X18761673Y-44929001D01*
X18665000Y-45162390D01*
X1472000Y-45162390D01*
X1472000Y-43562944D01*
X2966025Y-43562944D01*
X2998074Y-43694477D01*
X3314764Y-44257630D01*
X3822857Y-44656724D01*
X4445000Y-44831000D01*
X4953000Y-44831000D01*
X4953000Y-43307000D01*
X5207000Y-43307000D01*
X5207000Y-44831000D01*
X5715000Y-44831000D01*
X6337143Y-44656724D01*
X6845236Y-44257630D01*
X7161926Y-43694477D01*
X7193975Y-43562944D01*
X14396025Y-43562944D01*
X14428074Y-43694477D01*
X14744764Y-44257630D01*
X15252857Y-44656724D01*
X15875000Y-44831000D01*
X16383000Y-44831000D01*
X16383000Y-43307000D01*
X16637000Y-43307000D01*
X16637000Y-44831000D01*
X17145000Y-44831000D01*
X17767143Y-44656724D01*
X18275236Y-44257630D01*
X18591926Y-43694477D01*
X18623975Y-43562944D01*
X18504836Y-43307000D01*
X16637000Y-43307000D01*
X16383000Y-43307000D01*
X14515164Y-43307000D01*
X14396025Y-43562944D01*
X7193975Y-43562944D01*
X7074836Y-43307000D01*
X5207000Y-43307000D01*
X4953000Y-43307000D01*
X3085164Y-43307000D01*
X2966025Y-43562944D01*
X1472000Y-43562944D01*
X1472000Y-42797056D01*
X2966025Y-42797056D01*
X3085164Y-43053000D01*
X4953000Y-43053000D01*
X4953000Y-41529000D01*
X5207000Y-41529000D01*
X5207000Y-43053000D01*
X7074836Y-43053000D01*
X7193975Y-42797056D01*
X7161926Y-42665523D01*
X6845236Y-42102370D01*
X6337143Y-41703276D01*
X5715000Y-41529000D01*
X5207000Y-41529000D01*
X4953000Y-41529000D01*
X4445000Y-41529000D01*
X3822857Y-41703276D01*
X3314764Y-42102370D01*
X2998074Y-42665523D01*
X2966025Y-42797056D01*
X1472000Y-42797056D01*
X1472000Y-37185600D01*
X2111727Y-37185600D01*
X2299004Y-38127106D01*
X2832324Y-38925276D01*
X3630494Y-39458596D01*
X4334342Y-39598600D01*
X5825658Y-39598600D01*
X6529506Y-39458596D01*
X6561612Y-39437143D01*
X7366000Y-39437143D01*
X7366000Y-40928458D01*
X7506004Y-41632306D01*
X8039325Y-42430476D01*
X8837495Y-42963796D01*
X9779000Y-43151073D01*
X10720506Y-42963796D01*
X10795001Y-42914020D01*
X10869495Y-42963796D01*
X11811000Y-43151073D01*
X12752506Y-42963796D01*
X13002050Y-42797056D01*
X14396025Y-42797056D01*
X14515164Y-43053000D01*
X16383000Y-43053000D01*
X16383000Y-41529000D01*
X16637000Y-41529000D01*
X16637000Y-43053000D01*
X18504836Y-43053000D01*
X18623975Y-42797056D01*
X18591926Y-42665523D01*
X18275236Y-42102370D01*
X17767143Y-41703276D01*
X17145000Y-41529000D01*
X16637000Y-41529000D01*
X16383000Y-41529000D01*
X15875000Y-41529000D01*
X15252857Y-41703276D01*
X14744764Y-42102370D01*
X14428074Y-42665523D01*
X14396025Y-42797056D01*
X13002050Y-42797056D01*
X13550676Y-42430476D01*
X14083996Y-41632305D01*
X14224000Y-40928457D01*
X14224000Y-39437142D01*
X14083996Y-38733294D01*
X13550676Y-37935124D01*
X12752505Y-37401804D01*
X11811000Y-37214527D01*
X10869494Y-37401804D01*
X10795000Y-37451580D01*
X10720505Y-37401804D01*
X9779000Y-37214527D01*
X8837494Y-37401804D01*
X8039324Y-37935124D01*
X7506004Y-38733295D01*
X7366000Y-39437143D01*
X6561612Y-39437143D01*
X7327676Y-38925276D01*
X7860996Y-38127106D01*
X8048273Y-37185600D01*
X13541727Y-37185600D01*
X13729004Y-38127106D01*
X14262324Y-38925276D01*
X15060494Y-39458596D01*
X15764342Y-39598600D01*
X17255658Y-39598600D01*
X17959506Y-39458596D01*
X18757676Y-38925276D01*
X19290996Y-38127106D01*
X19478273Y-37185600D01*
X19290996Y-36244094D01*
X18757676Y-35445924D01*
X17959506Y-34912604D01*
X17255658Y-34772600D01*
X15764342Y-34772600D01*
X15060494Y-34912604D01*
X14262324Y-35445924D01*
X13729004Y-36244094D01*
X13541727Y-37185600D01*
X8048273Y-37185600D01*
X7860996Y-36244094D01*
X7327676Y-35445924D01*
X6529506Y-34912604D01*
X5825658Y-34772600D01*
X4334342Y-34772600D01*
X3630494Y-34912604D01*
X2832324Y-35445924D01*
X2299004Y-36244094D01*
X2111727Y-37185600D01*
X1472000Y-37185600D01*
X1472000Y-26987500D01*
X2254250Y-26987500D01*
X2413000Y-26828750D01*
X2413000Y-25527000D01*
X2393000Y-25527000D01*
X2393000Y-25273000D01*
X2413000Y-25273000D01*
X2413000Y-23971250D01*
X2667000Y-23971250D01*
X2667000Y-25273000D01*
X2687000Y-25273000D01*
X2687000Y-25527000D01*
X2667000Y-25527000D01*
X2667000Y-26828750D01*
X2825750Y-26987500D01*
X3344805Y-26987500D01*
X3749115Y-27391810D01*
X4612655Y-27749500D01*
X5547345Y-27749500D01*
X6350000Y-27417029D01*
X7152655Y-27749500D01*
X8087345Y-27749500D01*
X8890000Y-27417029D01*
X9692655Y-27749500D01*
X10627345Y-27749500D01*
X11430000Y-27417029D01*
X12232655Y-27749500D01*
X13167345Y-27749500D01*
X13970000Y-27417029D01*
X14772655Y-27749500D01*
X15707345Y-27749500D01*
X16510000Y-27417029D01*
X17312655Y-27749500D01*
X18247345Y-27749500D01*
X18288000Y-27732660D01*
X18288000Y-29439420D01*
X18161000Y-29746025D01*
X18161000Y-30705975D01*
X18528358Y-31592854D01*
X19207146Y-32271642D01*
X20094025Y-32639000D01*
X21053975Y-32639000D01*
X21940854Y-32271642D01*
X22619642Y-31592854D01*
X22987000Y-30705975D01*
X22987000Y-27749500D01*
X23327345Y-27749500D01*
X24130000Y-27417029D01*
X24932655Y-27749500D01*
X25867345Y-27749500D01*
X26670000Y-27417029D01*
X27472655Y-27749500D01*
X28407345Y-27749500D01*
X29210000Y-27417029D01*
X30012655Y-27749500D01*
X30947345Y-27749500D01*
X31750000Y-27417029D01*
X32552655Y-27749500D01*
X33487345Y-27749500D01*
X33785250Y-27626104D01*
X33769584Y-27649549D01*
X30697552Y-30721582D01*
X30559695Y-30813695D01*
X30194792Y-31359813D01*
X30105068Y-31810885D01*
X30066655Y-32004000D01*
X30099000Y-32166608D01*
X30099001Y-35384132D01*
X29288134Y-36195000D01*
X28864609Y-36195000D01*
X28702000Y-36162655D01*
X28057811Y-36290792D01*
X27807286Y-36458188D01*
X27511695Y-36655695D01*
X27419584Y-36793549D01*
X26458002Y-37755132D01*
X25980000Y-37755132D01*
X25434918Y-37863556D01*
X24972820Y-38172320D01*
X24664056Y-38634418D01*
X24555632Y-39179500D01*
X24555632Y-42100500D01*
X24664056Y-42645582D01*
X24972820Y-43107680D01*
X25434918Y-43416444D01*
X25980000Y-43524868D01*
X27250000Y-43524868D01*
X27795082Y-43416444D01*
X28115000Y-43202682D01*
X28434918Y-43416444D01*
X28980000Y-43524868D01*
X30250000Y-43524868D01*
X30795082Y-43416444D01*
X31115000Y-43202682D01*
X31434918Y-43416444D01*
X31980000Y-43524868D01*
X33250000Y-43524868D01*
X33795082Y-43416444D01*
X34115000Y-43202682D01*
X34434918Y-43416444D01*
X34980000Y-43524868D01*
X36250000Y-43524868D01*
X36795082Y-43416444D01*
X37257180Y-43107680D01*
X37565944Y-42645582D01*
X37674368Y-42100500D01*
X37674368Y-40558720D01*
X38322250Y-40558720D01*
X38481000Y-40399970D01*
X38481000Y-40078088D01*
X38735000Y-40078088D01*
X38735000Y-40399970D01*
X38893750Y-40558720D01*
X39709670Y-40558720D01*
X39943059Y-40462047D01*
X40121687Y-40283418D01*
X40218360Y-40050029D01*
X40218360Y-40020167D01*
X40294608Y-40005000D01*
X40294609Y-40005000D01*
X40776188Y-39909208D01*
X41322305Y-39544305D01*
X41414418Y-39406448D01*
X42200449Y-38620417D01*
X42338305Y-38528305D01*
X42703208Y-37982188D01*
X42799000Y-37500609D01*
X42799000Y-37500608D01*
X42831345Y-37338000D01*
X42799000Y-37175392D01*
X42799000Y-34774138D01*
X43053000Y-34160928D01*
X43053000Y-33403072D01*
X42842580Y-32895072D01*
X44323000Y-32895072D01*
X44323000Y-33652928D01*
X44613019Y-34353096D01*
X44803923Y-34544000D01*
X44613019Y-34734904D01*
X44323000Y-35435072D01*
X44323000Y-36192928D01*
X44613019Y-36893096D01*
X45148904Y-37428981D01*
X45849072Y-37719000D01*
X46183504Y-37719000D01*
X46225236Y-37928802D01*
X46509344Y-38354000D01*
X46225236Y-38779198D01*
X46174832Y-39032595D01*
X45972081Y-39116577D01*
X45466577Y-39622081D01*
X45193000Y-40282555D01*
X45193000Y-40997445D01*
X45466577Y-41657919D01*
X45972081Y-42163423D01*
X46632555Y-42437000D01*
X47347445Y-42437000D01*
X48007919Y-42163423D01*
X48513423Y-41657919D01*
X48641759Y-41348088D01*
X49320632Y-41348088D01*
X49320632Y-42100500D01*
X49429056Y-42645582D01*
X49737820Y-43107680D01*
X50199918Y-43416444D01*
X50745000Y-43524868D01*
X52015000Y-43524868D01*
X52560082Y-43416444D01*
X52880000Y-43202682D01*
X53199918Y-43416444D01*
X53745000Y-43524868D01*
X55015000Y-43524868D01*
X55560082Y-43416444D01*
X55880000Y-43202682D01*
X56199918Y-43416444D01*
X56745000Y-43524868D01*
X58015000Y-43524868D01*
X58560082Y-43416444D01*
X58880000Y-43202682D01*
X59199918Y-43416444D01*
X59745000Y-43524868D01*
X61015000Y-43524868D01*
X61560082Y-43416444D01*
X62022180Y-43107680D01*
X62330944Y-42645582D01*
X62439368Y-42100500D01*
X62439368Y-39179500D01*
X62330944Y-38634418D01*
X62022180Y-38172320D01*
X61560082Y-37863556D01*
X61015000Y-37755132D01*
X60409999Y-37755132D01*
X58686418Y-36031552D01*
X58594305Y-35893695D01*
X58048188Y-35528792D01*
X57566609Y-35433000D01*
X57566608Y-35433000D01*
X57404000Y-35400655D01*
X57241392Y-35433000D01*
X55293867Y-35433000D01*
X54483000Y-34622134D01*
X54483000Y-32674608D01*
X54515345Y-32512000D01*
X54471029Y-32289208D01*
X54387208Y-31867812D01*
X54022305Y-31321695D01*
X53884452Y-31229585D01*
X51066418Y-28411552D01*
X50974305Y-28273695D01*
X50916268Y-28234916D01*
X50916268Y-27894280D01*
X50807844Y-27349198D01*
X50499080Y-26887100D01*
X50419000Y-26833592D01*
X50419000Y-26545072D01*
X50128981Y-25844904D01*
X49593096Y-25309019D01*
X48892928Y-25019000D01*
X48135072Y-25019000D01*
X47434904Y-25309019D01*
X46899019Y-25844904D01*
X46609000Y-26545072D01*
X46609000Y-26836987D01*
X46534000Y-26887100D01*
X46225236Y-27349198D01*
X46116812Y-27894280D01*
X46116812Y-28493720D01*
X46183504Y-28829000D01*
X46103072Y-28829000D01*
X45402904Y-29119019D01*
X44867019Y-29654904D01*
X44577000Y-30355072D01*
X44577000Y-31112928D01*
X44867019Y-31813096D01*
X44930923Y-31877000D01*
X44613019Y-32194904D01*
X44323000Y-32895072D01*
X42842580Y-32895072D01*
X42762981Y-32702904D01*
X42227096Y-32167019D01*
X41526928Y-31877000D01*
X41007728Y-31877000D01*
X41007728Y-31704280D01*
X40941036Y-31369000D01*
X41007728Y-31033720D01*
X41007728Y-30434280D01*
X40941036Y-30099000D01*
X41007728Y-29763720D01*
X41007728Y-29164280D01*
X40899304Y-28619198D01*
X40590540Y-28157100D01*
X40218260Y-27908350D01*
X40218360Y-27908250D01*
X40218360Y-27767971D01*
X40121687Y-27534582D01*
X39943059Y-27355953D01*
X39709670Y-27259280D01*
X38893750Y-27259280D01*
X38735000Y-27418030D01*
X38735000Y-27739912D01*
X38481000Y-27739912D01*
X38481000Y-27418030D01*
X38322250Y-27259280D01*
X37506330Y-27259280D01*
X37276817Y-27354347D01*
X37067925Y-27214770D01*
X37551810Y-26730885D01*
X37909500Y-25867345D01*
X37909500Y-24932655D01*
X37551810Y-24069115D01*
X36890885Y-23408190D01*
X36027345Y-23050500D01*
X35092655Y-23050500D01*
X34290000Y-23382971D01*
X33487345Y-23050500D01*
X32552655Y-23050500D01*
X31750000Y-23382971D01*
X30947345Y-23050500D01*
X30012655Y-23050500D01*
X29210000Y-23382971D01*
X28407345Y-23050500D01*
X27472655Y-23050500D01*
X26670000Y-23382971D01*
X25867345Y-23050500D01*
X24932655Y-23050500D01*
X24130000Y-23382971D01*
X23327345Y-23050500D01*
X22392655Y-23050500D01*
X21590000Y-23382971D01*
X20787345Y-23050500D01*
X19852655Y-23050500D01*
X19050000Y-23382971D01*
X18247345Y-23050500D01*
X17312655Y-23050500D01*
X16510000Y-23382971D01*
X15707345Y-23050500D01*
X14772655Y-23050500D01*
X13970000Y-23382971D01*
X13167345Y-23050500D01*
X12232655Y-23050500D01*
X11430000Y-23382971D01*
X10627345Y-23050500D01*
X9692655Y-23050500D01*
X8890000Y-23382971D01*
X8087345Y-23050500D01*
X7152655Y-23050500D01*
X6350000Y-23382971D01*
X5547345Y-23050500D01*
X4612655Y-23050500D01*
X3749115Y-23408190D01*
X3344805Y-23812500D01*
X2825750Y-23812500D01*
X2667000Y-23971250D01*
X2413000Y-23971250D01*
X2254250Y-23812500D01*
X1472000Y-23812500D01*
X1472000Y-15631432D01*
X2060025Y-15875000D01*
X3019975Y-15875000D01*
X3906854Y-15507642D01*
X4585642Y-14828854D01*
X4953000Y-13941975D01*
X4953000Y-12982025D01*
X4757273Y-12509500D01*
X5547345Y-12509500D01*
X5699830Y-12446338D01*
X5705899Y-12476847D01*
X6024723Y-12954000D01*
X6155011Y-13148990D01*
X6324674Y-13262356D01*
X7565643Y-14503325D01*
X7679010Y-14672990D01*
X8351153Y-15122102D01*
X8943867Y-15240000D01*
X8943871Y-15240000D01*
X9143999Y-15279808D01*
X9344127Y-15240000D01*
X35480319Y-15240000D01*
X37283644Y-17043326D01*
X37397010Y-17212990D01*
X38069153Y-17662102D01*
X38661867Y-17780000D01*
X38661871Y-17780000D01*
X38861999Y-17819808D01*
X39062127Y-17780000D01*
X46012292Y-17780000D01*
X46241266Y-18008974D01*
X47221501Y-18415000D01*
X48282499Y-18415000D01*
X49262734Y-18008974D01*
X50012974Y-17258734D01*
X50419000Y-16278499D01*
X50419000Y-15217501D01*
X50012974Y-14237266D01*
X49262734Y-13487026D01*
X48282499Y-13081000D01*
X47221501Y-13081000D01*
X46241266Y-13487026D01*
X46012292Y-13716000D01*
X41624326Y-13716000D01*
X41783000Y-13332928D01*
X41783000Y-12575072D01*
X41492981Y-11874904D01*
X40957096Y-11339019D01*
X40343886Y-11085019D01*
X38366418Y-9107552D01*
X38274305Y-8969695D01*
X37728188Y-8604792D01*
X37246609Y-8509000D01*
X37246608Y-8509000D01*
X37227992Y-8505297D01*
X36890885Y-8168190D01*
X36027345Y-7810500D01*
X35967020Y-7810500D01*
X36068000Y-7566714D01*
X36068000Y-6657286D01*
X38354000Y-6657286D01*
X38354000Y-7566714D01*
X38702023Y-8406915D01*
X39345085Y-9049977D01*
X40185286Y-9398000D01*
X41094714Y-9398000D01*
X41934915Y-9049977D01*
X42577977Y-8406915D01*
X42926000Y-7566714D01*
X42926000Y-6657286D01*
X44196000Y-6657286D01*
X44196000Y-7566714D01*
X44544023Y-8406915D01*
X45187085Y-9049977D01*
X46027286Y-9398000D01*
X46936714Y-9398000D01*
X47776915Y-9049977D01*
X48419977Y-8406915D01*
X48768000Y-7566714D01*
X48768000Y-6657286D01*
X51054000Y-6657286D01*
X51054000Y-7566714D01*
X51402023Y-8406915D01*
X52045085Y-9049977D01*
X52885286Y-9398000D01*
X53794714Y-9398000D01*
X54634915Y-9049977D01*
X55277977Y-8406915D01*
X55626000Y-7566714D01*
X55626000Y-6657286D01*
X56896000Y-6657286D01*
X56896000Y-7566714D01*
X57244023Y-8406915D01*
X57887085Y-9049977D01*
X58727286Y-9398000D01*
X59636714Y-9398000D01*
X60476915Y-9049977D01*
X61119977Y-8406915D01*
X61468000Y-7566714D01*
X61468000Y-6657286D01*
X61119977Y-5817085D01*
X60476915Y-5174023D01*
X59636714Y-4826000D01*
X58727286Y-4826000D01*
X57887085Y-5174023D01*
X57244023Y-5817085D01*
X56896000Y-6657286D01*
X55626000Y-6657286D01*
X55277977Y-5817085D01*
X54634915Y-5174023D01*
X53794714Y-4826000D01*
X52885286Y-4826000D01*
X52045085Y-5174023D01*
X51402023Y-5817085D01*
X51054000Y-6657286D01*
X48768000Y-6657286D01*
X48419977Y-5817085D01*
X47776915Y-5174023D01*
X46936714Y-4826000D01*
X46027286Y-4826000D01*
X45187085Y-5174023D01*
X44544023Y-5817085D01*
X44196000Y-6657286D01*
X42926000Y-6657286D01*
X42577977Y-5817085D01*
X41934915Y-5174023D01*
X41094714Y-4826000D01*
X40185286Y-4826000D01*
X39345085Y-5174023D01*
X38702023Y-5817085D01*
X38354000Y-6657286D01*
X36068000Y-6657286D01*
X35719977Y-5817085D01*
X35076915Y-5174023D01*
X34236714Y-4826000D01*
X33327286Y-4826000D01*
X32487085Y-5174023D01*
X31844023Y-5817085D01*
X31496000Y-6657286D01*
X31496000Y-7566714D01*
X31731523Y-8135317D01*
X30947345Y-7810500D01*
X30125020Y-7810500D01*
X30226000Y-7566714D01*
X30226000Y-6657286D01*
X29877977Y-5817085D01*
X29234915Y-5174023D01*
X28394714Y-4826000D01*
X27485286Y-4826000D01*
X26645085Y-5174023D01*
X26002023Y-5817085D01*
X25654000Y-6657286D01*
X25654000Y-7566714D01*
X25754980Y-7810500D01*
X24932655Y-7810500D01*
X24130000Y-8142971D01*
X23327345Y-7810500D01*
X23267020Y-7810500D01*
X23368000Y-7566714D01*
X23368000Y-6657286D01*
X23019977Y-5817085D01*
X22376915Y-5174023D01*
X21536714Y-4826000D01*
X20627286Y-4826000D01*
X19787085Y-5174023D01*
X19144023Y-5817085D01*
X18796000Y-6657286D01*
X18796000Y-7566714D01*
X19031523Y-8135317D01*
X18247345Y-7810500D01*
X17312655Y-7810500D01*
X16510000Y-8142971D01*
X15707345Y-7810500D01*
X14772655Y-7810500D01*
X13970000Y-8142971D01*
X13167345Y-7810500D01*
X12232655Y-7810500D01*
X11430000Y-8142971D01*
X10627345Y-7810500D01*
X9692655Y-7810500D01*
X8890000Y-8142971D01*
X8087345Y-7810500D01*
X7152655Y-7810500D01*
X6350000Y-8142971D01*
X5547345Y-7810500D01*
X4612655Y-7810500D01*
X3810000Y-8142971D01*
X3007345Y-7810500D01*
X2072655Y-7810500D01*
X1472000Y-8059299D01*
X1472000Y-3612196D01*
X20189409Y-3612196D01*
X20274467Y-3867539D01*
X20843965Y-4075516D01*
X21449700Y-4049723D01*
X21889533Y-3867539D01*
X21974591Y-3612196D01*
X27047409Y-3612196D01*
X27132467Y-3867539D01*
X27701965Y-4075516D01*
X28307700Y-4049723D01*
X28747533Y-3867539D01*
X28832591Y-3612196D01*
X32889409Y-3612196D01*
X32974467Y-3867539D01*
X33543965Y-4075516D01*
X34149700Y-4049723D01*
X34589533Y-3867539D01*
X34674591Y-3612196D01*
X39747409Y-3612196D01*
X39832467Y-3867539D01*
X40401965Y-4075516D01*
X41007700Y-4049723D01*
X41447533Y-3867539D01*
X41532591Y-3612196D01*
X45589409Y-3612196D01*
X45674467Y-3867539D01*
X46243965Y-4075516D01*
X46849700Y-4049723D01*
X47289533Y-3867539D01*
X47374591Y-3612196D01*
X52447409Y-3612196D01*
X52532467Y-3867539D01*
X53101965Y-4075516D01*
X53707700Y-4049723D01*
X54147533Y-3867539D01*
X54232591Y-3612196D01*
X58289409Y-3612196D01*
X58374467Y-3867539D01*
X58943965Y-4075516D01*
X59549700Y-4049723D01*
X59989533Y-3867539D01*
X60074591Y-3612196D01*
X59182000Y-2719605D01*
X58289409Y-3612196D01*
X54232591Y-3612196D01*
X53340000Y-2719605D01*
X52447409Y-3612196D01*
X47374591Y-3612196D01*
X46482000Y-2719605D01*
X45589409Y-3612196D01*
X41532591Y-3612196D01*
X40640000Y-2719605D01*
X39747409Y-3612196D01*
X34674591Y-3612196D01*
X33782000Y-2719605D01*
X32889409Y-3612196D01*
X28832591Y-3612196D01*
X27940000Y-2719605D01*
X27047409Y-3612196D01*
X21974591Y-3612196D01*
X21082000Y-2719605D01*
X20189409Y-3612196D01*
X1472000Y-3612196D01*
X1472000Y-2632612D01*
X1488630Y-2500976D01*
X2510929Y-1478677D01*
X2542538Y-1472647D01*
X2563134Y-1472000D01*
X19956032Y-1472000D01*
X19895212Y-1532820D01*
G04 #@! TD*
M02*
