G04 #@! TF.GenerationSoftware,KiCad,Pcbnew,5.0.2-bee76a0~70~ubuntu16.04.1*
G04 #@! TF.CreationDate,2019-08-01T21:54:42-04:00*
G04 #@! TF.ProjectId,Controller,436f6e74-726f-46c6-9c65-722e6b696361,rev?*
G04 #@! TF.SameCoordinates,PX5734380PY65bcec0*
G04 #@! TF.FileFunction,Legend,Bot*
G04 #@! TF.FilePolarity,Positive*
%FSLAX46Y46*%
G04 Gerber Fmt 4.6, Leading zero omitted, Abs format (unit mm)*
G04 Created by KiCad (PCBNEW 5.0.2-bee76a0~70~ubuntu16.04.1) date Thu 01 Aug 2019 09:54:42 PM EDT*
%MOMM*%
%LPD*%
G01*
G04 APERTURE LIST*
%ADD10C,0.150000*%
%ADD11C,0.254000*%
%ADD12C,0.152400*%
G04 APERTURE END LIST*
D10*
G04 #@! TO.C,J2*
X11430000Y-35560000D02*
X21590000Y-35560000D01*
X21590000Y-35560000D02*
X21590000Y-50800000D01*
X21590000Y-50800000D02*
X11430000Y-50800000D01*
X11430000Y-50800000D02*
X11430000Y-35560000D01*
D11*
G04 #@! TO.C,J3*
X63754000Y-40640000D02*
X61468000Y-40640000D01*
X63754000Y-50546000D02*
X63754000Y-40640000D01*
X48006000Y-50546000D02*
X63754000Y-50546000D01*
X48006000Y-40640000D02*
X48006000Y-50546000D01*
X50292000Y-40640000D02*
X48006000Y-40640000D01*
G04 #@! TO.C,J4*
X25527000Y-40640000D02*
X23241000Y-40640000D01*
X23241000Y-40640000D02*
X23241000Y-50546000D01*
X23241000Y-50546000D02*
X38989000Y-50546000D01*
X38989000Y-50546000D02*
X38989000Y-40640000D01*
X38989000Y-40640000D02*
X36703000Y-40640000D01*
G04 #@! TO.C,U1*
X44660820Y-40424100D02*
X44262040Y-40424100D01*
X44262040Y-40424100D02*
X44262040Y-39423340D01*
X44262040Y-39423340D02*
X42862500Y-39423340D01*
X42862500Y-39423340D02*
X42862500Y-40424100D01*
X42862500Y-40424100D02*
X42263060Y-40424100D01*
X46662340Y-40424100D02*
X44660820Y-40424100D01*
X44262040Y-40424100D02*
X44262040Y-39423340D01*
X42862500Y-39423340D02*
X42862500Y-40424100D01*
X42461180Y-40424100D02*
X40462200Y-40424100D01*
X40462200Y-40424100D02*
X40462200Y-27424380D01*
X40462200Y-27424380D02*
X46662340Y-27424380D01*
X46662340Y-27424380D02*
X46662340Y-40424100D01*
G04 #@! TO.C,J2*
D12*
X20574000Y-34507714D02*
X20574000Y-35052000D01*
X20610285Y-35160857D01*
X20682857Y-35233428D01*
X20791714Y-35269714D01*
X20864285Y-35269714D01*
X20247428Y-34580285D02*
X20211142Y-34544000D01*
X20138571Y-34507714D01*
X19957142Y-34507714D01*
X19884571Y-34544000D01*
X19848285Y-34580285D01*
X19812000Y-34652857D01*
X19812000Y-34725428D01*
X19848285Y-34834285D01*
X20283714Y-35269714D01*
X19812000Y-35269714D01*
G04 #@! TO.C,J3*
X63119000Y-38952714D02*
X63119000Y-39497000D01*
X63155285Y-39605857D01*
X63227857Y-39678428D01*
X63336714Y-39714714D01*
X63409285Y-39714714D01*
X62828714Y-38952714D02*
X62357000Y-38952714D01*
X62611000Y-39243000D01*
X62502142Y-39243000D01*
X62429571Y-39279285D01*
X62393285Y-39315571D01*
X62357000Y-39388142D01*
X62357000Y-39569571D01*
X62393285Y-39642142D01*
X62429571Y-39678428D01*
X62502142Y-39714714D01*
X62719857Y-39714714D01*
X62792428Y-39678428D01*
X62828714Y-39642142D01*
G04 #@! TO.C,J4*
X24384000Y-38952714D02*
X24384000Y-39497000D01*
X24420285Y-39605857D01*
X24492857Y-39678428D01*
X24601714Y-39714714D01*
X24674285Y-39714714D01*
X23694571Y-39206714D02*
X23694571Y-39714714D01*
X23876000Y-38916428D02*
X24057428Y-39460714D01*
X23585714Y-39460714D01*
G04 #@! TO.C,U1*
X46300571Y-41492714D02*
X46300571Y-42109571D01*
X46264285Y-42182142D01*
X46228000Y-42218428D01*
X46155428Y-42254714D01*
X46010285Y-42254714D01*
X45937714Y-42218428D01*
X45901428Y-42182142D01*
X45865142Y-42109571D01*
X45865142Y-41492714D01*
X45103142Y-42254714D02*
X45538571Y-42254714D01*
X45320857Y-42254714D02*
X45320857Y-41492714D01*
X45393428Y-41601571D01*
X45466000Y-41674142D01*
X45538571Y-41710428D01*
G04 #@! TD*
M02*
