G04 #@! TF.GenerationSoftware,KiCad,Pcbnew,5.0.2-bee76a0~70~ubuntu16.04.1*
G04 #@! TF.CreationDate,2019-08-01T21:54:42-04:00*
G04 #@! TF.ProjectId,Controller,436f6e74-726f-46c6-9c65-722e6b696361,rev?*
G04 #@! TF.SameCoordinates,PX5734380PY65bcec0*
G04 #@! TF.FileFunction,Legend,Top*
G04 #@! TF.FilePolarity,Positive*
%FSLAX46Y46*%
G04 Gerber Fmt 4.6, Leading zero omitted, Abs format (unit mm)*
G04 Created by KiCad (PCBNEW 5.0.2-bee76a0~70~ubuntu16.04.1) date Thu 01 Aug 2019 09:54:42 PM EDT*
%MOMM*%
%LPD*%
G01*
G04 APERTURE LIST*
%ADD10C,0.150000*%
%ADD11C,0.254000*%
%ADD12C,0.152400*%
G04 APERTURE END LIST*
D10*
G04 #@! TO.C,M1*
X0Y-21590000D02*
X2540000Y-21590000D01*
X0Y-13970000D02*
X0Y-21590000D01*
X2540000Y-13970000D02*
X0Y-13970000D01*
X1270000Y-8890000D02*
X1270000Y-13970000D01*
X36830000Y-8890000D02*
X1270000Y-8890000D01*
X36830000Y-26670000D02*
X36830000Y-8890000D01*
X1270000Y-26670000D02*
X36830000Y-26670000D01*
X1270000Y-21590000D02*
X1270000Y-26670000D01*
X30480000Y-20320000D02*
X30480000Y-17780000D01*
X33020000Y-20320000D02*
X30480000Y-20320000D01*
X33020000Y-15240000D02*
X33020000Y-20320000D01*
X30480000Y-15240000D02*
X33020000Y-15240000D01*
X30480000Y-17780000D02*
X30480000Y-15240000D01*
G04 #@! TO.C,J1*
X10160000Y-50800000D02*
X10160000Y-35560000D01*
X0Y-50800000D02*
X10160000Y-50800000D01*
X0Y-35560000D02*
X0Y-50800000D01*
X10160000Y-35560000D02*
X0Y-35560000D01*
D11*
G04 #@! TO.C,R1*
X17526000Y-6350000D02*
X17526000Y-7747000D01*
X17526000Y-7747000D02*
X19558000Y-7747000D01*
X19558000Y-7747000D02*
X19558000Y-6350000D01*
X19558000Y-5334000D02*
X19558000Y-3937000D01*
X19558000Y-3937000D02*
X17526000Y-3937000D01*
X17526000Y-3937000D02*
X17526000Y-5334000D01*
G04 #@! TO.C,R2*
X30226000Y-3937000D02*
X30226000Y-5334000D01*
X32258000Y-3937000D02*
X30226000Y-3937000D01*
X32258000Y-5334000D02*
X32258000Y-3937000D01*
X32258000Y-7747000D02*
X32258000Y-6350000D01*
X30226000Y-7747000D02*
X32258000Y-7747000D01*
X30226000Y-6350000D02*
X30226000Y-7747000D01*
G04 #@! TO.C,R3*
X42926000Y-6350000D02*
X42926000Y-7747000D01*
X42926000Y-7747000D02*
X44958000Y-7747000D01*
X44958000Y-7747000D02*
X44958000Y-6350000D01*
X44958000Y-5334000D02*
X44958000Y-3937000D01*
X44958000Y-3937000D02*
X42926000Y-3937000D01*
X42926000Y-3937000D02*
X42926000Y-5334000D01*
G04 #@! TO.C,R4*
X55880000Y-3937000D02*
X55880000Y-5334000D01*
X57912000Y-3937000D02*
X55880000Y-3937000D01*
X57912000Y-5334000D02*
X57912000Y-3937000D01*
X57912000Y-7747000D02*
X57912000Y-6350000D01*
X55880000Y-7747000D02*
X57912000Y-7747000D01*
X55880000Y-6350000D02*
X55880000Y-7747000D01*
G04 #@! TO.C,SW2*
X22606000Y-7874000D02*
X26416000Y-7874000D01*
X22606000Y-1778000D02*
X26416000Y-1778000D01*
X27686000Y-4064000D02*
X27686000Y-5588000D01*
X21336000Y-5588000D02*
X21336000Y-4064000D01*
G04 #@! TO.C,SW3*
X34036000Y-5588000D02*
X34036000Y-4064000D01*
X40386000Y-4064000D02*
X40386000Y-5588000D01*
X35306000Y-1778000D02*
X39116000Y-1778000D01*
X35306000Y-7874000D02*
X39116000Y-7874000D01*
G04 #@! TO.C,SW4*
X48006000Y-7874000D02*
X51816000Y-7874000D01*
X48006000Y-1778000D02*
X51816000Y-1778000D01*
X53086000Y-4064000D02*
X53086000Y-5588000D01*
X46736000Y-5588000D02*
X46736000Y-4064000D01*
G04 #@! TO.C,SW5*
X59436000Y-5588000D02*
X59436000Y-4064000D01*
X65786000Y-4064000D02*
X65786000Y-5588000D01*
X60706000Y-1778000D02*
X64516000Y-1778000D01*
X60706000Y-7874000D02*
X64516000Y-7874000D01*
D10*
G04 #@! TO.C,M2*
X68580000Y-41910000D02*
X68580000Y-11430000D01*
X66040000Y-44450000D02*
X41910000Y-44450000D01*
X66040000Y-8890000D02*
X41910000Y-8890000D01*
X39370000Y-11430000D02*
X39370000Y-41910000D01*
X41910000Y-8890000D02*
G75*
G03X39370000Y-11430000I0J-2540000D01*
G01*
X39370000Y-41910000D02*
G75*
G03X41910000Y-44450000I2540000J0D01*
G01*
X66040000Y-44450000D02*
G75*
G03X68580000Y-41910000I0J2540000D01*
G01*
X68580000Y-11430000D02*
G75*
G03X66040000Y-8890000I-2540000J0D01*
G01*
G04 #@! TO.C,M1*
D12*
X5098142Y-13679714D02*
X5098142Y-12917714D01*
X5352142Y-13462000D01*
X5606142Y-12917714D01*
X5606142Y-13679714D01*
X6368142Y-13679714D02*
X5932714Y-13679714D01*
X6150428Y-13679714D02*
X6150428Y-12917714D01*
X6077857Y-13026571D01*
X6005285Y-13099142D01*
X5932714Y-13135428D01*
G04 #@! TO.C,J1*
X11176000Y-33872714D02*
X11176000Y-34417000D01*
X11139714Y-34525857D01*
X11067142Y-34598428D01*
X10958285Y-34634714D01*
X10885714Y-34634714D01*
X11938000Y-34634714D02*
X11502571Y-34634714D01*
X11720285Y-34634714D02*
X11720285Y-33872714D01*
X11647714Y-33981571D01*
X11575142Y-34054142D01*
X11502571Y-34090428D01*
G04 #@! TO.C,R1*
X18759714Y-2667000D02*
X18396857Y-2921000D01*
X18759714Y-3102428D02*
X17997714Y-3102428D01*
X17997714Y-2812142D01*
X18034000Y-2739571D01*
X18070285Y-2703285D01*
X18142857Y-2667000D01*
X18251714Y-2667000D01*
X18324285Y-2703285D01*
X18360571Y-2739571D01*
X18396857Y-2812142D01*
X18396857Y-3102428D01*
X18759714Y-1941285D02*
X18759714Y-2376714D01*
X18759714Y-2159000D02*
X17997714Y-2159000D01*
X18106571Y-2231571D01*
X18179142Y-2304142D01*
X18215428Y-2376714D01*
G04 #@! TO.C,R2*
X31459714Y-2667000D02*
X31096857Y-2921000D01*
X31459714Y-3102428D02*
X30697714Y-3102428D01*
X30697714Y-2812142D01*
X30734000Y-2739571D01*
X30770285Y-2703285D01*
X30842857Y-2667000D01*
X30951714Y-2667000D01*
X31024285Y-2703285D01*
X31060571Y-2739571D01*
X31096857Y-2812142D01*
X31096857Y-3102428D01*
X30770285Y-2376714D02*
X30734000Y-2340428D01*
X30697714Y-2267857D01*
X30697714Y-2086428D01*
X30734000Y-2013857D01*
X30770285Y-1977571D01*
X30842857Y-1941285D01*
X30915428Y-1941285D01*
X31024285Y-1977571D01*
X31459714Y-2413000D01*
X31459714Y-1941285D01*
G04 #@! TO.C,R3*
X44159714Y-2667000D02*
X43796857Y-2921000D01*
X44159714Y-3102428D02*
X43397714Y-3102428D01*
X43397714Y-2812142D01*
X43434000Y-2739571D01*
X43470285Y-2703285D01*
X43542857Y-2667000D01*
X43651714Y-2667000D01*
X43724285Y-2703285D01*
X43760571Y-2739571D01*
X43796857Y-2812142D01*
X43796857Y-3102428D01*
X43397714Y-2413000D02*
X43397714Y-1941285D01*
X43688000Y-2195285D01*
X43688000Y-2086428D01*
X43724285Y-2013857D01*
X43760571Y-1977571D01*
X43833142Y-1941285D01*
X44014571Y-1941285D01*
X44087142Y-1977571D01*
X44123428Y-2013857D01*
X44159714Y-2086428D01*
X44159714Y-2304142D01*
X44123428Y-2376714D01*
X44087142Y-2413000D01*
G04 #@! TO.C,R4*
X57494714Y-2667000D02*
X57131857Y-2921000D01*
X57494714Y-3102428D02*
X56732714Y-3102428D01*
X56732714Y-2812142D01*
X56769000Y-2739571D01*
X56805285Y-2703285D01*
X56877857Y-2667000D01*
X56986714Y-2667000D01*
X57059285Y-2703285D01*
X57095571Y-2739571D01*
X57131857Y-2812142D01*
X57131857Y-3102428D01*
X56986714Y-2013857D02*
X57494714Y-2013857D01*
X56696428Y-2195285D02*
X57240714Y-2376714D01*
X57240714Y-1905000D01*
G04 #@! TO.C,SW2*
X24384000Y-5388428D02*
X24492857Y-5424714D01*
X24674285Y-5424714D01*
X24746857Y-5388428D01*
X24783142Y-5352142D01*
X24819428Y-5279571D01*
X24819428Y-5207000D01*
X24783142Y-5134428D01*
X24746857Y-5098142D01*
X24674285Y-5061857D01*
X24529142Y-5025571D01*
X24456571Y-4989285D01*
X24420285Y-4953000D01*
X24384000Y-4880428D01*
X24384000Y-4807857D01*
X24420285Y-4735285D01*
X24456571Y-4699000D01*
X24529142Y-4662714D01*
X24710571Y-4662714D01*
X24819428Y-4699000D01*
X25073428Y-4662714D02*
X25254857Y-5424714D01*
X25400000Y-4880428D01*
X25545142Y-5424714D01*
X25726571Y-4662714D01*
X25980571Y-4735285D02*
X26016857Y-4699000D01*
X26089428Y-4662714D01*
X26270857Y-4662714D01*
X26343428Y-4699000D01*
X26379714Y-4735285D01*
X26416000Y-4807857D01*
X26416000Y-4880428D01*
X26379714Y-4989285D01*
X25944285Y-5424714D01*
X26416000Y-5424714D01*
G04 #@! TO.C,SW3*
X37084000Y-5388428D02*
X37192857Y-5424714D01*
X37374285Y-5424714D01*
X37446857Y-5388428D01*
X37483142Y-5352142D01*
X37519428Y-5279571D01*
X37519428Y-5207000D01*
X37483142Y-5134428D01*
X37446857Y-5098142D01*
X37374285Y-5061857D01*
X37229142Y-5025571D01*
X37156571Y-4989285D01*
X37120285Y-4953000D01*
X37084000Y-4880428D01*
X37084000Y-4807857D01*
X37120285Y-4735285D01*
X37156571Y-4699000D01*
X37229142Y-4662714D01*
X37410571Y-4662714D01*
X37519428Y-4699000D01*
X37773428Y-4662714D02*
X37954857Y-5424714D01*
X38100000Y-4880428D01*
X38245142Y-5424714D01*
X38426571Y-4662714D01*
X38644285Y-4662714D02*
X39116000Y-4662714D01*
X38862000Y-4953000D01*
X38970857Y-4953000D01*
X39043428Y-4989285D01*
X39079714Y-5025571D01*
X39116000Y-5098142D01*
X39116000Y-5279571D01*
X39079714Y-5352142D01*
X39043428Y-5388428D01*
X38970857Y-5424714D01*
X38753142Y-5424714D01*
X38680571Y-5388428D01*
X38644285Y-5352142D01*
G04 #@! TO.C,SW4*
X49784000Y-5388428D02*
X49892857Y-5424714D01*
X50074285Y-5424714D01*
X50146857Y-5388428D01*
X50183142Y-5352142D01*
X50219428Y-5279571D01*
X50219428Y-5207000D01*
X50183142Y-5134428D01*
X50146857Y-5098142D01*
X50074285Y-5061857D01*
X49929142Y-5025571D01*
X49856571Y-4989285D01*
X49820285Y-4953000D01*
X49784000Y-4880428D01*
X49784000Y-4807857D01*
X49820285Y-4735285D01*
X49856571Y-4699000D01*
X49929142Y-4662714D01*
X50110571Y-4662714D01*
X50219428Y-4699000D01*
X50473428Y-4662714D02*
X50654857Y-5424714D01*
X50800000Y-4880428D01*
X50945142Y-5424714D01*
X51126571Y-4662714D01*
X51743428Y-4916714D02*
X51743428Y-5424714D01*
X51562000Y-4626428D02*
X51380571Y-5170714D01*
X51852285Y-5170714D01*
G04 #@! TO.C,SW5*
X62484000Y-5388428D02*
X62592857Y-5424714D01*
X62774285Y-5424714D01*
X62846857Y-5388428D01*
X62883142Y-5352142D01*
X62919428Y-5279571D01*
X62919428Y-5207000D01*
X62883142Y-5134428D01*
X62846857Y-5098142D01*
X62774285Y-5061857D01*
X62629142Y-5025571D01*
X62556571Y-4989285D01*
X62520285Y-4953000D01*
X62484000Y-4880428D01*
X62484000Y-4807857D01*
X62520285Y-4735285D01*
X62556571Y-4699000D01*
X62629142Y-4662714D01*
X62810571Y-4662714D01*
X62919428Y-4699000D01*
X63173428Y-4662714D02*
X63354857Y-5424714D01*
X63500000Y-4880428D01*
X63645142Y-5424714D01*
X63826571Y-4662714D01*
X64479714Y-4662714D02*
X64116857Y-4662714D01*
X64080571Y-5025571D01*
X64116857Y-4989285D01*
X64189428Y-4953000D01*
X64370857Y-4953000D01*
X64443428Y-4989285D01*
X64479714Y-5025571D01*
X64516000Y-5098142D01*
X64516000Y-5279571D01*
X64479714Y-5352142D01*
X64443428Y-5388428D01*
X64370857Y-5424714D01*
X64189428Y-5424714D01*
X64116857Y-5388428D01*
X64080571Y-5352142D01*
G04 #@! TO.C,M2*
X62883142Y-38444714D02*
X62883142Y-37682714D01*
X63137142Y-38227000D01*
X63391142Y-37682714D01*
X63391142Y-38444714D01*
X63717714Y-37755285D02*
X63754000Y-37719000D01*
X63826571Y-37682714D01*
X64008000Y-37682714D01*
X64080571Y-37719000D01*
X64116857Y-37755285D01*
X64153142Y-37827857D01*
X64153142Y-37900428D01*
X64116857Y-38009285D01*
X63681428Y-38444714D01*
X64153142Y-38444714D01*
G04 #@! TD*
M02*
