M48
;DRILL file {KiCad 5.0.2-bee76a0~70~ubuntu16.04.1} date Thu 01 Aug 2019 09:53:34 PM EDT
;FORMAT={-:-/ absolute / inch / decimal}
FMAT,2
INCH,TZ
T1C0.0150
T2C0.0157
T3C0.0400
T4C0.0450
T5C0.0500
%
G90
G05
T1
X1.35Y-1.31
X1.41Y-1.19
X1.43Y-1.41
X1.57Y-0.51
X1.62Y-1.33
X1.82Y-1.31
X1.82Y-1.41
X1.83Y-1.21
X1.91Y-1.06
X2.42Y-0.92
X2.49Y-1.31
T2
X1.85Y-1.6
T4
X0.81Y-1.19
X0.83Y-0.1
X0.83Y-0.28
X1.1Y-0.1
X1.1Y-0.28
X1.33Y-0.1
X1.33Y-0.28
X1.6Y-0.1
X1.6Y-0.28
X1.83Y-0.1
X1.83Y-0.28
X2.1Y-0.1
X2.1Y-0.28
X0.1Y-0.4
X0.1Y-1.
X0.2Y-0.4
X0.2Y-1.
X0.3Y-0.4
X0.3Y-1.
X0.4Y-0.4
X0.4Y-1.
X0.5Y-0.4
X0.5Y-1.
X0.6Y-0.4
X0.6Y-1.
X0.7Y-0.4
X0.7Y-1.
X0.8Y-0.4
X0.8Y-1.
X0.9Y-0.4
X0.9Y-1.
X1.Y-0.4
X1.Y-1.
X1.1Y-0.4
X1.1Y-1.
X1.2Y-0.4
X1.2Y-1.
X1.3Y-0.4
X1.3Y-1.
X1.4Y-0.4
X1.4Y-1.
X2.33Y-0.1
X2.33Y-0.28
X2.6Y-0.1
X2.6Y-0.28
X2.6Y-0.6
X2.6Y-0.7
X2.6Y-0.8
X2.6Y-0.9
X2.6Y-1.
X2.6Y-1.1
X2.6Y-1.2
X2.6Y-1.3
X2.6Y-1.4
X2.6Y-1.5
X0.1Y-0.53
T5
X1.88Y-0.62
T3
X0.465Y-1.602G85X0.465Y-1.562
G05
X0.67Y-1.464G85X0.63Y-1.464
G05
X0.67Y-1.7G85X0.63Y-1.7
G05
X0.18Y-1.464G85X0.22Y-1.464
G05
X0.18Y-1.7G85X0.22Y-1.7
G05
X0.385Y-1.602G85X0.385Y-1.562
G05
T0
M30
