M48
; DRILL file {KiCad 5.1.6-c6e7f7d~87~ubuntu16.04.1} date Tue Sep  1 19:23:30 2020
; FORMAT={-:-/ absolute / inch / decimal}
; #@! TF.CreationDate,2020-09-01T19:23:30-04:00
; #@! TF.GenerationSoftware,Kicad,Pcbnew,5.1.6-c6e7f7d~87~ubuntu16.04.1
; #@! TF.FileFunction,Plated,1,2,PTH
FMAT,2
INCH
T1C0.0200
T2C0.0450
%
G90
G05
T1
X0.68Y-0.67
X1.12Y-0.54
X1.62Y-0.96
X1.62Y-1.06
X1.62Y-1.16
X1.62Y-1.26
X1.75Y-0.48
X1.93Y-1.31
X1.94Y-0.85
X2.0Y-0.92
X2.01Y-1.16
X2.06Y-1.55
X2.17Y-0.83
X2.19Y-1.21
X2.23Y-0.5
X2.44Y-0.84
T2
X2.47Y-0.7
X1.83Y-0.1
X1.83Y-0.28
X2.1Y-0.1
X2.1Y-0.28
X2.33Y-0.1
X2.33Y-0.28
X2.6Y-0.1
X2.6Y-0.28
X1.33Y-0.1
X1.33Y-0.28
X1.6Y-0.1
X1.6Y-0.28
X0.3Y-0.26
X0.1Y-0.26
X0.44Y-1.33
X0.1Y-0.4
X0.1Y-1.0
X0.2Y-0.4
X0.2Y-1.0
X0.3Y-0.4
X0.3Y-1.0
X0.4Y-0.4
X0.4Y-1.0
X0.5Y-0.4
X0.5Y-1.0
X0.6Y-0.4
X0.6Y-1.0
X0.7Y-0.4
X0.7Y-1.0
X0.8Y-0.4
X0.8Y-1.0
X0.9Y-0.4
X0.9Y-1.0
X1.0Y-0.4
X1.0Y-1.0
X1.1Y-0.4
X1.1Y-1.0
X1.2Y-0.4
X1.2Y-1.0
X1.3Y-0.4
X1.3Y-1.0
X1.4Y-0.4
X1.4Y-1.0
X0.83Y-0.1
X0.83Y-0.28
X1.1Y-0.1
X1.1Y-0.28
X2.6Y-0.6
X2.6Y-0.7
X2.6Y-0.8
X2.6Y-0.9
X2.6Y-1.0
X2.6Y-1.1
X2.6Y-1.2
X2.6Y-1.3
X2.6Y-1.4
X2.6Y-1.5
T0
M30
