G04 #@! TF.GenerationSoftware,KiCad,Pcbnew,5.1.6-c6e7f7d~87~ubuntu16.04.1*
G04 #@! TF.CreationDate,2020-09-01T19:23:28-04:00*
G04 #@! TF.ProjectId,Controller,436f6e74-726f-46c6-9c65-722e6b696361,rev?*
G04 #@! TF.SameCoordinates,PX5734380PY65bcec0*
G04 #@! TF.FileFunction,Copper,L2,Bot*
G04 #@! TF.FilePolarity,Positive*
%FSLAX46Y46*%
G04 Gerber Fmt 4.6, Leading zero omitted, Abs format (unit mm)*
G04 Created by KiCad (PCBNEW 5.1.6-c6e7f7d~87~ubuntu16.04.1) date 2020-09-01 19:23:28*
%MOMM*%
%LPD*%
G01*
G04 APERTURE LIST*
G04 #@! TA.AperFunction,ComponentPad*
%ADD10C,1.905000*%
G04 #@! TD*
G04 #@! TA.AperFunction,ComponentPad*
%ADD11R,1.905000X1.905000*%
G04 #@! TD*
G04 #@! TA.AperFunction,ComponentPad*
%ADD12C,2.032000*%
G04 #@! TD*
G04 #@! TA.AperFunction,SMDPad,CuDef*
%ADD13R,1.950720X0.599440*%
G04 #@! TD*
G04 #@! TA.AperFunction,SMDPad,CuDef*
%ADD14R,1.270000X2.921000*%
G04 #@! TD*
G04 #@! TA.AperFunction,SMDPad,CuDef*
%ADD15R,3.430000X1.650000*%
G04 #@! TD*
G04 #@! TA.AperFunction,ComponentPad*
%ADD16C,1.778000*%
G04 #@! TD*
G04 #@! TA.AperFunction,ViaPad*
%ADD17C,1.016000*%
G04 #@! TD*
G04 #@! TA.AperFunction,Conductor*
%ADD18C,0.508000*%
G04 #@! TD*
G04 #@! TA.AperFunction,Conductor*
%ADD19C,0.762000*%
G04 #@! TD*
G04 #@! TA.AperFunction,Conductor*
%ADD20C,1.270000*%
G04 #@! TD*
G04 #@! TA.AperFunction,Conductor*
%ADD21C,0.254000*%
G04 #@! TD*
G04 APERTURE END LIST*
D10*
X2540000Y-10160000D03*
X5080000Y-10160000D03*
X30480000Y-10160000D03*
X7620000Y-10160000D03*
X10160000Y-10160000D03*
X12700000Y-10160000D03*
X15240000Y-10160000D03*
X17780000Y-10160000D03*
X20320000Y-10160000D03*
X22860000Y-10160000D03*
X25400000Y-10160000D03*
X27940000Y-10160000D03*
X33020000Y-10160000D03*
X35560000Y-10160000D03*
X35560000Y-25400000D03*
X33020000Y-25400000D03*
X30480000Y-25400000D03*
X27940000Y-25400000D03*
X25400000Y-25400000D03*
X22860000Y-25400000D03*
X20320000Y-25400000D03*
X17780000Y-25400000D03*
D11*
X2540000Y-25400000D03*
D10*
X5080000Y-25400000D03*
X7620000Y-25400000D03*
X10160000Y-25400000D03*
X12700000Y-25400000D03*
X15240000Y-25400000D03*
X66040000Y-15240000D03*
X66040000Y-17780000D03*
X66040000Y-20320000D03*
X66040000Y-22860000D03*
D11*
X66040000Y-38100000D03*
D10*
X66040000Y-35560000D03*
X66040000Y-33020000D03*
X66040000Y-30480000D03*
X66040000Y-27940000D03*
X66040000Y-25400000D03*
D12*
X62738000Y-17780000D03*
X7620000Y-6604000D03*
D13*
X43434000Y-33274000D03*
X43434000Y-32004000D03*
X43434000Y-30734000D03*
X43434000Y-29464000D03*
X43434000Y-28194000D03*
X43434000Y-26924000D03*
X43434000Y-25654000D03*
X43434000Y-24384000D03*
X43434000Y-23114000D03*
X43434000Y-21844000D03*
X53342540Y-21844000D03*
X53342540Y-23114000D03*
X53342540Y-24384000D03*
X53342540Y-25654000D03*
X53342540Y-26924000D03*
X53342540Y-28194000D03*
X53342540Y-29464000D03*
X53342540Y-30734000D03*
X53342540Y-32004000D03*
X53342540Y-33274000D03*
D14*
X8200000Y-36830000D03*
X11200000Y-36830000D03*
D15*
X2600000Y-42303700D03*
X16764000Y-42303700D03*
D16*
X27940000Y-2540000D03*
X21082000Y-2540000D03*
X27940000Y-7112000D03*
X21082000Y-7112000D03*
X33782000Y-7112000D03*
X40640000Y-7112000D03*
X33782000Y-2540000D03*
X40640000Y-2540000D03*
X53340000Y-2540000D03*
X46482000Y-2540000D03*
X53340000Y-7112000D03*
X46482000Y-7112000D03*
X59182000Y-7112000D03*
X66040000Y-7112000D03*
X59182000Y-2540000D03*
X66040000Y-2540000D03*
D15*
X65980000Y-42303700D03*
X45780000Y-42303700D03*
D14*
X60380000Y-36830000D03*
X57380000Y-36830000D03*
X54380000Y-36830000D03*
X51380000Y-36830000D03*
X26742000Y-36830000D03*
X29742000Y-36830000D03*
X32742000Y-36830000D03*
X35742000Y-36830000D03*
D15*
X21142000Y-42303700D03*
X41342000Y-42303700D03*
D12*
X11176000Y-33782000D03*
X2540000Y-6604000D03*
D17*
X49022000Y-33274000D03*
X28448000Y-13716000D03*
X44450000Y-12192000D03*
X17272000Y-17018000D03*
X56642000Y-12700000D03*
X55626000Y-30734000D03*
X52324000Y-39370000D03*
X55118000Y-21082000D03*
X50800000Y-23368000D03*
X49276000Y-21590000D03*
X61976000Y-21336000D03*
X51054000Y-29464000D03*
X41148000Y-24384000D03*
X41148000Y-26924000D03*
X41148000Y-29464000D03*
X41148000Y-32004000D03*
D18*
X49784000Y-31242000D02*
X47752000Y-31242000D01*
X47752000Y-31242000D02*
X45720000Y-33274000D01*
X45720000Y-33274000D02*
X43434000Y-33274000D01*
X47752000Y-31242000D02*
X47752000Y-26924000D01*
X47752000Y-26924000D02*
X46482000Y-25654000D01*
X46482000Y-25654000D02*
X46482000Y-21844000D01*
X46482000Y-21844000D02*
X43434000Y-21844000D01*
D19*
X21082000Y-2540000D02*
X20320000Y-1778000D01*
X20320000Y-1778000D02*
X15494000Y-1778000D01*
X21082000Y-2540000D02*
X21844000Y-1778000D01*
X21844000Y-1778000D02*
X27178000Y-1778000D01*
X27178000Y-1778000D02*
X27940000Y-2540000D01*
X27940000Y-2540000D02*
X28702000Y-1778000D01*
X28702000Y-1778000D02*
X33020000Y-1778000D01*
X33020000Y-1778000D02*
X33782000Y-2540000D01*
X33782000Y-2540000D02*
X34544000Y-1778000D01*
X34544000Y-1778000D02*
X39878000Y-1778000D01*
X39878000Y-1778000D02*
X40640000Y-2540000D01*
X40640000Y-2540000D02*
X41402000Y-1778000D01*
X41402000Y-1778000D02*
X45720000Y-1778000D01*
X45720000Y-1778000D02*
X46482000Y-2540000D01*
X46482000Y-2540000D02*
X47244000Y-1778000D01*
X47244000Y-1778000D02*
X52578000Y-1778000D01*
X52578000Y-1778000D02*
X53340000Y-2540000D01*
X53340000Y-2540000D02*
X54102000Y-1778000D01*
X54102000Y-1778000D02*
X58420000Y-1778000D01*
X58420000Y-1778000D02*
X59182000Y-2540000D01*
X59182000Y-2540000D02*
X59944000Y-1778000D01*
X59944000Y-1778000D02*
X65278000Y-1778000D01*
X65278000Y-1778000D02*
X66040000Y-2540000D01*
X66040000Y-2540000D02*
X66802000Y-3302000D01*
X66802000Y-3302000D02*
X66802000Y-4318000D01*
X66040000Y-15240000D02*
X66802000Y-14478000D01*
X66802000Y-14478000D02*
X66802000Y-11938000D01*
D18*
X43434000Y-33274000D02*
X43434000Y-34036000D01*
X43434000Y-21844000D02*
X43434000Y-20828000D01*
X53342540Y-32004000D02*
X51562000Y-32004000D01*
X51562000Y-32004000D02*
X51054000Y-32004000D01*
X51054000Y-32004000D02*
X50546000Y-32004000D01*
X50546000Y-32004000D02*
X50038000Y-31496000D01*
X50038000Y-31496000D02*
X49784000Y-31242000D01*
X50038000Y-31496000D02*
X50546000Y-31496000D01*
X50546000Y-31496000D02*
X51054000Y-32004000D01*
X50546000Y-31496000D02*
X51054000Y-31496000D01*
X51054000Y-31496000D02*
X51562000Y-32004000D01*
X53342540Y-33274000D02*
X49022000Y-33274000D01*
D20*
X11200000Y-36830000D02*
X11200000Y-33806000D01*
X11200000Y-33806000D02*
X11176000Y-33782000D01*
X2540000Y-6604000D02*
X2540000Y-10160000D01*
D18*
X57380000Y-36830000D02*
X57380000Y-34544000D01*
X58166000Y-28448000D02*
X55372000Y-25654000D01*
X55372000Y-25654000D02*
X53342540Y-25654000D01*
X57380000Y-34544000D02*
X58166000Y-33758000D01*
X58166000Y-33758000D02*
X58166000Y-28448000D01*
X54380000Y-36830000D02*
X54380000Y-36044000D01*
X54380000Y-36044000D02*
X57150000Y-33274000D01*
X57150000Y-33274000D02*
X57150000Y-29972000D01*
X57150000Y-29972000D02*
X55372000Y-28194000D01*
X55372000Y-28194000D02*
X53342540Y-28194000D01*
X46482000Y-7112000D02*
X46482000Y-10160000D01*
X46482000Y-10160000D02*
X44450000Y-12192000D01*
X17272000Y-17018000D02*
X20574000Y-13716000D01*
X20574000Y-13716000D02*
X28448000Y-13716000D01*
X59182000Y-7112000D02*
X59182000Y-10160000D01*
X59182000Y-10160000D02*
X56642000Y-12700000D01*
X53342540Y-30734000D02*
X55626000Y-30734000D01*
X52324000Y-39370000D02*
X51380000Y-38426000D01*
X51380000Y-38426000D02*
X51380000Y-36830000D01*
X43434000Y-30734000D02*
X39116000Y-30734000D01*
X39116000Y-30734000D02*
X35742000Y-34108000D01*
X35742000Y-34108000D02*
X35742000Y-36830000D01*
X40132000Y-28194000D02*
X43434000Y-28194000D01*
X40132000Y-28194000D02*
X34290000Y-34036000D01*
X34290000Y-34036000D02*
X33528000Y-34036000D01*
X33528000Y-34036000D02*
X32742000Y-34822000D01*
X32742000Y-34822000D02*
X32742000Y-36830000D01*
X43434000Y-25654000D02*
X40132000Y-25654000D01*
X40132000Y-25654000D02*
X39624000Y-26162000D01*
X39624000Y-26162000D02*
X39624000Y-27178000D01*
X39624000Y-27178000D02*
X33782000Y-33020000D01*
X33782000Y-33020000D02*
X31242000Y-33020000D01*
X31242000Y-33020000D02*
X29742000Y-34520000D01*
X29742000Y-34520000D02*
X29742000Y-36830000D01*
X43434000Y-23114000D02*
X39878000Y-23114000D01*
X39878000Y-23114000D02*
X38608000Y-24384000D01*
X38608000Y-26670000D02*
X33274000Y-32004000D01*
X33274000Y-32004000D02*
X30734000Y-32004000D01*
X30734000Y-32004000D02*
X26742000Y-35996000D01*
X26742000Y-35996000D02*
X26742000Y-36830000D01*
X38608000Y-24384000D02*
X38608000Y-26670000D01*
X53342540Y-23114000D02*
X55118000Y-23114000D01*
X55118000Y-23114000D02*
X59182000Y-27178000D01*
X59182000Y-27178000D02*
X59182000Y-34798000D01*
X59182000Y-34798000D02*
X60380000Y-35996000D01*
X60380000Y-35996000D02*
X60380000Y-36830000D01*
D20*
X66040000Y-17780000D02*
X62738000Y-17780000D01*
X7620000Y-6604000D02*
X7620000Y-10160000D01*
D18*
X53342540Y-21844000D02*
X54356000Y-21844000D01*
X54356000Y-21844000D02*
X55118000Y-21082000D01*
X53342540Y-24384000D02*
X51816000Y-24384000D01*
X51816000Y-24384000D02*
X50800000Y-23368000D01*
X49276000Y-21844000D02*
X49276000Y-24638000D01*
X53342540Y-26924000D02*
X51562000Y-26924000D01*
X51562000Y-26924000D02*
X49276000Y-24638000D01*
X35560000Y-10160000D02*
X36068000Y-10160000D01*
X61976000Y-21336000D02*
X63500000Y-22860000D01*
X63500000Y-22860000D02*
X63500000Y-28702000D01*
X63500000Y-28702000D02*
X65278000Y-30480000D01*
X65278000Y-30480000D02*
X66040000Y-30480000D01*
X53342540Y-29464000D02*
X51054000Y-29464000D01*
X43434000Y-24384000D02*
X41148000Y-24384000D01*
X43434000Y-26924000D02*
X41148000Y-26924000D01*
X43434000Y-29464000D02*
X41148000Y-29464000D01*
X43434000Y-32004000D02*
X41148000Y-32004000D01*
D21*
G36*
X19819983Y-1637196D02*
G01*
X19948564Y-1765777D01*
X19710956Y-1857839D01*
X19604218Y-2138424D01*
X19554269Y-2434442D01*
X19563031Y-2734516D01*
X19630166Y-3027115D01*
X19710956Y-3222161D01*
X19948566Y-3314224D01*
X20722790Y-2540000D01*
X20708648Y-2525858D01*
X21067858Y-2166648D01*
X21082000Y-2180790D01*
X21096143Y-2166648D01*
X21455353Y-2525858D01*
X21441210Y-2540000D01*
X22215434Y-3314224D01*
X22453044Y-3222161D01*
X22559782Y-2941576D01*
X22609731Y-2645558D01*
X22600969Y-2345484D01*
X22533834Y-2052885D01*
X22453044Y-1857839D01*
X22215436Y-1765777D01*
X22344017Y-1637196D01*
X22178821Y-1472000D01*
X26843179Y-1472000D01*
X26677983Y-1637196D01*
X26806564Y-1765777D01*
X26568956Y-1857839D01*
X26462218Y-2138424D01*
X26412269Y-2434442D01*
X26421031Y-2734516D01*
X26488166Y-3027115D01*
X26568956Y-3222161D01*
X26806566Y-3314224D01*
X27580790Y-2540000D01*
X27566648Y-2525858D01*
X27925858Y-2166648D01*
X27940000Y-2180790D01*
X27954143Y-2166648D01*
X28313353Y-2525858D01*
X28299210Y-2540000D01*
X29073434Y-3314224D01*
X29311044Y-3222161D01*
X29417782Y-2941576D01*
X29467731Y-2645558D01*
X29458969Y-2345484D01*
X29391834Y-2052885D01*
X29311044Y-1857839D01*
X29073436Y-1765777D01*
X29202017Y-1637196D01*
X29036821Y-1472000D01*
X32685179Y-1472000D01*
X32519983Y-1637196D01*
X32648564Y-1765777D01*
X32410956Y-1857839D01*
X32304218Y-2138424D01*
X32254269Y-2434442D01*
X32263031Y-2734516D01*
X32330166Y-3027115D01*
X32410956Y-3222161D01*
X32648566Y-3314224D01*
X33422790Y-2540000D01*
X33408648Y-2525858D01*
X33767858Y-2166648D01*
X33782000Y-2180790D01*
X33796143Y-2166648D01*
X34155353Y-2525858D01*
X34141210Y-2540000D01*
X34915434Y-3314224D01*
X35153044Y-3222161D01*
X35259782Y-2941576D01*
X35309731Y-2645558D01*
X35300969Y-2345484D01*
X35233834Y-2052885D01*
X35153044Y-1857839D01*
X34915436Y-1765777D01*
X35044017Y-1637196D01*
X34878821Y-1472000D01*
X39543179Y-1472000D01*
X39377983Y-1637196D01*
X39506564Y-1765777D01*
X39268956Y-1857839D01*
X39162218Y-2138424D01*
X39112269Y-2434442D01*
X39121031Y-2734516D01*
X39188166Y-3027115D01*
X39268956Y-3222161D01*
X39506566Y-3314224D01*
X40280790Y-2540000D01*
X40266648Y-2525858D01*
X40625858Y-2166648D01*
X40640000Y-2180790D01*
X40654143Y-2166648D01*
X41013353Y-2525858D01*
X40999210Y-2540000D01*
X41773434Y-3314224D01*
X42011044Y-3222161D01*
X42117782Y-2941576D01*
X42167731Y-2645558D01*
X42158969Y-2345484D01*
X42091834Y-2052885D01*
X42011044Y-1857839D01*
X41773436Y-1765777D01*
X41902017Y-1637196D01*
X41736821Y-1472000D01*
X45385179Y-1472000D01*
X45219983Y-1637196D01*
X45348564Y-1765777D01*
X45110956Y-1857839D01*
X45004218Y-2138424D01*
X44954269Y-2434442D01*
X44963031Y-2734516D01*
X45030166Y-3027115D01*
X45110956Y-3222161D01*
X45348566Y-3314224D01*
X46122790Y-2540000D01*
X46108648Y-2525858D01*
X46467858Y-2166648D01*
X46482000Y-2180790D01*
X46496143Y-2166648D01*
X46855353Y-2525858D01*
X46841210Y-2540000D01*
X47615434Y-3314224D01*
X47853044Y-3222161D01*
X47959782Y-2941576D01*
X48009731Y-2645558D01*
X48000969Y-2345484D01*
X47933834Y-2052885D01*
X47853044Y-1857839D01*
X47615436Y-1765777D01*
X47744017Y-1637196D01*
X47578821Y-1472000D01*
X52243179Y-1472000D01*
X52077983Y-1637196D01*
X52206564Y-1765777D01*
X51968956Y-1857839D01*
X51862218Y-2138424D01*
X51812269Y-2434442D01*
X51821031Y-2734516D01*
X51888166Y-3027115D01*
X51968956Y-3222161D01*
X52206566Y-3314224D01*
X52980790Y-2540000D01*
X52966648Y-2525858D01*
X53325858Y-2166648D01*
X53340000Y-2180790D01*
X53354143Y-2166648D01*
X53713353Y-2525858D01*
X53699210Y-2540000D01*
X54473434Y-3314224D01*
X54711044Y-3222161D01*
X54817782Y-2941576D01*
X54867731Y-2645558D01*
X54858969Y-2345484D01*
X54791834Y-2052885D01*
X54711044Y-1857839D01*
X54473436Y-1765777D01*
X54602017Y-1637196D01*
X54436821Y-1472000D01*
X58085179Y-1472000D01*
X57919983Y-1637196D01*
X58048564Y-1765777D01*
X57810956Y-1857839D01*
X57704218Y-2138424D01*
X57654269Y-2434442D01*
X57663031Y-2734516D01*
X57730166Y-3027115D01*
X57810956Y-3222161D01*
X58048566Y-3314224D01*
X58822790Y-2540000D01*
X58808648Y-2525858D01*
X59167858Y-2166648D01*
X59182000Y-2180790D01*
X59196143Y-2166648D01*
X59555353Y-2525858D01*
X59541210Y-2540000D01*
X60315434Y-3314224D01*
X60553044Y-3222161D01*
X60659782Y-2941576D01*
X60709731Y-2645558D01*
X60700969Y-2345484D01*
X60633834Y-2052885D01*
X60553044Y-1857839D01*
X60315436Y-1765777D01*
X60444017Y-1637196D01*
X60278821Y-1472000D01*
X64943179Y-1472000D01*
X64777983Y-1637196D01*
X64906564Y-1765777D01*
X64668956Y-1857839D01*
X64562218Y-2138424D01*
X64512269Y-2434442D01*
X64521031Y-2734516D01*
X64588166Y-3027115D01*
X64668956Y-3222161D01*
X64906566Y-3314224D01*
X65680790Y-2540000D01*
X65666648Y-2525858D01*
X66025858Y-2166648D01*
X66040000Y-2180790D01*
X66054143Y-2166648D01*
X66413353Y-2525858D01*
X66399210Y-2540000D01*
X66413353Y-2554143D01*
X66054143Y-2913353D01*
X66040000Y-2899210D01*
X65265776Y-3673434D01*
X65357839Y-3911044D01*
X65638424Y-4017782D01*
X65934442Y-4067731D01*
X66234516Y-4058969D01*
X66527115Y-3991834D01*
X66722161Y-3911044D01*
X66814223Y-3673436D01*
X66942804Y-3802017D01*
X67108001Y-3636820D01*
X67108001Y-5080032D01*
X66706802Y-4913850D01*
X66265151Y-4826000D01*
X65814849Y-4826000D01*
X65373198Y-4913850D01*
X64957173Y-5086173D01*
X64582760Y-5336348D01*
X64264348Y-5654760D01*
X64014173Y-6029173D01*
X63841850Y-6445198D01*
X63754000Y-6886849D01*
X63754000Y-7337151D01*
X63841850Y-7778802D01*
X64014173Y-8194827D01*
X64264348Y-8569240D01*
X64582760Y-8887652D01*
X64957173Y-9137827D01*
X65373198Y-9310150D01*
X65814849Y-9398000D01*
X66265151Y-9398000D01*
X66706802Y-9310150D01*
X67108001Y-9143968D01*
X67108001Y-14052942D01*
X66987923Y-13932864D01*
X66860099Y-14060688D01*
X66760171Y-13816639D01*
X66468650Y-13703491D01*
X66160655Y-13649389D01*
X65848023Y-13656413D01*
X65542770Y-13724294D01*
X65319829Y-13816639D01*
X65219900Y-14060690D01*
X66040000Y-14880790D01*
X66054143Y-14866648D01*
X66413353Y-15225858D01*
X66399210Y-15240000D01*
X66413353Y-15254143D01*
X66236995Y-15430500D01*
X65843005Y-15430500D01*
X65666648Y-15254143D01*
X65680790Y-15240000D01*
X64860690Y-14419900D01*
X64616639Y-14519829D01*
X64503491Y-14811350D01*
X64449389Y-15119345D01*
X64456413Y-15431977D01*
X64524294Y-15737230D01*
X64528755Y-15748000D01*
X64040181Y-15748000D01*
X63880984Y-15641628D01*
X63441846Y-15459731D01*
X62975660Y-15367000D01*
X62500340Y-15367000D01*
X62034154Y-15459731D01*
X61595016Y-15641628D01*
X61199802Y-15905701D01*
X60863701Y-16241802D01*
X60599628Y-16637016D01*
X60417731Y-17076154D01*
X60325000Y-17542340D01*
X60325000Y-18017660D01*
X60417731Y-18483846D01*
X60599628Y-18922984D01*
X60863701Y-19318198D01*
X61158264Y-19612761D01*
X61073644Y-19647811D01*
X60761634Y-19856290D01*
X60496290Y-20121634D01*
X60287811Y-20433644D01*
X60144209Y-20780332D01*
X60071000Y-21148374D01*
X60071000Y-21523626D01*
X60144209Y-21891668D01*
X60287811Y-22238356D01*
X60496290Y-22550366D01*
X60761634Y-22815710D01*
X61073644Y-23024189D01*
X61420332Y-23167791D01*
X61485984Y-23180850D01*
X61849000Y-23543867D01*
X61849001Y-28620889D01*
X61841012Y-28702000D01*
X61860732Y-28902209D01*
X61872890Y-29025653D01*
X61948106Y-29273607D01*
X61967296Y-29336867D01*
X62119212Y-29621081D01*
X62120603Y-29623684D01*
X62326919Y-29875082D01*
X62389916Y-29926782D01*
X63888505Y-31425371D01*
X63957900Y-31592905D01*
X64062867Y-31750000D01*
X63957900Y-31907095D01*
X63780790Y-32334676D01*
X63690500Y-32788594D01*
X63690500Y-33251406D01*
X63780790Y-33705324D01*
X63957900Y-34132905D01*
X64062867Y-34290000D01*
X63957900Y-34447095D01*
X63780790Y-34874676D01*
X63690500Y-35328594D01*
X63690500Y-35791406D01*
X63780790Y-36245324D01*
X63870246Y-36461290D01*
X63790596Y-36610305D01*
X63710714Y-36873640D01*
X63683741Y-37147500D01*
X63683741Y-39052500D01*
X63710714Y-39326360D01*
X63790596Y-39589695D01*
X63920317Y-39832387D01*
X64094892Y-40045108D01*
X64145576Y-40086703D01*
X63991140Y-40101914D01*
X63727805Y-40181796D01*
X63485113Y-40311517D01*
X63272392Y-40486092D01*
X63097817Y-40698813D01*
X62968096Y-40941505D01*
X62888214Y-41204840D01*
X62861241Y-41478700D01*
X62861241Y-42978000D01*
X48898759Y-42978000D01*
X48898759Y-41478700D01*
X48871786Y-41204840D01*
X48791904Y-40941505D01*
X48662183Y-40698813D01*
X48487608Y-40486092D01*
X48274887Y-40311517D01*
X48032195Y-40181796D01*
X47768860Y-40101914D01*
X47495000Y-40074941D01*
X44065000Y-40074941D01*
X43791140Y-40101914D01*
X43561000Y-40171726D01*
X43330860Y-40101914D01*
X43057000Y-40074941D01*
X39627000Y-40074941D01*
X39353140Y-40101914D01*
X39089805Y-40181796D01*
X38847113Y-40311517D01*
X38634392Y-40486092D01*
X38459817Y-40698813D01*
X38330096Y-40941505D01*
X38250214Y-41204840D01*
X38223241Y-41478700D01*
X38223241Y-42978000D01*
X24260759Y-42978000D01*
X24260759Y-41478700D01*
X24233786Y-41204840D01*
X24153904Y-40941505D01*
X24024183Y-40698813D01*
X23849608Y-40486092D01*
X23636887Y-40311517D01*
X23394195Y-40181796D01*
X23130860Y-40101914D01*
X22857000Y-40074941D01*
X19427000Y-40074941D01*
X19153140Y-40101914D01*
X18953000Y-40162626D01*
X18752860Y-40101914D01*
X18479000Y-40074941D01*
X15049000Y-40074941D01*
X14775140Y-40101914D01*
X14511805Y-40181796D01*
X14269113Y-40311517D01*
X14056392Y-40486092D01*
X13881817Y-40698813D01*
X13752096Y-40941505D01*
X13672214Y-41204840D01*
X13645241Y-41478700D01*
X13645241Y-42978000D01*
X5718759Y-42978000D01*
X5718759Y-41478700D01*
X5691786Y-41204840D01*
X5611904Y-40941505D01*
X5482183Y-40698813D01*
X5307608Y-40486092D01*
X5094887Y-40311517D01*
X4852195Y-40181796D01*
X4588860Y-40101914D01*
X4315000Y-40074941D01*
X1472000Y-40074941D01*
X1472000Y-38290500D01*
X6926928Y-38290500D01*
X6939188Y-38414982D01*
X6975498Y-38534680D01*
X7034463Y-38644994D01*
X7113815Y-38741685D01*
X7210506Y-38821037D01*
X7320820Y-38880002D01*
X7440518Y-38916312D01*
X7565000Y-38928572D01*
X7787250Y-38925500D01*
X7946000Y-38766750D01*
X7946000Y-37084000D01*
X7088750Y-37084000D01*
X6930000Y-37242750D01*
X6926928Y-38290500D01*
X1472000Y-38290500D01*
X1472000Y-35369500D01*
X6926928Y-35369500D01*
X6930000Y-36417250D01*
X7088750Y-36576000D01*
X7946000Y-36576000D01*
X7946000Y-34893250D01*
X8454000Y-34893250D01*
X8454000Y-36576000D01*
X8474000Y-36576000D01*
X8474000Y-37084000D01*
X8454000Y-37084000D01*
X8454000Y-38766750D01*
X8612750Y-38925500D01*
X8835000Y-38928572D01*
X8959482Y-38916312D01*
X9079180Y-38880002D01*
X9189494Y-38821037D01*
X9250811Y-38770715D01*
X9268096Y-38827695D01*
X9397817Y-39070387D01*
X9572392Y-39283108D01*
X9785113Y-39457683D01*
X10027805Y-39587404D01*
X10291140Y-39667286D01*
X10565000Y-39694259D01*
X11835000Y-39694259D01*
X12108860Y-39667286D01*
X12372195Y-39587404D01*
X12614887Y-39457683D01*
X12827608Y-39283108D01*
X13002183Y-39070387D01*
X13131904Y-38827695D01*
X13211786Y-38564360D01*
X13238759Y-38290500D01*
X13238759Y-35369500D01*
X13232000Y-35300875D01*
X13232000Y-35048263D01*
X13314372Y-34924984D01*
X13496269Y-34485846D01*
X13589000Y-34019660D01*
X13589000Y-33544340D01*
X13496269Y-33078154D01*
X13314372Y-32639016D01*
X13050299Y-32243802D01*
X12714198Y-31907701D01*
X12318984Y-31643628D01*
X11879846Y-31461731D01*
X11413660Y-31369000D01*
X10938340Y-31369000D01*
X10472154Y-31461731D01*
X10033016Y-31643628D01*
X9637802Y-31907701D01*
X9301701Y-32243802D01*
X9037628Y-32639016D01*
X8855731Y-33078154D01*
X8763000Y-33544340D01*
X8763000Y-34019660D01*
X8855731Y-34485846D01*
X8962971Y-34744746D01*
X8959482Y-34743688D01*
X8835000Y-34731428D01*
X8612750Y-34734500D01*
X8454000Y-34893250D01*
X7946000Y-34893250D01*
X7787250Y-34734500D01*
X7565000Y-34731428D01*
X7440518Y-34743688D01*
X7320820Y-34779998D01*
X7210506Y-34838963D01*
X7113815Y-34918315D01*
X7034463Y-35015006D01*
X6975498Y-35125320D01*
X6939188Y-35245018D01*
X6926928Y-35369500D01*
X1472000Y-35369500D01*
X1472000Y-26979197D01*
X1587500Y-26990572D01*
X2127250Y-26987500D01*
X2286000Y-26828750D01*
X2286000Y-25654000D01*
X2266000Y-25654000D01*
X2266000Y-25168594D01*
X2730500Y-25168594D01*
X2730500Y-25631406D01*
X2794000Y-25950642D01*
X2794000Y-26828750D01*
X2952750Y-26987500D01*
X3347049Y-26989744D01*
X3582281Y-27224976D01*
X3967095Y-27482100D01*
X4394676Y-27659210D01*
X4848594Y-27749500D01*
X5311406Y-27749500D01*
X5765324Y-27659210D01*
X6192905Y-27482100D01*
X6350000Y-27377133D01*
X6507095Y-27482100D01*
X6934676Y-27659210D01*
X7388594Y-27749500D01*
X7851406Y-27749500D01*
X8305324Y-27659210D01*
X8732905Y-27482100D01*
X8890000Y-27377133D01*
X9047095Y-27482100D01*
X9474676Y-27659210D01*
X9928594Y-27749500D01*
X10391406Y-27749500D01*
X10845324Y-27659210D01*
X11272905Y-27482100D01*
X11430000Y-27377133D01*
X11587095Y-27482100D01*
X12014676Y-27659210D01*
X12468594Y-27749500D01*
X12931406Y-27749500D01*
X13385324Y-27659210D01*
X13812905Y-27482100D01*
X13970000Y-27377133D01*
X14127095Y-27482100D01*
X14554676Y-27659210D01*
X15008594Y-27749500D01*
X15471406Y-27749500D01*
X15925324Y-27659210D01*
X16352905Y-27482100D01*
X16510000Y-27377133D01*
X16667095Y-27482100D01*
X17094676Y-27659210D01*
X17548594Y-27749500D01*
X18011406Y-27749500D01*
X18465324Y-27659210D01*
X18892905Y-27482100D01*
X19050000Y-27377133D01*
X19207095Y-27482100D01*
X19634676Y-27659210D01*
X20088594Y-27749500D01*
X20551406Y-27749500D01*
X21005324Y-27659210D01*
X21432905Y-27482100D01*
X21590000Y-27377133D01*
X21747095Y-27482100D01*
X22174676Y-27659210D01*
X22628594Y-27749500D01*
X23091406Y-27749500D01*
X23545324Y-27659210D01*
X23972905Y-27482100D01*
X24130000Y-27377133D01*
X24287095Y-27482100D01*
X24714676Y-27659210D01*
X25168594Y-27749500D01*
X25631406Y-27749500D01*
X26085324Y-27659210D01*
X26512905Y-27482100D01*
X26670000Y-27377133D01*
X26827095Y-27482100D01*
X27254676Y-27659210D01*
X27708594Y-27749500D01*
X28171406Y-27749500D01*
X28625324Y-27659210D01*
X29052905Y-27482100D01*
X29210000Y-27377133D01*
X29367095Y-27482100D01*
X29794676Y-27659210D01*
X30248594Y-27749500D01*
X30711406Y-27749500D01*
X31165324Y-27659210D01*
X31592905Y-27482100D01*
X31750000Y-27377133D01*
X31907095Y-27482100D01*
X32334676Y-27659210D01*
X32788594Y-27749500D01*
X33251406Y-27749500D01*
X33705324Y-27659210D01*
X34132905Y-27482100D01*
X34290000Y-27377133D01*
X34447095Y-27482100D01*
X34874676Y-27659210D01*
X35216025Y-27727109D01*
X32590134Y-30353000D01*
X30815103Y-30353000D01*
X30734000Y-30345012D01*
X30410347Y-30376889D01*
X30099132Y-30471295D01*
X29958670Y-30546374D01*
X29812316Y-30624602D01*
X29560918Y-30830918D01*
X29509213Y-30893921D01*
X26437393Y-33965741D01*
X26107000Y-33965741D01*
X25833140Y-33992714D01*
X25569805Y-34072596D01*
X25327113Y-34202317D01*
X25114392Y-34376892D01*
X24939817Y-34589613D01*
X24810096Y-34832305D01*
X24730214Y-35095640D01*
X24703241Y-35369500D01*
X24703241Y-38290500D01*
X24730214Y-38564360D01*
X24810096Y-38827695D01*
X24939817Y-39070387D01*
X25114392Y-39283108D01*
X25327113Y-39457683D01*
X25569805Y-39587404D01*
X25833140Y-39667286D01*
X26107000Y-39694259D01*
X27377000Y-39694259D01*
X27650860Y-39667286D01*
X27914195Y-39587404D01*
X28156887Y-39457683D01*
X28242000Y-39387833D01*
X28327113Y-39457683D01*
X28569805Y-39587404D01*
X28833140Y-39667286D01*
X29107000Y-39694259D01*
X30377000Y-39694259D01*
X30650860Y-39667286D01*
X30914195Y-39587404D01*
X31156887Y-39457683D01*
X31242000Y-39387833D01*
X31327113Y-39457683D01*
X31569805Y-39587404D01*
X31833140Y-39667286D01*
X32107000Y-39694259D01*
X33377000Y-39694259D01*
X33650860Y-39667286D01*
X33914195Y-39587404D01*
X34156887Y-39457683D01*
X34242000Y-39387833D01*
X34327113Y-39457683D01*
X34569805Y-39587404D01*
X34833140Y-39667286D01*
X35107000Y-39694259D01*
X36377000Y-39694259D01*
X36650860Y-39667286D01*
X36914195Y-39587404D01*
X37156887Y-39457683D01*
X37369608Y-39283108D01*
X37544183Y-39070387D01*
X37673904Y-38827695D01*
X37753786Y-38564360D01*
X37780759Y-38290500D01*
X37780759Y-35369500D01*
X37753786Y-35095640D01*
X37673904Y-34832305D01*
X37561972Y-34622894D01*
X39406709Y-32778157D01*
X39459811Y-32906356D01*
X39668290Y-33218366D01*
X39933634Y-33483710D01*
X40245644Y-33692189D01*
X40592332Y-33835791D01*
X40960374Y-33909000D01*
X41335626Y-33909000D01*
X41703668Y-33835791D01*
X41855622Y-33772850D01*
X41872181Y-33825119D01*
X41932495Y-33934701D01*
X42013029Y-34030411D01*
X42110687Y-34108570D01*
X42221717Y-34166175D01*
X42341851Y-34201013D01*
X42466474Y-34211744D01*
X43021250Y-34208720D01*
X43180000Y-34049970D01*
X43180000Y-33707479D01*
X43688000Y-33707479D01*
X43688000Y-34049970D01*
X43846750Y-34208720D01*
X44401526Y-34211744D01*
X44526149Y-34201013D01*
X44646283Y-34166175D01*
X44757313Y-34108570D01*
X44854971Y-34030411D01*
X44935505Y-33934701D01*
X44995819Y-33825119D01*
X45033596Y-33705876D01*
X45044360Y-33605470D01*
X45007134Y-33568244D01*
X45189247Y-33470903D01*
X45401968Y-33296328D01*
X45574272Y-33086374D01*
X47117000Y-33086374D01*
X47117000Y-33461626D01*
X47190209Y-33829668D01*
X47333811Y-34176356D01*
X47542290Y-34488366D01*
X47807634Y-34753710D01*
X48119644Y-34962189D01*
X48466332Y-35105791D01*
X48834374Y-35179000D01*
X49209626Y-35179000D01*
X49363009Y-35148490D01*
X49341241Y-35369500D01*
X49341241Y-38290500D01*
X49368214Y-38564360D01*
X49448096Y-38827695D01*
X49577817Y-39070387D01*
X49752392Y-39283108D01*
X49965113Y-39457683D01*
X50189152Y-39577434D01*
X50206918Y-39599082D01*
X50269921Y-39650787D01*
X50479150Y-39860015D01*
X50492209Y-39925668D01*
X50635811Y-40272356D01*
X50844290Y-40584366D01*
X51109634Y-40849710D01*
X51421644Y-41058189D01*
X51768332Y-41201791D01*
X52136374Y-41275000D01*
X52511626Y-41275000D01*
X52879668Y-41201791D01*
X53226356Y-41058189D01*
X53538366Y-40849710D01*
X53803710Y-40584366D01*
X54012189Y-40272356D01*
X54155791Y-39925668D01*
X54201822Y-39694259D01*
X55015000Y-39694259D01*
X55288860Y-39667286D01*
X55552195Y-39587404D01*
X55794887Y-39457683D01*
X55880000Y-39387833D01*
X55965113Y-39457683D01*
X56207805Y-39587404D01*
X56471140Y-39667286D01*
X56745000Y-39694259D01*
X58015000Y-39694259D01*
X58288860Y-39667286D01*
X58552195Y-39587404D01*
X58794887Y-39457683D01*
X58880000Y-39387833D01*
X58965113Y-39457683D01*
X59207805Y-39587404D01*
X59471140Y-39667286D01*
X59745000Y-39694259D01*
X61015000Y-39694259D01*
X61288860Y-39667286D01*
X61552195Y-39587404D01*
X61794887Y-39457683D01*
X62007608Y-39283108D01*
X62182183Y-39070387D01*
X62311904Y-38827695D01*
X62391786Y-38564360D01*
X62418759Y-38290500D01*
X62418759Y-35369500D01*
X62391786Y-35095640D01*
X62311904Y-34832305D01*
X62182183Y-34589613D01*
X62007608Y-34376892D01*
X61794887Y-34202317D01*
X61552195Y-34072596D01*
X61288860Y-33992714D01*
X61015000Y-33965741D01*
X60833000Y-33965741D01*
X60833000Y-27259101D01*
X60840988Y-27178000D01*
X60833000Y-27096896D01*
X60809111Y-26854347D01*
X60714705Y-26543133D01*
X60561398Y-26256316D01*
X60355082Y-26004918D01*
X60292085Y-25953218D01*
X56612739Y-22273873D01*
X56806189Y-21984356D01*
X56949791Y-21637668D01*
X57023000Y-21269626D01*
X57023000Y-20894374D01*
X56949791Y-20526332D01*
X56806189Y-20179644D01*
X56597710Y-19867634D01*
X56332366Y-19602290D01*
X56020356Y-19393811D01*
X55673668Y-19250209D01*
X55305626Y-19177000D01*
X54930374Y-19177000D01*
X54562332Y-19250209D01*
X54215644Y-19393811D01*
X53903634Y-19602290D01*
X53638290Y-19867634D01*
X53455952Y-20140521D01*
X52367180Y-20140521D01*
X52093320Y-20167494D01*
X51829985Y-20247376D01*
X51587293Y-20377097D01*
X51374572Y-20551672D01*
X51199997Y-20764393D01*
X51085053Y-20979438D01*
X50964189Y-20687644D01*
X50755710Y-20375634D01*
X50490366Y-20110290D01*
X50178356Y-19901811D01*
X49831668Y-19758209D01*
X49463626Y-19685000D01*
X49088374Y-19685000D01*
X48720332Y-19758209D01*
X48373644Y-19901811D01*
X48061634Y-20110290D01*
X47796290Y-20375634D01*
X47587811Y-20687644D01*
X47444209Y-21034332D01*
X47371000Y-21402374D01*
X47371000Y-21777626D01*
X47444209Y-22145668D01*
X47587811Y-22492356D01*
X47625000Y-22548014D01*
X47625001Y-24556890D01*
X47617012Y-24638000D01*
X47645896Y-24931259D01*
X47648890Y-24961653D01*
X47732055Y-25235811D01*
X47743296Y-25272867D01*
X47896602Y-25559683D01*
X48019663Y-25709634D01*
X48102919Y-25811082D01*
X48165916Y-25862782D01*
X50108064Y-27804931D01*
X49839634Y-27984290D01*
X49574290Y-28249634D01*
X49365811Y-28561644D01*
X49222209Y-28908332D01*
X49149000Y-29276374D01*
X49149000Y-29651626D01*
X49222209Y-30019668D01*
X49365811Y-30366356D01*
X49574290Y-30678366D01*
X49839634Y-30943710D01*
X50151644Y-31152189D01*
X50498332Y-31295791D01*
X50866374Y-31369000D01*
X51009026Y-31369000D01*
X51070276Y-31570915D01*
X51098116Y-31623000D01*
X49980013Y-31623000D01*
X49924356Y-31585811D01*
X49577668Y-31442209D01*
X49209626Y-31369000D01*
X48834374Y-31369000D01*
X48466332Y-31442209D01*
X48119644Y-31585811D01*
X47807634Y-31794290D01*
X47542290Y-32059634D01*
X47333811Y-32371644D01*
X47190209Y-32718332D01*
X47117000Y-33086374D01*
X45574272Y-33086374D01*
X45576543Y-33083607D01*
X45706264Y-32840915D01*
X45786146Y-32577580D01*
X45813119Y-32303720D01*
X45813119Y-31704280D01*
X45786146Y-31430420D01*
X45767514Y-31369000D01*
X45786146Y-31307580D01*
X45813119Y-31033720D01*
X45813119Y-30434280D01*
X45786146Y-30160420D01*
X45767514Y-30099000D01*
X45786146Y-30037580D01*
X45813119Y-29763720D01*
X45813119Y-29164280D01*
X45786146Y-28890420D01*
X45767514Y-28829000D01*
X45786146Y-28767580D01*
X45813119Y-28493720D01*
X45813119Y-27894280D01*
X45786146Y-27620420D01*
X45767514Y-27559000D01*
X45786146Y-27497580D01*
X45813119Y-27223720D01*
X45813119Y-26624280D01*
X45786146Y-26350420D01*
X45767514Y-26289000D01*
X45786146Y-26227580D01*
X45813119Y-25953720D01*
X45813119Y-25354280D01*
X45786146Y-25080420D01*
X45767514Y-25019000D01*
X45786146Y-24957580D01*
X45813119Y-24683720D01*
X45813119Y-24084280D01*
X45786146Y-23810420D01*
X45767514Y-23749000D01*
X45786146Y-23687580D01*
X45813119Y-23413720D01*
X45813119Y-22814280D01*
X45786146Y-22540420D01*
X45706264Y-22277085D01*
X45576543Y-22034393D01*
X45401968Y-21821672D01*
X45189247Y-21647097D01*
X45007134Y-21549756D01*
X45044360Y-21512530D01*
X45033596Y-21412124D01*
X44995819Y-21292881D01*
X44935505Y-21183299D01*
X44854971Y-21087589D01*
X44757313Y-21009430D01*
X44646283Y-20951825D01*
X44526149Y-20916987D01*
X44401526Y-20906256D01*
X43846750Y-20909280D01*
X43688000Y-21068030D01*
X43688000Y-21410521D01*
X43180000Y-21410521D01*
X43180000Y-21068030D01*
X43021250Y-20909280D01*
X42466474Y-20906256D01*
X42341851Y-20916987D01*
X42221717Y-20951825D01*
X42110687Y-21009430D01*
X42013029Y-21087589D01*
X41932495Y-21183299D01*
X41872181Y-21292881D01*
X41834404Y-21412124D01*
X41828950Y-21463000D01*
X39959100Y-21463000D01*
X39877999Y-21455012D01*
X39796898Y-21463000D01*
X39796896Y-21463000D01*
X39554347Y-21486889D01*
X39243133Y-21581295D01*
X39137667Y-21637668D01*
X38956315Y-21734602D01*
X38778638Y-21880417D01*
X38704918Y-21940918D01*
X38653217Y-22003916D01*
X37497920Y-23159214D01*
X37434918Y-23210918D01*
X37228602Y-23462317D01*
X37129820Y-23647125D01*
X37057719Y-23575024D01*
X36672905Y-23317900D01*
X36245324Y-23140790D01*
X35791406Y-23050500D01*
X35328594Y-23050500D01*
X34874676Y-23140790D01*
X34447095Y-23317900D01*
X34290000Y-23422867D01*
X34132905Y-23317900D01*
X33705324Y-23140790D01*
X33251406Y-23050500D01*
X32788594Y-23050500D01*
X32334676Y-23140790D01*
X31907095Y-23317900D01*
X31750000Y-23422867D01*
X31592905Y-23317900D01*
X31165324Y-23140790D01*
X30711406Y-23050500D01*
X30248594Y-23050500D01*
X29794676Y-23140790D01*
X29367095Y-23317900D01*
X29210000Y-23422867D01*
X29052905Y-23317900D01*
X28625324Y-23140790D01*
X28171406Y-23050500D01*
X27708594Y-23050500D01*
X27254676Y-23140790D01*
X26827095Y-23317900D01*
X26670000Y-23422867D01*
X26512905Y-23317900D01*
X26085324Y-23140790D01*
X25631406Y-23050500D01*
X25168594Y-23050500D01*
X24714676Y-23140790D01*
X24287095Y-23317900D01*
X24130000Y-23422867D01*
X23972905Y-23317900D01*
X23545324Y-23140790D01*
X23091406Y-23050500D01*
X22628594Y-23050500D01*
X22174676Y-23140790D01*
X21747095Y-23317900D01*
X21590000Y-23422867D01*
X21432905Y-23317900D01*
X21005324Y-23140790D01*
X20551406Y-23050500D01*
X20088594Y-23050500D01*
X19634676Y-23140790D01*
X19207095Y-23317900D01*
X19050000Y-23422867D01*
X18892905Y-23317900D01*
X18465324Y-23140790D01*
X18011406Y-23050500D01*
X17548594Y-23050500D01*
X17094676Y-23140790D01*
X16667095Y-23317900D01*
X16510000Y-23422867D01*
X16352905Y-23317900D01*
X15925324Y-23140790D01*
X15471406Y-23050500D01*
X15008594Y-23050500D01*
X14554676Y-23140790D01*
X14127095Y-23317900D01*
X13970000Y-23422867D01*
X13812905Y-23317900D01*
X13385324Y-23140790D01*
X12931406Y-23050500D01*
X12468594Y-23050500D01*
X12014676Y-23140790D01*
X11587095Y-23317900D01*
X11430000Y-23422867D01*
X11272905Y-23317900D01*
X10845324Y-23140790D01*
X10391406Y-23050500D01*
X9928594Y-23050500D01*
X9474676Y-23140790D01*
X9047095Y-23317900D01*
X8890000Y-23422867D01*
X8732905Y-23317900D01*
X8305324Y-23140790D01*
X7851406Y-23050500D01*
X7388594Y-23050500D01*
X6934676Y-23140790D01*
X6507095Y-23317900D01*
X6350000Y-23422867D01*
X6192905Y-23317900D01*
X5765324Y-23140790D01*
X5311406Y-23050500D01*
X4848594Y-23050500D01*
X4394676Y-23140790D01*
X3967095Y-23317900D01*
X3582281Y-23575024D01*
X3347049Y-23810256D01*
X2952750Y-23812500D01*
X2794000Y-23971250D01*
X2794000Y-24849358D01*
X2730500Y-25168594D01*
X2266000Y-25168594D01*
X2266000Y-25146000D01*
X2286000Y-25146000D01*
X2286000Y-23971250D01*
X2127250Y-23812500D01*
X1587500Y-23809428D01*
X1472000Y-23820803D01*
X1472000Y-12260700D01*
X1854676Y-12419210D01*
X2308594Y-12509500D01*
X2771406Y-12509500D01*
X3225324Y-12419210D01*
X3652905Y-12242100D01*
X3810000Y-12137133D01*
X3967095Y-12242100D01*
X4394676Y-12419210D01*
X4848594Y-12509500D01*
X5311406Y-12509500D01*
X5765324Y-12419210D01*
X6192905Y-12242100D01*
X6350000Y-12137133D01*
X6507095Y-12242100D01*
X6934676Y-12419210D01*
X7388594Y-12509500D01*
X7851406Y-12509500D01*
X8305324Y-12419210D01*
X8732905Y-12242100D01*
X8890000Y-12137133D01*
X9047095Y-12242100D01*
X9474676Y-12419210D01*
X9928594Y-12509500D01*
X10391406Y-12509500D01*
X10845324Y-12419210D01*
X11272905Y-12242100D01*
X11430000Y-12137133D01*
X11587095Y-12242100D01*
X12014676Y-12419210D01*
X12468594Y-12509500D01*
X12931406Y-12509500D01*
X13385324Y-12419210D01*
X13812905Y-12242100D01*
X13970000Y-12137133D01*
X14127095Y-12242100D01*
X14554676Y-12419210D01*
X15008594Y-12509500D01*
X15471406Y-12509500D01*
X15925324Y-12419210D01*
X16352905Y-12242100D01*
X16510000Y-12137133D01*
X16667095Y-12242100D01*
X17094676Y-12419210D01*
X17548594Y-12509500D01*
X18011406Y-12509500D01*
X18465324Y-12419210D01*
X18892905Y-12242100D01*
X19050000Y-12137133D01*
X19207095Y-12242100D01*
X19579504Y-12396357D01*
X19551657Y-12419210D01*
X19400918Y-12542918D01*
X19349218Y-12605915D01*
X16781984Y-15173150D01*
X16716332Y-15186209D01*
X16369644Y-15329811D01*
X16057634Y-15538290D01*
X15792290Y-15803634D01*
X15583811Y-16115644D01*
X15440209Y-16462332D01*
X15367000Y-16830374D01*
X15367000Y-17205626D01*
X15440209Y-17573668D01*
X15583811Y-17920356D01*
X15792290Y-18232366D01*
X16057634Y-18497710D01*
X16369644Y-18706189D01*
X16716332Y-18849791D01*
X17084374Y-18923000D01*
X17459626Y-18923000D01*
X17827668Y-18849791D01*
X18174356Y-18706189D01*
X18486366Y-18497710D01*
X18751710Y-18232366D01*
X18960189Y-17920356D01*
X19103791Y-17573668D01*
X19116850Y-17508016D01*
X21257867Y-15367000D01*
X27489987Y-15367000D01*
X27545644Y-15404189D01*
X27892332Y-15547791D01*
X28260374Y-15621000D01*
X28635626Y-15621000D01*
X29003668Y-15547791D01*
X29350356Y-15404189D01*
X29662366Y-15195710D01*
X29927710Y-14930366D01*
X30136189Y-14618356D01*
X30279791Y-14271668D01*
X30353000Y-13903626D01*
X30353000Y-13528374D01*
X30279791Y-13160332D01*
X30136189Y-12813644D01*
X29927710Y-12501634D01*
X29857853Y-12431777D01*
X30248594Y-12509500D01*
X30711406Y-12509500D01*
X31165324Y-12419210D01*
X31592905Y-12242100D01*
X31750000Y-12137133D01*
X31907095Y-12242100D01*
X32334676Y-12419210D01*
X32788594Y-12509500D01*
X33251406Y-12509500D01*
X33705324Y-12419210D01*
X34132905Y-12242100D01*
X34290000Y-12137133D01*
X34447095Y-12242100D01*
X34874676Y-12419210D01*
X35328594Y-12509500D01*
X35791406Y-12509500D01*
X36245324Y-12419210D01*
X36672905Y-12242100D01*
X37028687Y-12004374D01*
X42545000Y-12004374D01*
X42545000Y-12379626D01*
X42618209Y-12747668D01*
X42761811Y-13094356D01*
X42970290Y-13406366D01*
X43235634Y-13671710D01*
X43547644Y-13880189D01*
X43894332Y-14023791D01*
X44262374Y-14097000D01*
X44637626Y-14097000D01*
X45005668Y-14023791D01*
X45352356Y-13880189D01*
X45664366Y-13671710D01*
X45929710Y-13406366D01*
X46138189Y-13094356D01*
X46281791Y-12747668D01*
X46294850Y-12682016D01*
X46464492Y-12512374D01*
X54737000Y-12512374D01*
X54737000Y-12887626D01*
X54810209Y-13255668D01*
X54953811Y-13602356D01*
X55162290Y-13914366D01*
X55427634Y-14179710D01*
X55739644Y-14388189D01*
X56086332Y-14531791D01*
X56454374Y-14605000D01*
X56829626Y-14605000D01*
X57197668Y-14531791D01*
X57544356Y-14388189D01*
X57856366Y-14179710D01*
X58121710Y-13914366D01*
X58330189Y-13602356D01*
X58473791Y-13255668D01*
X58486850Y-13190016D01*
X60292084Y-11384782D01*
X60355082Y-11333082D01*
X60561208Y-11081916D01*
X60561398Y-11081685D01*
X60687735Y-10845324D01*
X60714705Y-10794867D01*
X60809111Y-10483653D01*
X60833000Y-10241104D01*
X60833000Y-10241102D01*
X60840988Y-10160001D01*
X60833000Y-10078900D01*
X60833000Y-8693892D01*
X60957652Y-8569240D01*
X61207827Y-8194827D01*
X61380150Y-7778802D01*
X61468000Y-7337151D01*
X61468000Y-6886849D01*
X61380150Y-6445198D01*
X61207827Y-6029173D01*
X60957652Y-5654760D01*
X60639240Y-5336348D01*
X60264827Y-5086173D01*
X59848802Y-4913850D01*
X59407151Y-4826000D01*
X58956849Y-4826000D01*
X58515198Y-4913850D01*
X58099173Y-5086173D01*
X57724760Y-5336348D01*
X57406348Y-5654760D01*
X57156173Y-6029173D01*
X56983850Y-6445198D01*
X56896000Y-6886849D01*
X56896000Y-7337151D01*
X56983850Y-7778802D01*
X57156173Y-8194827D01*
X57406348Y-8569240D01*
X57531001Y-8693893D01*
X57531001Y-9476132D01*
X56151984Y-10855150D01*
X56086332Y-10868209D01*
X55739644Y-11011811D01*
X55427634Y-11220290D01*
X55162290Y-11485634D01*
X54953811Y-11797644D01*
X54810209Y-12144332D01*
X54737000Y-12512374D01*
X46464492Y-12512374D01*
X47592084Y-11384783D01*
X47655082Y-11333082D01*
X47861398Y-11081684D01*
X48014705Y-10794867D01*
X48109111Y-10483653D01*
X48133000Y-10241104D01*
X48133000Y-10241101D01*
X48140988Y-10160000D01*
X48133000Y-10078899D01*
X48133000Y-8693892D01*
X48257652Y-8569240D01*
X48507827Y-8194827D01*
X48680150Y-7778802D01*
X48768000Y-7337151D01*
X48768000Y-6886849D01*
X51054000Y-6886849D01*
X51054000Y-7337151D01*
X51141850Y-7778802D01*
X51314173Y-8194827D01*
X51564348Y-8569240D01*
X51882760Y-8887652D01*
X52257173Y-9137827D01*
X52673198Y-9310150D01*
X53114849Y-9398000D01*
X53565151Y-9398000D01*
X54006802Y-9310150D01*
X54422827Y-9137827D01*
X54797240Y-8887652D01*
X55115652Y-8569240D01*
X55365827Y-8194827D01*
X55538150Y-7778802D01*
X55626000Y-7337151D01*
X55626000Y-6886849D01*
X55538150Y-6445198D01*
X55365827Y-6029173D01*
X55115652Y-5654760D01*
X54797240Y-5336348D01*
X54422827Y-5086173D01*
X54006802Y-4913850D01*
X53565151Y-4826000D01*
X53114849Y-4826000D01*
X52673198Y-4913850D01*
X52257173Y-5086173D01*
X51882760Y-5336348D01*
X51564348Y-5654760D01*
X51314173Y-6029173D01*
X51141850Y-6445198D01*
X51054000Y-6886849D01*
X48768000Y-6886849D01*
X48680150Y-6445198D01*
X48507827Y-6029173D01*
X48257652Y-5654760D01*
X47939240Y-5336348D01*
X47564827Y-5086173D01*
X47148802Y-4913850D01*
X46707151Y-4826000D01*
X46256849Y-4826000D01*
X45815198Y-4913850D01*
X45399173Y-5086173D01*
X45024760Y-5336348D01*
X44706348Y-5654760D01*
X44456173Y-6029173D01*
X44283850Y-6445198D01*
X44196000Y-6886849D01*
X44196000Y-7337151D01*
X44283850Y-7778802D01*
X44456173Y-8194827D01*
X44706348Y-8569240D01*
X44831001Y-8693893D01*
X44831001Y-9476132D01*
X43959984Y-10347150D01*
X43894332Y-10360209D01*
X43547644Y-10503811D01*
X43235634Y-10712290D01*
X42970290Y-10977634D01*
X42761811Y-11289644D01*
X42618209Y-11636332D01*
X42545000Y-12004374D01*
X37028687Y-12004374D01*
X37057719Y-11984976D01*
X37384976Y-11657719D01*
X37642100Y-11272905D01*
X37819210Y-10845324D01*
X37909500Y-10391406D01*
X37909500Y-9928594D01*
X37819210Y-9474676D01*
X37642100Y-9047095D01*
X37384976Y-8662281D01*
X37057719Y-8335024D01*
X36672905Y-8077900D01*
X36245324Y-7900790D01*
X35953652Y-7842773D01*
X35980150Y-7778802D01*
X36068000Y-7337151D01*
X36068000Y-6886849D01*
X38354000Y-6886849D01*
X38354000Y-7337151D01*
X38441850Y-7778802D01*
X38614173Y-8194827D01*
X38864348Y-8569240D01*
X39182760Y-8887652D01*
X39557173Y-9137827D01*
X39973198Y-9310150D01*
X40414849Y-9398000D01*
X40865151Y-9398000D01*
X41306802Y-9310150D01*
X41722827Y-9137827D01*
X42097240Y-8887652D01*
X42415652Y-8569240D01*
X42665827Y-8194827D01*
X42838150Y-7778802D01*
X42926000Y-7337151D01*
X42926000Y-6886849D01*
X42838150Y-6445198D01*
X42665827Y-6029173D01*
X42415652Y-5654760D01*
X42097240Y-5336348D01*
X41722827Y-5086173D01*
X41306802Y-4913850D01*
X40865151Y-4826000D01*
X40414849Y-4826000D01*
X39973198Y-4913850D01*
X39557173Y-5086173D01*
X39182760Y-5336348D01*
X38864348Y-5654760D01*
X38614173Y-6029173D01*
X38441850Y-6445198D01*
X38354000Y-6886849D01*
X36068000Y-6886849D01*
X35980150Y-6445198D01*
X35807827Y-6029173D01*
X35557652Y-5654760D01*
X35239240Y-5336348D01*
X34864827Y-5086173D01*
X34448802Y-4913850D01*
X34007151Y-4826000D01*
X33556849Y-4826000D01*
X33115198Y-4913850D01*
X32699173Y-5086173D01*
X32324760Y-5336348D01*
X32006348Y-5654760D01*
X31756173Y-6029173D01*
X31583850Y-6445198D01*
X31496000Y-6886849D01*
X31496000Y-7337151D01*
X31583850Y-7778802D01*
X31750955Y-8182229D01*
X31750000Y-8182867D01*
X31592905Y-8077900D01*
X31165324Y-7900790D01*
X30711406Y-7810500D01*
X30248594Y-7810500D01*
X30113925Y-7837287D01*
X30138150Y-7778802D01*
X30226000Y-7337151D01*
X30226000Y-6886849D01*
X30138150Y-6445198D01*
X29965827Y-6029173D01*
X29715652Y-5654760D01*
X29397240Y-5336348D01*
X29022827Y-5086173D01*
X28606802Y-4913850D01*
X28165151Y-4826000D01*
X27714849Y-4826000D01*
X27273198Y-4913850D01*
X26857173Y-5086173D01*
X26482760Y-5336348D01*
X26164348Y-5654760D01*
X25914173Y-6029173D01*
X25741850Y-6445198D01*
X25654000Y-6886849D01*
X25654000Y-7337151D01*
X25741850Y-7778802D01*
X25766075Y-7837287D01*
X25631406Y-7810500D01*
X25168594Y-7810500D01*
X24714676Y-7900790D01*
X24287095Y-8077900D01*
X24130000Y-8182867D01*
X23972905Y-8077900D01*
X23545324Y-7900790D01*
X23253652Y-7842773D01*
X23280150Y-7778802D01*
X23368000Y-7337151D01*
X23368000Y-6886849D01*
X23280150Y-6445198D01*
X23107827Y-6029173D01*
X22857652Y-5654760D01*
X22539240Y-5336348D01*
X22164827Y-5086173D01*
X21748802Y-4913850D01*
X21307151Y-4826000D01*
X20856849Y-4826000D01*
X20415198Y-4913850D01*
X19999173Y-5086173D01*
X19624760Y-5336348D01*
X19306348Y-5654760D01*
X19056173Y-6029173D01*
X18883850Y-6445198D01*
X18796000Y-6886849D01*
X18796000Y-7337151D01*
X18883850Y-7778802D01*
X19050955Y-8182229D01*
X19050000Y-8182867D01*
X18892905Y-8077900D01*
X18465324Y-7900790D01*
X18011406Y-7810500D01*
X17548594Y-7810500D01*
X17094676Y-7900790D01*
X16667095Y-8077900D01*
X16510000Y-8182867D01*
X16352905Y-8077900D01*
X15925324Y-7900790D01*
X15471406Y-7810500D01*
X15008594Y-7810500D01*
X14554676Y-7900790D01*
X14127095Y-8077900D01*
X13970000Y-8182867D01*
X13812905Y-8077900D01*
X13385324Y-7900790D01*
X12931406Y-7810500D01*
X12468594Y-7810500D01*
X12014676Y-7900790D01*
X11587095Y-8077900D01*
X11430000Y-8182867D01*
X11272905Y-8077900D01*
X10845324Y-7900790D01*
X10391406Y-7810500D01*
X9928594Y-7810500D01*
X9683335Y-7859285D01*
X9758372Y-7746984D01*
X9940269Y-7307846D01*
X10033000Y-6841660D01*
X10033000Y-6366340D01*
X9940269Y-5900154D01*
X9758372Y-5461016D01*
X9494299Y-5065802D01*
X9158198Y-4729701D01*
X8762984Y-4465628D01*
X8323846Y-4283731D01*
X7857660Y-4191000D01*
X7382340Y-4191000D01*
X6916154Y-4283731D01*
X6477016Y-4465628D01*
X6081802Y-4729701D01*
X5745701Y-5065802D01*
X5481628Y-5461016D01*
X5299731Y-5900154D01*
X5207000Y-6366340D01*
X5207000Y-6841660D01*
X5299731Y-7307846D01*
X5481628Y-7746984D01*
X5556665Y-7859285D01*
X5311406Y-7810500D01*
X4848594Y-7810500D01*
X4603335Y-7859285D01*
X4678372Y-7746984D01*
X4860269Y-7307846D01*
X4953000Y-6841660D01*
X4953000Y-6366340D01*
X4860269Y-5900154D01*
X4678372Y-5461016D01*
X4414299Y-5065802D01*
X4078198Y-4729701D01*
X3682984Y-4465628D01*
X3243846Y-4283731D01*
X2777660Y-4191000D01*
X2302340Y-4191000D01*
X1836154Y-4283731D01*
X1472000Y-4434569D01*
X1472000Y-3673434D01*
X20307776Y-3673434D01*
X20399839Y-3911044D01*
X20680424Y-4017782D01*
X20976442Y-4067731D01*
X21276516Y-4058969D01*
X21569115Y-3991834D01*
X21764161Y-3911044D01*
X21856224Y-3673434D01*
X27165776Y-3673434D01*
X27257839Y-3911044D01*
X27538424Y-4017782D01*
X27834442Y-4067731D01*
X28134516Y-4058969D01*
X28427115Y-3991834D01*
X28622161Y-3911044D01*
X28714224Y-3673434D01*
X33007776Y-3673434D01*
X33099839Y-3911044D01*
X33380424Y-4017782D01*
X33676442Y-4067731D01*
X33976516Y-4058969D01*
X34269115Y-3991834D01*
X34464161Y-3911044D01*
X34556224Y-3673434D01*
X39865776Y-3673434D01*
X39957839Y-3911044D01*
X40238424Y-4017782D01*
X40534442Y-4067731D01*
X40834516Y-4058969D01*
X41127115Y-3991834D01*
X41322161Y-3911044D01*
X41414224Y-3673434D01*
X45707776Y-3673434D01*
X45799839Y-3911044D01*
X46080424Y-4017782D01*
X46376442Y-4067731D01*
X46676516Y-4058969D01*
X46969115Y-3991834D01*
X47164161Y-3911044D01*
X47256224Y-3673434D01*
X52565776Y-3673434D01*
X52657839Y-3911044D01*
X52938424Y-4017782D01*
X53234442Y-4067731D01*
X53534516Y-4058969D01*
X53827115Y-3991834D01*
X54022161Y-3911044D01*
X54114224Y-3673434D01*
X58407776Y-3673434D01*
X58499839Y-3911044D01*
X58780424Y-4017782D01*
X59076442Y-4067731D01*
X59376516Y-4058969D01*
X59669115Y-3991834D01*
X59864161Y-3911044D01*
X59956224Y-3673434D01*
X59182000Y-2899210D01*
X58407776Y-3673434D01*
X54114224Y-3673434D01*
X53340000Y-2899210D01*
X52565776Y-3673434D01*
X47256224Y-3673434D01*
X46482000Y-2899210D01*
X45707776Y-3673434D01*
X41414224Y-3673434D01*
X40640000Y-2899210D01*
X39865776Y-3673434D01*
X34556224Y-3673434D01*
X33782000Y-2899210D01*
X33007776Y-3673434D01*
X28714224Y-3673434D01*
X27940000Y-2899210D01*
X27165776Y-3673434D01*
X21856224Y-3673434D01*
X21082000Y-2899210D01*
X20307776Y-3673434D01*
X1472000Y-3673434D01*
X1472000Y-2611996D01*
X1482261Y-2507345D01*
X2507929Y-1481677D01*
X2600000Y-1472000D01*
X19985179Y-1472000D01*
X19819983Y-1637196D01*
G37*
X19819983Y-1637196D02*
X19948564Y-1765777D01*
X19710956Y-1857839D01*
X19604218Y-2138424D01*
X19554269Y-2434442D01*
X19563031Y-2734516D01*
X19630166Y-3027115D01*
X19710956Y-3222161D01*
X19948566Y-3314224D01*
X20722790Y-2540000D01*
X20708648Y-2525858D01*
X21067858Y-2166648D01*
X21082000Y-2180790D01*
X21096143Y-2166648D01*
X21455353Y-2525858D01*
X21441210Y-2540000D01*
X22215434Y-3314224D01*
X22453044Y-3222161D01*
X22559782Y-2941576D01*
X22609731Y-2645558D01*
X22600969Y-2345484D01*
X22533834Y-2052885D01*
X22453044Y-1857839D01*
X22215436Y-1765777D01*
X22344017Y-1637196D01*
X22178821Y-1472000D01*
X26843179Y-1472000D01*
X26677983Y-1637196D01*
X26806564Y-1765777D01*
X26568956Y-1857839D01*
X26462218Y-2138424D01*
X26412269Y-2434442D01*
X26421031Y-2734516D01*
X26488166Y-3027115D01*
X26568956Y-3222161D01*
X26806566Y-3314224D01*
X27580790Y-2540000D01*
X27566648Y-2525858D01*
X27925858Y-2166648D01*
X27940000Y-2180790D01*
X27954143Y-2166648D01*
X28313353Y-2525858D01*
X28299210Y-2540000D01*
X29073434Y-3314224D01*
X29311044Y-3222161D01*
X29417782Y-2941576D01*
X29467731Y-2645558D01*
X29458969Y-2345484D01*
X29391834Y-2052885D01*
X29311044Y-1857839D01*
X29073436Y-1765777D01*
X29202017Y-1637196D01*
X29036821Y-1472000D01*
X32685179Y-1472000D01*
X32519983Y-1637196D01*
X32648564Y-1765777D01*
X32410956Y-1857839D01*
X32304218Y-2138424D01*
X32254269Y-2434442D01*
X32263031Y-2734516D01*
X32330166Y-3027115D01*
X32410956Y-3222161D01*
X32648566Y-3314224D01*
X33422790Y-2540000D01*
X33408648Y-2525858D01*
X33767858Y-2166648D01*
X33782000Y-2180790D01*
X33796143Y-2166648D01*
X34155353Y-2525858D01*
X34141210Y-2540000D01*
X34915434Y-3314224D01*
X35153044Y-3222161D01*
X35259782Y-2941576D01*
X35309731Y-2645558D01*
X35300969Y-2345484D01*
X35233834Y-2052885D01*
X35153044Y-1857839D01*
X34915436Y-1765777D01*
X35044017Y-1637196D01*
X34878821Y-1472000D01*
X39543179Y-1472000D01*
X39377983Y-1637196D01*
X39506564Y-1765777D01*
X39268956Y-1857839D01*
X39162218Y-2138424D01*
X39112269Y-2434442D01*
X39121031Y-2734516D01*
X39188166Y-3027115D01*
X39268956Y-3222161D01*
X39506566Y-3314224D01*
X40280790Y-2540000D01*
X40266648Y-2525858D01*
X40625858Y-2166648D01*
X40640000Y-2180790D01*
X40654143Y-2166648D01*
X41013353Y-2525858D01*
X40999210Y-2540000D01*
X41773434Y-3314224D01*
X42011044Y-3222161D01*
X42117782Y-2941576D01*
X42167731Y-2645558D01*
X42158969Y-2345484D01*
X42091834Y-2052885D01*
X42011044Y-1857839D01*
X41773436Y-1765777D01*
X41902017Y-1637196D01*
X41736821Y-1472000D01*
X45385179Y-1472000D01*
X45219983Y-1637196D01*
X45348564Y-1765777D01*
X45110956Y-1857839D01*
X45004218Y-2138424D01*
X44954269Y-2434442D01*
X44963031Y-2734516D01*
X45030166Y-3027115D01*
X45110956Y-3222161D01*
X45348566Y-3314224D01*
X46122790Y-2540000D01*
X46108648Y-2525858D01*
X46467858Y-2166648D01*
X46482000Y-2180790D01*
X46496143Y-2166648D01*
X46855353Y-2525858D01*
X46841210Y-2540000D01*
X47615434Y-3314224D01*
X47853044Y-3222161D01*
X47959782Y-2941576D01*
X48009731Y-2645558D01*
X48000969Y-2345484D01*
X47933834Y-2052885D01*
X47853044Y-1857839D01*
X47615436Y-1765777D01*
X47744017Y-1637196D01*
X47578821Y-1472000D01*
X52243179Y-1472000D01*
X52077983Y-1637196D01*
X52206564Y-1765777D01*
X51968956Y-1857839D01*
X51862218Y-2138424D01*
X51812269Y-2434442D01*
X51821031Y-2734516D01*
X51888166Y-3027115D01*
X51968956Y-3222161D01*
X52206566Y-3314224D01*
X52980790Y-2540000D01*
X52966648Y-2525858D01*
X53325858Y-2166648D01*
X53340000Y-2180790D01*
X53354143Y-2166648D01*
X53713353Y-2525858D01*
X53699210Y-2540000D01*
X54473434Y-3314224D01*
X54711044Y-3222161D01*
X54817782Y-2941576D01*
X54867731Y-2645558D01*
X54858969Y-2345484D01*
X54791834Y-2052885D01*
X54711044Y-1857839D01*
X54473436Y-1765777D01*
X54602017Y-1637196D01*
X54436821Y-1472000D01*
X58085179Y-1472000D01*
X57919983Y-1637196D01*
X58048564Y-1765777D01*
X57810956Y-1857839D01*
X57704218Y-2138424D01*
X57654269Y-2434442D01*
X57663031Y-2734516D01*
X57730166Y-3027115D01*
X57810956Y-3222161D01*
X58048566Y-3314224D01*
X58822790Y-2540000D01*
X58808648Y-2525858D01*
X59167858Y-2166648D01*
X59182000Y-2180790D01*
X59196143Y-2166648D01*
X59555353Y-2525858D01*
X59541210Y-2540000D01*
X60315434Y-3314224D01*
X60553044Y-3222161D01*
X60659782Y-2941576D01*
X60709731Y-2645558D01*
X60700969Y-2345484D01*
X60633834Y-2052885D01*
X60553044Y-1857839D01*
X60315436Y-1765777D01*
X60444017Y-1637196D01*
X60278821Y-1472000D01*
X64943179Y-1472000D01*
X64777983Y-1637196D01*
X64906564Y-1765777D01*
X64668956Y-1857839D01*
X64562218Y-2138424D01*
X64512269Y-2434442D01*
X64521031Y-2734516D01*
X64588166Y-3027115D01*
X64668956Y-3222161D01*
X64906566Y-3314224D01*
X65680790Y-2540000D01*
X65666648Y-2525858D01*
X66025858Y-2166648D01*
X66040000Y-2180790D01*
X66054143Y-2166648D01*
X66413353Y-2525858D01*
X66399210Y-2540000D01*
X66413353Y-2554143D01*
X66054143Y-2913353D01*
X66040000Y-2899210D01*
X65265776Y-3673434D01*
X65357839Y-3911044D01*
X65638424Y-4017782D01*
X65934442Y-4067731D01*
X66234516Y-4058969D01*
X66527115Y-3991834D01*
X66722161Y-3911044D01*
X66814223Y-3673436D01*
X66942804Y-3802017D01*
X67108001Y-3636820D01*
X67108001Y-5080032D01*
X66706802Y-4913850D01*
X66265151Y-4826000D01*
X65814849Y-4826000D01*
X65373198Y-4913850D01*
X64957173Y-5086173D01*
X64582760Y-5336348D01*
X64264348Y-5654760D01*
X64014173Y-6029173D01*
X63841850Y-6445198D01*
X63754000Y-6886849D01*
X63754000Y-7337151D01*
X63841850Y-7778802D01*
X64014173Y-8194827D01*
X64264348Y-8569240D01*
X64582760Y-8887652D01*
X64957173Y-9137827D01*
X65373198Y-9310150D01*
X65814849Y-9398000D01*
X66265151Y-9398000D01*
X66706802Y-9310150D01*
X67108001Y-9143968D01*
X67108001Y-14052942D01*
X66987923Y-13932864D01*
X66860099Y-14060688D01*
X66760171Y-13816639D01*
X66468650Y-13703491D01*
X66160655Y-13649389D01*
X65848023Y-13656413D01*
X65542770Y-13724294D01*
X65319829Y-13816639D01*
X65219900Y-14060690D01*
X66040000Y-14880790D01*
X66054143Y-14866648D01*
X66413353Y-15225858D01*
X66399210Y-15240000D01*
X66413353Y-15254143D01*
X66236995Y-15430500D01*
X65843005Y-15430500D01*
X65666648Y-15254143D01*
X65680790Y-15240000D01*
X64860690Y-14419900D01*
X64616639Y-14519829D01*
X64503491Y-14811350D01*
X64449389Y-15119345D01*
X64456413Y-15431977D01*
X64524294Y-15737230D01*
X64528755Y-15748000D01*
X64040181Y-15748000D01*
X63880984Y-15641628D01*
X63441846Y-15459731D01*
X62975660Y-15367000D01*
X62500340Y-15367000D01*
X62034154Y-15459731D01*
X61595016Y-15641628D01*
X61199802Y-15905701D01*
X60863701Y-16241802D01*
X60599628Y-16637016D01*
X60417731Y-17076154D01*
X60325000Y-17542340D01*
X60325000Y-18017660D01*
X60417731Y-18483846D01*
X60599628Y-18922984D01*
X60863701Y-19318198D01*
X61158264Y-19612761D01*
X61073644Y-19647811D01*
X60761634Y-19856290D01*
X60496290Y-20121634D01*
X60287811Y-20433644D01*
X60144209Y-20780332D01*
X60071000Y-21148374D01*
X60071000Y-21523626D01*
X60144209Y-21891668D01*
X60287811Y-22238356D01*
X60496290Y-22550366D01*
X60761634Y-22815710D01*
X61073644Y-23024189D01*
X61420332Y-23167791D01*
X61485984Y-23180850D01*
X61849000Y-23543867D01*
X61849001Y-28620889D01*
X61841012Y-28702000D01*
X61860732Y-28902209D01*
X61872890Y-29025653D01*
X61948106Y-29273607D01*
X61967296Y-29336867D01*
X62119212Y-29621081D01*
X62120603Y-29623684D01*
X62326919Y-29875082D01*
X62389916Y-29926782D01*
X63888505Y-31425371D01*
X63957900Y-31592905D01*
X64062867Y-31750000D01*
X63957900Y-31907095D01*
X63780790Y-32334676D01*
X63690500Y-32788594D01*
X63690500Y-33251406D01*
X63780790Y-33705324D01*
X63957900Y-34132905D01*
X64062867Y-34290000D01*
X63957900Y-34447095D01*
X63780790Y-34874676D01*
X63690500Y-35328594D01*
X63690500Y-35791406D01*
X63780790Y-36245324D01*
X63870246Y-36461290D01*
X63790596Y-36610305D01*
X63710714Y-36873640D01*
X63683741Y-37147500D01*
X63683741Y-39052500D01*
X63710714Y-39326360D01*
X63790596Y-39589695D01*
X63920317Y-39832387D01*
X64094892Y-40045108D01*
X64145576Y-40086703D01*
X63991140Y-40101914D01*
X63727805Y-40181796D01*
X63485113Y-40311517D01*
X63272392Y-40486092D01*
X63097817Y-40698813D01*
X62968096Y-40941505D01*
X62888214Y-41204840D01*
X62861241Y-41478700D01*
X62861241Y-42978000D01*
X48898759Y-42978000D01*
X48898759Y-41478700D01*
X48871786Y-41204840D01*
X48791904Y-40941505D01*
X48662183Y-40698813D01*
X48487608Y-40486092D01*
X48274887Y-40311517D01*
X48032195Y-40181796D01*
X47768860Y-40101914D01*
X47495000Y-40074941D01*
X44065000Y-40074941D01*
X43791140Y-40101914D01*
X43561000Y-40171726D01*
X43330860Y-40101914D01*
X43057000Y-40074941D01*
X39627000Y-40074941D01*
X39353140Y-40101914D01*
X39089805Y-40181796D01*
X38847113Y-40311517D01*
X38634392Y-40486092D01*
X38459817Y-40698813D01*
X38330096Y-40941505D01*
X38250214Y-41204840D01*
X38223241Y-41478700D01*
X38223241Y-42978000D01*
X24260759Y-42978000D01*
X24260759Y-41478700D01*
X24233786Y-41204840D01*
X24153904Y-40941505D01*
X24024183Y-40698813D01*
X23849608Y-40486092D01*
X23636887Y-40311517D01*
X23394195Y-40181796D01*
X23130860Y-40101914D01*
X22857000Y-40074941D01*
X19427000Y-40074941D01*
X19153140Y-40101914D01*
X18953000Y-40162626D01*
X18752860Y-40101914D01*
X18479000Y-40074941D01*
X15049000Y-40074941D01*
X14775140Y-40101914D01*
X14511805Y-40181796D01*
X14269113Y-40311517D01*
X14056392Y-40486092D01*
X13881817Y-40698813D01*
X13752096Y-40941505D01*
X13672214Y-41204840D01*
X13645241Y-41478700D01*
X13645241Y-42978000D01*
X5718759Y-42978000D01*
X5718759Y-41478700D01*
X5691786Y-41204840D01*
X5611904Y-40941505D01*
X5482183Y-40698813D01*
X5307608Y-40486092D01*
X5094887Y-40311517D01*
X4852195Y-40181796D01*
X4588860Y-40101914D01*
X4315000Y-40074941D01*
X1472000Y-40074941D01*
X1472000Y-38290500D01*
X6926928Y-38290500D01*
X6939188Y-38414982D01*
X6975498Y-38534680D01*
X7034463Y-38644994D01*
X7113815Y-38741685D01*
X7210506Y-38821037D01*
X7320820Y-38880002D01*
X7440518Y-38916312D01*
X7565000Y-38928572D01*
X7787250Y-38925500D01*
X7946000Y-38766750D01*
X7946000Y-37084000D01*
X7088750Y-37084000D01*
X6930000Y-37242750D01*
X6926928Y-38290500D01*
X1472000Y-38290500D01*
X1472000Y-35369500D01*
X6926928Y-35369500D01*
X6930000Y-36417250D01*
X7088750Y-36576000D01*
X7946000Y-36576000D01*
X7946000Y-34893250D01*
X8454000Y-34893250D01*
X8454000Y-36576000D01*
X8474000Y-36576000D01*
X8474000Y-37084000D01*
X8454000Y-37084000D01*
X8454000Y-38766750D01*
X8612750Y-38925500D01*
X8835000Y-38928572D01*
X8959482Y-38916312D01*
X9079180Y-38880002D01*
X9189494Y-38821037D01*
X9250811Y-38770715D01*
X9268096Y-38827695D01*
X9397817Y-39070387D01*
X9572392Y-39283108D01*
X9785113Y-39457683D01*
X10027805Y-39587404D01*
X10291140Y-39667286D01*
X10565000Y-39694259D01*
X11835000Y-39694259D01*
X12108860Y-39667286D01*
X12372195Y-39587404D01*
X12614887Y-39457683D01*
X12827608Y-39283108D01*
X13002183Y-39070387D01*
X13131904Y-38827695D01*
X13211786Y-38564360D01*
X13238759Y-38290500D01*
X13238759Y-35369500D01*
X13232000Y-35300875D01*
X13232000Y-35048263D01*
X13314372Y-34924984D01*
X13496269Y-34485846D01*
X13589000Y-34019660D01*
X13589000Y-33544340D01*
X13496269Y-33078154D01*
X13314372Y-32639016D01*
X13050299Y-32243802D01*
X12714198Y-31907701D01*
X12318984Y-31643628D01*
X11879846Y-31461731D01*
X11413660Y-31369000D01*
X10938340Y-31369000D01*
X10472154Y-31461731D01*
X10033016Y-31643628D01*
X9637802Y-31907701D01*
X9301701Y-32243802D01*
X9037628Y-32639016D01*
X8855731Y-33078154D01*
X8763000Y-33544340D01*
X8763000Y-34019660D01*
X8855731Y-34485846D01*
X8962971Y-34744746D01*
X8959482Y-34743688D01*
X8835000Y-34731428D01*
X8612750Y-34734500D01*
X8454000Y-34893250D01*
X7946000Y-34893250D01*
X7787250Y-34734500D01*
X7565000Y-34731428D01*
X7440518Y-34743688D01*
X7320820Y-34779998D01*
X7210506Y-34838963D01*
X7113815Y-34918315D01*
X7034463Y-35015006D01*
X6975498Y-35125320D01*
X6939188Y-35245018D01*
X6926928Y-35369500D01*
X1472000Y-35369500D01*
X1472000Y-26979197D01*
X1587500Y-26990572D01*
X2127250Y-26987500D01*
X2286000Y-26828750D01*
X2286000Y-25654000D01*
X2266000Y-25654000D01*
X2266000Y-25168594D01*
X2730500Y-25168594D01*
X2730500Y-25631406D01*
X2794000Y-25950642D01*
X2794000Y-26828750D01*
X2952750Y-26987500D01*
X3347049Y-26989744D01*
X3582281Y-27224976D01*
X3967095Y-27482100D01*
X4394676Y-27659210D01*
X4848594Y-27749500D01*
X5311406Y-27749500D01*
X5765324Y-27659210D01*
X6192905Y-27482100D01*
X6350000Y-27377133D01*
X6507095Y-27482100D01*
X6934676Y-27659210D01*
X7388594Y-27749500D01*
X7851406Y-27749500D01*
X8305324Y-27659210D01*
X8732905Y-27482100D01*
X8890000Y-27377133D01*
X9047095Y-27482100D01*
X9474676Y-27659210D01*
X9928594Y-27749500D01*
X10391406Y-27749500D01*
X10845324Y-27659210D01*
X11272905Y-27482100D01*
X11430000Y-27377133D01*
X11587095Y-27482100D01*
X12014676Y-27659210D01*
X12468594Y-27749500D01*
X12931406Y-27749500D01*
X13385324Y-27659210D01*
X13812905Y-27482100D01*
X13970000Y-27377133D01*
X14127095Y-27482100D01*
X14554676Y-27659210D01*
X15008594Y-27749500D01*
X15471406Y-27749500D01*
X15925324Y-27659210D01*
X16352905Y-27482100D01*
X16510000Y-27377133D01*
X16667095Y-27482100D01*
X17094676Y-27659210D01*
X17548594Y-27749500D01*
X18011406Y-27749500D01*
X18465324Y-27659210D01*
X18892905Y-27482100D01*
X19050000Y-27377133D01*
X19207095Y-27482100D01*
X19634676Y-27659210D01*
X20088594Y-27749500D01*
X20551406Y-27749500D01*
X21005324Y-27659210D01*
X21432905Y-27482100D01*
X21590000Y-27377133D01*
X21747095Y-27482100D01*
X22174676Y-27659210D01*
X22628594Y-27749500D01*
X23091406Y-27749500D01*
X23545324Y-27659210D01*
X23972905Y-27482100D01*
X24130000Y-27377133D01*
X24287095Y-27482100D01*
X24714676Y-27659210D01*
X25168594Y-27749500D01*
X25631406Y-27749500D01*
X26085324Y-27659210D01*
X26512905Y-27482100D01*
X26670000Y-27377133D01*
X26827095Y-27482100D01*
X27254676Y-27659210D01*
X27708594Y-27749500D01*
X28171406Y-27749500D01*
X28625324Y-27659210D01*
X29052905Y-27482100D01*
X29210000Y-27377133D01*
X29367095Y-27482100D01*
X29794676Y-27659210D01*
X30248594Y-27749500D01*
X30711406Y-27749500D01*
X31165324Y-27659210D01*
X31592905Y-27482100D01*
X31750000Y-27377133D01*
X31907095Y-27482100D01*
X32334676Y-27659210D01*
X32788594Y-27749500D01*
X33251406Y-27749500D01*
X33705324Y-27659210D01*
X34132905Y-27482100D01*
X34290000Y-27377133D01*
X34447095Y-27482100D01*
X34874676Y-27659210D01*
X35216025Y-27727109D01*
X32590134Y-30353000D01*
X30815103Y-30353000D01*
X30734000Y-30345012D01*
X30410347Y-30376889D01*
X30099132Y-30471295D01*
X29958670Y-30546374D01*
X29812316Y-30624602D01*
X29560918Y-30830918D01*
X29509213Y-30893921D01*
X26437393Y-33965741D01*
X26107000Y-33965741D01*
X25833140Y-33992714D01*
X25569805Y-34072596D01*
X25327113Y-34202317D01*
X25114392Y-34376892D01*
X24939817Y-34589613D01*
X24810096Y-34832305D01*
X24730214Y-35095640D01*
X24703241Y-35369500D01*
X24703241Y-38290500D01*
X24730214Y-38564360D01*
X24810096Y-38827695D01*
X24939817Y-39070387D01*
X25114392Y-39283108D01*
X25327113Y-39457683D01*
X25569805Y-39587404D01*
X25833140Y-39667286D01*
X26107000Y-39694259D01*
X27377000Y-39694259D01*
X27650860Y-39667286D01*
X27914195Y-39587404D01*
X28156887Y-39457683D01*
X28242000Y-39387833D01*
X28327113Y-39457683D01*
X28569805Y-39587404D01*
X28833140Y-39667286D01*
X29107000Y-39694259D01*
X30377000Y-39694259D01*
X30650860Y-39667286D01*
X30914195Y-39587404D01*
X31156887Y-39457683D01*
X31242000Y-39387833D01*
X31327113Y-39457683D01*
X31569805Y-39587404D01*
X31833140Y-39667286D01*
X32107000Y-39694259D01*
X33377000Y-39694259D01*
X33650860Y-39667286D01*
X33914195Y-39587404D01*
X34156887Y-39457683D01*
X34242000Y-39387833D01*
X34327113Y-39457683D01*
X34569805Y-39587404D01*
X34833140Y-39667286D01*
X35107000Y-39694259D01*
X36377000Y-39694259D01*
X36650860Y-39667286D01*
X36914195Y-39587404D01*
X37156887Y-39457683D01*
X37369608Y-39283108D01*
X37544183Y-39070387D01*
X37673904Y-38827695D01*
X37753786Y-38564360D01*
X37780759Y-38290500D01*
X37780759Y-35369500D01*
X37753786Y-35095640D01*
X37673904Y-34832305D01*
X37561972Y-34622894D01*
X39406709Y-32778157D01*
X39459811Y-32906356D01*
X39668290Y-33218366D01*
X39933634Y-33483710D01*
X40245644Y-33692189D01*
X40592332Y-33835791D01*
X40960374Y-33909000D01*
X41335626Y-33909000D01*
X41703668Y-33835791D01*
X41855622Y-33772850D01*
X41872181Y-33825119D01*
X41932495Y-33934701D01*
X42013029Y-34030411D01*
X42110687Y-34108570D01*
X42221717Y-34166175D01*
X42341851Y-34201013D01*
X42466474Y-34211744D01*
X43021250Y-34208720D01*
X43180000Y-34049970D01*
X43180000Y-33707479D01*
X43688000Y-33707479D01*
X43688000Y-34049970D01*
X43846750Y-34208720D01*
X44401526Y-34211744D01*
X44526149Y-34201013D01*
X44646283Y-34166175D01*
X44757313Y-34108570D01*
X44854971Y-34030411D01*
X44935505Y-33934701D01*
X44995819Y-33825119D01*
X45033596Y-33705876D01*
X45044360Y-33605470D01*
X45007134Y-33568244D01*
X45189247Y-33470903D01*
X45401968Y-33296328D01*
X45574272Y-33086374D01*
X47117000Y-33086374D01*
X47117000Y-33461626D01*
X47190209Y-33829668D01*
X47333811Y-34176356D01*
X47542290Y-34488366D01*
X47807634Y-34753710D01*
X48119644Y-34962189D01*
X48466332Y-35105791D01*
X48834374Y-35179000D01*
X49209626Y-35179000D01*
X49363009Y-35148490D01*
X49341241Y-35369500D01*
X49341241Y-38290500D01*
X49368214Y-38564360D01*
X49448096Y-38827695D01*
X49577817Y-39070387D01*
X49752392Y-39283108D01*
X49965113Y-39457683D01*
X50189152Y-39577434D01*
X50206918Y-39599082D01*
X50269921Y-39650787D01*
X50479150Y-39860015D01*
X50492209Y-39925668D01*
X50635811Y-40272356D01*
X50844290Y-40584366D01*
X51109634Y-40849710D01*
X51421644Y-41058189D01*
X51768332Y-41201791D01*
X52136374Y-41275000D01*
X52511626Y-41275000D01*
X52879668Y-41201791D01*
X53226356Y-41058189D01*
X53538366Y-40849710D01*
X53803710Y-40584366D01*
X54012189Y-40272356D01*
X54155791Y-39925668D01*
X54201822Y-39694259D01*
X55015000Y-39694259D01*
X55288860Y-39667286D01*
X55552195Y-39587404D01*
X55794887Y-39457683D01*
X55880000Y-39387833D01*
X55965113Y-39457683D01*
X56207805Y-39587404D01*
X56471140Y-39667286D01*
X56745000Y-39694259D01*
X58015000Y-39694259D01*
X58288860Y-39667286D01*
X58552195Y-39587404D01*
X58794887Y-39457683D01*
X58880000Y-39387833D01*
X58965113Y-39457683D01*
X59207805Y-39587404D01*
X59471140Y-39667286D01*
X59745000Y-39694259D01*
X61015000Y-39694259D01*
X61288860Y-39667286D01*
X61552195Y-39587404D01*
X61794887Y-39457683D01*
X62007608Y-39283108D01*
X62182183Y-39070387D01*
X62311904Y-38827695D01*
X62391786Y-38564360D01*
X62418759Y-38290500D01*
X62418759Y-35369500D01*
X62391786Y-35095640D01*
X62311904Y-34832305D01*
X62182183Y-34589613D01*
X62007608Y-34376892D01*
X61794887Y-34202317D01*
X61552195Y-34072596D01*
X61288860Y-33992714D01*
X61015000Y-33965741D01*
X60833000Y-33965741D01*
X60833000Y-27259101D01*
X60840988Y-27178000D01*
X60833000Y-27096896D01*
X60809111Y-26854347D01*
X60714705Y-26543133D01*
X60561398Y-26256316D01*
X60355082Y-26004918D01*
X60292085Y-25953218D01*
X56612739Y-22273873D01*
X56806189Y-21984356D01*
X56949791Y-21637668D01*
X57023000Y-21269626D01*
X57023000Y-20894374D01*
X56949791Y-20526332D01*
X56806189Y-20179644D01*
X56597710Y-19867634D01*
X56332366Y-19602290D01*
X56020356Y-19393811D01*
X55673668Y-19250209D01*
X55305626Y-19177000D01*
X54930374Y-19177000D01*
X54562332Y-19250209D01*
X54215644Y-19393811D01*
X53903634Y-19602290D01*
X53638290Y-19867634D01*
X53455952Y-20140521D01*
X52367180Y-20140521D01*
X52093320Y-20167494D01*
X51829985Y-20247376D01*
X51587293Y-20377097D01*
X51374572Y-20551672D01*
X51199997Y-20764393D01*
X51085053Y-20979438D01*
X50964189Y-20687644D01*
X50755710Y-20375634D01*
X50490366Y-20110290D01*
X50178356Y-19901811D01*
X49831668Y-19758209D01*
X49463626Y-19685000D01*
X49088374Y-19685000D01*
X48720332Y-19758209D01*
X48373644Y-19901811D01*
X48061634Y-20110290D01*
X47796290Y-20375634D01*
X47587811Y-20687644D01*
X47444209Y-21034332D01*
X47371000Y-21402374D01*
X47371000Y-21777626D01*
X47444209Y-22145668D01*
X47587811Y-22492356D01*
X47625000Y-22548014D01*
X47625001Y-24556890D01*
X47617012Y-24638000D01*
X47645896Y-24931259D01*
X47648890Y-24961653D01*
X47732055Y-25235811D01*
X47743296Y-25272867D01*
X47896602Y-25559683D01*
X48019663Y-25709634D01*
X48102919Y-25811082D01*
X48165916Y-25862782D01*
X50108064Y-27804931D01*
X49839634Y-27984290D01*
X49574290Y-28249634D01*
X49365811Y-28561644D01*
X49222209Y-28908332D01*
X49149000Y-29276374D01*
X49149000Y-29651626D01*
X49222209Y-30019668D01*
X49365811Y-30366356D01*
X49574290Y-30678366D01*
X49839634Y-30943710D01*
X50151644Y-31152189D01*
X50498332Y-31295791D01*
X50866374Y-31369000D01*
X51009026Y-31369000D01*
X51070276Y-31570915D01*
X51098116Y-31623000D01*
X49980013Y-31623000D01*
X49924356Y-31585811D01*
X49577668Y-31442209D01*
X49209626Y-31369000D01*
X48834374Y-31369000D01*
X48466332Y-31442209D01*
X48119644Y-31585811D01*
X47807634Y-31794290D01*
X47542290Y-32059634D01*
X47333811Y-32371644D01*
X47190209Y-32718332D01*
X47117000Y-33086374D01*
X45574272Y-33086374D01*
X45576543Y-33083607D01*
X45706264Y-32840915D01*
X45786146Y-32577580D01*
X45813119Y-32303720D01*
X45813119Y-31704280D01*
X45786146Y-31430420D01*
X45767514Y-31369000D01*
X45786146Y-31307580D01*
X45813119Y-31033720D01*
X45813119Y-30434280D01*
X45786146Y-30160420D01*
X45767514Y-30099000D01*
X45786146Y-30037580D01*
X45813119Y-29763720D01*
X45813119Y-29164280D01*
X45786146Y-28890420D01*
X45767514Y-28829000D01*
X45786146Y-28767580D01*
X45813119Y-28493720D01*
X45813119Y-27894280D01*
X45786146Y-27620420D01*
X45767514Y-27559000D01*
X45786146Y-27497580D01*
X45813119Y-27223720D01*
X45813119Y-26624280D01*
X45786146Y-26350420D01*
X45767514Y-26289000D01*
X45786146Y-26227580D01*
X45813119Y-25953720D01*
X45813119Y-25354280D01*
X45786146Y-25080420D01*
X45767514Y-25019000D01*
X45786146Y-24957580D01*
X45813119Y-24683720D01*
X45813119Y-24084280D01*
X45786146Y-23810420D01*
X45767514Y-23749000D01*
X45786146Y-23687580D01*
X45813119Y-23413720D01*
X45813119Y-22814280D01*
X45786146Y-22540420D01*
X45706264Y-22277085D01*
X45576543Y-22034393D01*
X45401968Y-21821672D01*
X45189247Y-21647097D01*
X45007134Y-21549756D01*
X45044360Y-21512530D01*
X45033596Y-21412124D01*
X44995819Y-21292881D01*
X44935505Y-21183299D01*
X44854971Y-21087589D01*
X44757313Y-21009430D01*
X44646283Y-20951825D01*
X44526149Y-20916987D01*
X44401526Y-20906256D01*
X43846750Y-20909280D01*
X43688000Y-21068030D01*
X43688000Y-21410521D01*
X43180000Y-21410521D01*
X43180000Y-21068030D01*
X43021250Y-20909280D01*
X42466474Y-20906256D01*
X42341851Y-20916987D01*
X42221717Y-20951825D01*
X42110687Y-21009430D01*
X42013029Y-21087589D01*
X41932495Y-21183299D01*
X41872181Y-21292881D01*
X41834404Y-21412124D01*
X41828950Y-21463000D01*
X39959100Y-21463000D01*
X39877999Y-21455012D01*
X39796898Y-21463000D01*
X39796896Y-21463000D01*
X39554347Y-21486889D01*
X39243133Y-21581295D01*
X39137667Y-21637668D01*
X38956315Y-21734602D01*
X38778638Y-21880417D01*
X38704918Y-21940918D01*
X38653217Y-22003916D01*
X37497920Y-23159214D01*
X37434918Y-23210918D01*
X37228602Y-23462317D01*
X37129820Y-23647125D01*
X37057719Y-23575024D01*
X36672905Y-23317900D01*
X36245324Y-23140790D01*
X35791406Y-23050500D01*
X35328594Y-23050500D01*
X34874676Y-23140790D01*
X34447095Y-23317900D01*
X34290000Y-23422867D01*
X34132905Y-23317900D01*
X33705324Y-23140790D01*
X33251406Y-23050500D01*
X32788594Y-23050500D01*
X32334676Y-23140790D01*
X31907095Y-23317900D01*
X31750000Y-23422867D01*
X31592905Y-23317900D01*
X31165324Y-23140790D01*
X30711406Y-23050500D01*
X30248594Y-23050500D01*
X29794676Y-23140790D01*
X29367095Y-23317900D01*
X29210000Y-23422867D01*
X29052905Y-23317900D01*
X28625324Y-23140790D01*
X28171406Y-23050500D01*
X27708594Y-23050500D01*
X27254676Y-23140790D01*
X26827095Y-23317900D01*
X26670000Y-23422867D01*
X26512905Y-23317900D01*
X26085324Y-23140790D01*
X25631406Y-23050500D01*
X25168594Y-23050500D01*
X24714676Y-23140790D01*
X24287095Y-23317900D01*
X24130000Y-23422867D01*
X23972905Y-23317900D01*
X23545324Y-23140790D01*
X23091406Y-23050500D01*
X22628594Y-23050500D01*
X22174676Y-23140790D01*
X21747095Y-23317900D01*
X21590000Y-23422867D01*
X21432905Y-23317900D01*
X21005324Y-23140790D01*
X20551406Y-23050500D01*
X20088594Y-23050500D01*
X19634676Y-23140790D01*
X19207095Y-23317900D01*
X19050000Y-23422867D01*
X18892905Y-23317900D01*
X18465324Y-23140790D01*
X18011406Y-23050500D01*
X17548594Y-23050500D01*
X17094676Y-23140790D01*
X16667095Y-23317900D01*
X16510000Y-23422867D01*
X16352905Y-23317900D01*
X15925324Y-23140790D01*
X15471406Y-23050500D01*
X15008594Y-23050500D01*
X14554676Y-23140790D01*
X14127095Y-23317900D01*
X13970000Y-23422867D01*
X13812905Y-23317900D01*
X13385324Y-23140790D01*
X12931406Y-23050500D01*
X12468594Y-23050500D01*
X12014676Y-23140790D01*
X11587095Y-23317900D01*
X11430000Y-23422867D01*
X11272905Y-23317900D01*
X10845324Y-23140790D01*
X10391406Y-23050500D01*
X9928594Y-23050500D01*
X9474676Y-23140790D01*
X9047095Y-23317900D01*
X8890000Y-23422867D01*
X8732905Y-23317900D01*
X8305324Y-23140790D01*
X7851406Y-23050500D01*
X7388594Y-23050500D01*
X6934676Y-23140790D01*
X6507095Y-23317900D01*
X6350000Y-23422867D01*
X6192905Y-23317900D01*
X5765324Y-23140790D01*
X5311406Y-23050500D01*
X4848594Y-23050500D01*
X4394676Y-23140790D01*
X3967095Y-23317900D01*
X3582281Y-23575024D01*
X3347049Y-23810256D01*
X2952750Y-23812500D01*
X2794000Y-23971250D01*
X2794000Y-24849358D01*
X2730500Y-25168594D01*
X2266000Y-25168594D01*
X2266000Y-25146000D01*
X2286000Y-25146000D01*
X2286000Y-23971250D01*
X2127250Y-23812500D01*
X1587500Y-23809428D01*
X1472000Y-23820803D01*
X1472000Y-12260700D01*
X1854676Y-12419210D01*
X2308594Y-12509500D01*
X2771406Y-12509500D01*
X3225324Y-12419210D01*
X3652905Y-12242100D01*
X3810000Y-12137133D01*
X3967095Y-12242100D01*
X4394676Y-12419210D01*
X4848594Y-12509500D01*
X5311406Y-12509500D01*
X5765324Y-12419210D01*
X6192905Y-12242100D01*
X6350000Y-12137133D01*
X6507095Y-12242100D01*
X6934676Y-12419210D01*
X7388594Y-12509500D01*
X7851406Y-12509500D01*
X8305324Y-12419210D01*
X8732905Y-12242100D01*
X8890000Y-12137133D01*
X9047095Y-12242100D01*
X9474676Y-12419210D01*
X9928594Y-12509500D01*
X10391406Y-12509500D01*
X10845324Y-12419210D01*
X11272905Y-12242100D01*
X11430000Y-12137133D01*
X11587095Y-12242100D01*
X12014676Y-12419210D01*
X12468594Y-12509500D01*
X12931406Y-12509500D01*
X13385324Y-12419210D01*
X13812905Y-12242100D01*
X13970000Y-12137133D01*
X14127095Y-12242100D01*
X14554676Y-12419210D01*
X15008594Y-12509500D01*
X15471406Y-12509500D01*
X15925324Y-12419210D01*
X16352905Y-12242100D01*
X16510000Y-12137133D01*
X16667095Y-12242100D01*
X17094676Y-12419210D01*
X17548594Y-12509500D01*
X18011406Y-12509500D01*
X18465324Y-12419210D01*
X18892905Y-12242100D01*
X19050000Y-12137133D01*
X19207095Y-12242100D01*
X19579504Y-12396357D01*
X19551657Y-12419210D01*
X19400918Y-12542918D01*
X19349218Y-12605915D01*
X16781984Y-15173150D01*
X16716332Y-15186209D01*
X16369644Y-15329811D01*
X16057634Y-15538290D01*
X15792290Y-15803634D01*
X15583811Y-16115644D01*
X15440209Y-16462332D01*
X15367000Y-16830374D01*
X15367000Y-17205626D01*
X15440209Y-17573668D01*
X15583811Y-17920356D01*
X15792290Y-18232366D01*
X16057634Y-18497710D01*
X16369644Y-18706189D01*
X16716332Y-18849791D01*
X17084374Y-18923000D01*
X17459626Y-18923000D01*
X17827668Y-18849791D01*
X18174356Y-18706189D01*
X18486366Y-18497710D01*
X18751710Y-18232366D01*
X18960189Y-17920356D01*
X19103791Y-17573668D01*
X19116850Y-17508016D01*
X21257867Y-15367000D01*
X27489987Y-15367000D01*
X27545644Y-15404189D01*
X27892332Y-15547791D01*
X28260374Y-15621000D01*
X28635626Y-15621000D01*
X29003668Y-15547791D01*
X29350356Y-15404189D01*
X29662366Y-15195710D01*
X29927710Y-14930366D01*
X30136189Y-14618356D01*
X30279791Y-14271668D01*
X30353000Y-13903626D01*
X30353000Y-13528374D01*
X30279791Y-13160332D01*
X30136189Y-12813644D01*
X29927710Y-12501634D01*
X29857853Y-12431777D01*
X30248594Y-12509500D01*
X30711406Y-12509500D01*
X31165324Y-12419210D01*
X31592905Y-12242100D01*
X31750000Y-12137133D01*
X31907095Y-12242100D01*
X32334676Y-12419210D01*
X32788594Y-12509500D01*
X33251406Y-12509500D01*
X33705324Y-12419210D01*
X34132905Y-12242100D01*
X34290000Y-12137133D01*
X34447095Y-12242100D01*
X34874676Y-12419210D01*
X35328594Y-12509500D01*
X35791406Y-12509500D01*
X36245324Y-12419210D01*
X36672905Y-12242100D01*
X37028687Y-12004374D01*
X42545000Y-12004374D01*
X42545000Y-12379626D01*
X42618209Y-12747668D01*
X42761811Y-13094356D01*
X42970290Y-13406366D01*
X43235634Y-13671710D01*
X43547644Y-13880189D01*
X43894332Y-14023791D01*
X44262374Y-14097000D01*
X44637626Y-14097000D01*
X45005668Y-14023791D01*
X45352356Y-13880189D01*
X45664366Y-13671710D01*
X45929710Y-13406366D01*
X46138189Y-13094356D01*
X46281791Y-12747668D01*
X46294850Y-12682016D01*
X46464492Y-12512374D01*
X54737000Y-12512374D01*
X54737000Y-12887626D01*
X54810209Y-13255668D01*
X54953811Y-13602356D01*
X55162290Y-13914366D01*
X55427634Y-14179710D01*
X55739644Y-14388189D01*
X56086332Y-14531791D01*
X56454374Y-14605000D01*
X56829626Y-14605000D01*
X57197668Y-14531791D01*
X57544356Y-14388189D01*
X57856366Y-14179710D01*
X58121710Y-13914366D01*
X58330189Y-13602356D01*
X58473791Y-13255668D01*
X58486850Y-13190016D01*
X60292084Y-11384782D01*
X60355082Y-11333082D01*
X60561208Y-11081916D01*
X60561398Y-11081685D01*
X60687735Y-10845324D01*
X60714705Y-10794867D01*
X60809111Y-10483653D01*
X60833000Y-10241104D01*
X60833000Y-10241102D01*
X60840988Y-10160001D01*
X60833000Y-10078900D01*
X60833000Y-8693892D01*
X60957652Y-8569240D01*
X61207827Y-8194827D01*
X61380150Y-7778802D01*
X61468000Y-7337151D01*
X61468000Y-6886849D01*
X61380150Y-6445198D01*
X61207827Y-6029173D01*
X60957652Y-5654760D01*
X60639240Y-5336348D01*
X60264827Y-5086173D01*
X59848802Y-4913850D01*
X59407151Y-4826000D01*
X58956849Y-4826000D01*
X58515198Y-4913850D01*
X58099173Y-5086173D01*
X57724760Y-5336348D01*
X57406348Y-5654760D01*
X57156173Y-6029173D01*
X56983850Y-6445198D01*
X56896000Y-6886849D01*
X56896000Y-7337151D01*
X56983850Y-7778802D01*
X57156173Y-8194827D01*
X57406348Y-8569240D01*
X57531001Y-8693893D01*
X57531001Y-9476132D01*
X56151984Y-10855150D01*
X56086332Y-10868209D01*
X55739644Y-11011811D01*
X55427634Y-11220290D01*
X55162290Y-11485634D01*
X54953811Y-11797644D01*
X54810209Y-12144332D01*
X54737000Y-12512374D01*
X46464492Y-12512374D01*
X47592084Y-11384783D01*
X47655082Y-11333082D01*
X47861398Y-11081684D01*
X48014705Y-10794867D01*
X48109111Y-10483653D01*
X48133000Y-10241104D01*
X48133000Y-10241101D01*
X48140988Y-10160000D01*
X48133000Y-10078899D01*
X48133000Y-8693892D01*
X48257652Y-8569240D01*
X48507827Y-8194827D01*
X48680150Y-7778802D01*
X48768000Y-7337151D01*
X48768000Y-6886849D01*
X51054000Y-6886849D01*
X51054000Y-7337151D01*
X51141850Y-7778802D01*
X51314173Y-8194827D01*
X51564348Y-8569240D01*
X51882760Y-8887652D01*
X52257173Y-9137827D01*
X52673198Y-9310150D01*
X53114849Y-9398000D01*
X53565151Y-9398000D01*
X54006802Y-9310150D01*
X54422827Y-9137827D01*
X54797240Y-8887652D01*
X55115652Y-8569240D01*
X55365827Y-8194827D01*
X55538150Y-7778802D01*
X55626000Y-7337151D01*
X55626000Y-6886849D01*
X55538150Y-6445198D01*
X55365827Y-6029173D01*
X55115652Y-5654760D01*
X54797240Y-5336348D01*
X54422827Y-5086173D01*
X54006802Y-4913850D01*
X53565151Y-4826000D01*
X53114849Y-4826000D01*
X52673198Y-4913850D01*
X52257173Y-5086173D01*
X51882760Y-5336348D01*
X51564348Y-5654760D01*
X51314173Y-6029173D01*
X51141850Y-6445198D01*
X51054000Y-6886849D01*
X48768000Y-6886849D01*
X48680150Y-6445198D01*
X48507827Y-6029173D01*
X48257652Y-5654760D01*
X47939240Y-5336348D01*
X47564827Y-5086173D01*
X47148802Y-4913850D01*
X46707151Y-4826000D01*
X46256849Y-4826000D01*
X45815198Y-4913850D01*
X45399173Y-5086173D01*
X45024760Y-5336348D01*
X44706348Y-5654760D01*
X44456173Y-6029173D01*
X44283850Y-6445198D01*
X44196000Y-6886849D01*
X44196000Y-7337151D01*
X44283850Y-7778802D01*
X44456173Y-8194827D01*
X44706348Y-8569240D01*
X44831001Y-8693893D01*
X44831001Y-9476132D01*
X43959984Y-10347150D01*
X43894332Y-10360209D01*
X43547644Y-10503811D01*
X43235634Y-10712290D01*
X42970290Y-10977634D01*
X42761811Y-11289644D01*
X42618209Y-11636332D01*
X42545000Y-12004374D01*
X37028687Y-12004374D01*
X37057719Y-11984976D01*
X37384976Y-11657719D01*
X37642100Y-11272905D01*
X37819210Y-10845324D01*
X37909500Y-10391406D01*
X37909500Y-9928594D01*
X37819210Y-9474676D01*
X37642100Y-9047095D01*
X37384976Y-8662281D01*
X37057719Y-8335024D01*
X36672905Y-8077900D01*
X36245324Y-7900790D01*
X35953652Y-7842773D01*
X35980150Y-7778802D01*
X36068000Y-7337151D01*
X36068000Y-6886849D01*
X38354000Y-6886849D01*
X38354000Y-7337151D01*
X38441850Y-7778802D01*
X38614173Y-8194827D01*
X38864348Y-8569240D01*
X39182760Y-8887652D01*
X39557173Y-9137827D01*
X39973198Y-9310150D01*
X40414849Y-9398000D01*
X40865151Y-9398000D01*
X41306802Y-9310150D01*
X41722827Y-9137827D01*
X42097240Y-8887652D01*
X42415652Y-8569240D01*
X42665827Y-8194827D01*
X42838150Y-7778802D01*
X42926000Y-7337151D01*
X42926000Y-6886849D01*
X42838150Y-6445198D01*
X42665827Y-6029173D01*
X42415652Y-5654760D01*
X42097240Y-5336348D01*
X41722827Y-5086173D01*
X41306802Y-4913850D01*
X40865151Y-4826000D01*
X40414849Y-4826000D01*
X39973198Y-4913850D01*
X39557173Y-5086173D01*
X39182760Y-5336348D01*
X38864348Y-5654760D01*
X38614173Y-6029173D01*
X38441850Y-6445198D01*
X38354000Y-6886849D01*
X36068000Y-6886849D01*
X35980150Y-6445198D01*
X35807827Y-6029173D01*
X35557652Y-5654760D01*
X35239240Y-5336348D01*
X34864827Y-5086173D01*
X34448802Y-4913850D01*
X34007151Y-4826000D01*
X33556849Y-4826000D01*
X33115198Y-4913850D01*
X32699173Y-5086173D01*
X32324760Y-5336348D01*
X32006348Y-5654760D01*
X31756173Y-6029173D01*
X31583850Y-6445198D01*
X31496000Y-6886849D01*
X31496000Y-7337151D01*
X31583850Y-7778802D01*
X31750955Y-8182229D01*
X31750000Y-8182867D01*
X31592905Y-8077900D01*
X31165324Y-7900790D01*
X30711406Y-7810500D01*
X30248594Y-7810500D01*
X30113925Y-7837287D01*
X30138150Y-7778802D01*
X30226000Y-7337151D01*
X30226000Y-6886849D01*
X30138150Y-6445198D01*
X29965827Y-6029173D01*
X29715652Y-5654760D01*
X29397240Y-5336348D01*
X29022827Y-5086173D01*
X28606802Y-4913850D01*
X28165151Y-4826000D01*
X27714849Y-4826000D01*
X27273198Y-4913850D01*
X26857173Y-5086173D01*
X26482760Y-5336348D01*
X26164348Y-5654760D01*
X25914173Y-6029173D01*
X25741850Y-6445198D01*
X25654000Y-6886849D01*
X25654000Y-7337151D01*
X25741850Y-7778802D01*
X25766075Y-7837287D01*
X25631406Y-7810500D01*
X25168594Y-7810500D01*
X24714676Y-7900790D01*
X24287095Y-8077900D01*
X24130000Y-8182867D01*
X23972905Y-8077900D01*
X23545324Y-7900790D01*
X23253652Y-7842773D01*
X23280150Y-7778802D01*
X23368000Y-7337151D01*
X23368000Y-6886849D01*
X23280150Y-6445198D01*
X23107827Y-6029173D01*
X22857652Y-5654760D01*
X22539240Y-5336348D01*
X22164827Y-5086173D01*
X21748802Y-4913850D01*
X21307151Y-4826000D01*
X20856849Y-4826000D01*
X20415198Y-4913850D01*
X19999173Y-5086173D01*
X19624760Y-5336348D01*
X19306348Y-5654760D01*
X19056173Y-6029173D01*
X18883850Y-6445198D01*
X18796000Y-6886849D01*
X18796000Y-7337151D01*
X18883850Y-7778802D01*
X19050955Y-8182229D01*
X19050000Y-8182867D01*
X18892905Y-8077900D01*
X18465324Y-7900790D01*
X18011406Y-7810500D01*
X17548594Y-7810500D01*
X17094676Y-7900790D01*
X16667095Y-8077900D01*
X16510000Y-8182867D01*
X16352905Y-8077900D01*
X15925324Y-7900790D01*
X15471406Y-7810500D01*
X15008594Y-7810500D01*
X14554676Y-7900790D01*
X14127095Y-8077900D01*
X13970000Y-8182867D01*
X13812905Y-8077900D01*
X13385324Y-7900790D01*
X12931406Y-7810500D01*
X12468594Y-7810500D01*
X12014676Y-7900790D01*
X11587095Y-8077900D01*
X11430000Y-8182867D01*
X11272905Y-8077900D01*
X10845324Y-7900790D01*
X10391406Y-7810500D01*
X9928594Y-7810500D01*
X9683335Y-7859285D01*
X9758372Y-7746984D01*
X9940269Y-7307846D01*
X10033000Y-6841660D01*
X10033000Y-6366340D01*
X9940269Y-5900154D01*
X9758372Y-5461016D01*
X9494299Y-5065802D01*
X9158198Y-4729701D01*
X8762984Y-4465628D01*
X8323846Y-4283731D01*
X7857660Y-4191000D01*
X7382340Y-4191000D01*
X6916154Y-4283731D01*
X6477016Y-4465628D01*
X6081802Y-4729701D01*
X5745701Y-5065802D01*
X5481628Y-5461016D01*
X5299731Y-5900154D01*
X5207000Y-6366340D01*
X5207000Y-6841660D01*
X5299731Y-7307846D01*
X5481628Y-7746984D01*
X5556665Y-7859285D01*
X5311406Y-7810500D01*
X4848594Y-7810500D01*
X4603335Y-7859285D01*
X4678372Y-7746984D01*
X4860269Y-7307846D01*
X4953000Y-6841660D01*
X4953000Y-6366340D01*
X4860269Y-5900154D01*
X4678372Y-5461016D01*
X4414299Y-5065802D01*
X4078198Y-4729701D01*
X3682984Y-4465628D01*
X3243846Y-4283731D01*
X2777660Y-4191000D01*
X2302340Y-4191000D01*
X1836154Y-4283731D01*
X1472000Y-4434569D01*
X1472000Y-3673434D01*
X20307776Y-3673434D01*
X20399839Y-3911044D01*
X20680424Y-4017782D01*
X20976442Y-4067731D01*
X21276516Y-4058969D01*
X21569115Y-3991834D01*
X21764161Y-3911044D01*
X21856224Y-3673434D01*
X27165776Y-3673434D01*
X27257839Y-3911044D01*
X27538424Y-4017782D01*
X27834442Y-4067731D01*
X28134516Y-4058969D01*
X28427115Y-3991834D01*
X28622161Y-3911044D01*
X28714224Y-3673434D01*
X33007776Y-3673434D01*
X33099839Y-3911044D01*
X33380424Y-4017782D01*
X33676442Y-4067731D01*
X33976516Y-4058969D01*
X34269115Y-3991834D01*
X34464161Y-3911044D01*
X34556224Y-3673434D01*
X39865776Y-3673434D01*
X39957839Y-3911044D01*
X40238424Y-4017782D01*
X40534442Y-4067731D01*
X40834516Y-4058969D01*
X41127115Y-3991834D01*
X41322161Y-3911044D01*
X41414224Y-3673434D01*
X45707776Y-3673434D01*
X45799839Y-3911044D01*
X46080424Y-4017782D01*
X46376442Y-4067731D01*
X46676516Y-4058969D01*
X46969115Y-3991834D01*
X47164161Y-3911044D01*
X47256224Y-3673434D01*
X52565776Y-3673434D01*
X52657839Y-3911044D01*
X52938424Y-4017782D01*
X53234442Y-4067731D01*
X53534516Y-4058969D01*
X53827115Y-3991834D01*
X54022161Y-3911044D01*
X54114224Y-3673434D01*
X58407776Y-3673434D01*
X58499839Y-3911044D01*
X58780424Y-4017782D01*
X59076442Y-4067731D01*
X59376516Y-4058969D01*
X59669115Y-3991834D01*
X59864161Y-3911044D01*
X59956224Y-3673434D01*
X59182000Y-2899210D01*
X58407776Y-3673434D01*
X54114224Y-3673434D01*
X53340000Y-2899210D01*
X52565776Y-3673434D01*
X47256224Y-3673434D01*
X46482000Y-2899210D01*
X45707776Y-3673434D01*
X41414224Y-3673434D01*
X40640000Y-2899210D01*
X39865776Y-3673434D01*
X34556224Y-3673434D01*
X33782000Y-2899210D01*
X33007776Y-3673434D01*
X28714224Y-3673434D01*
X27940000Y-2899210D01*
X27165776Y-3673434D01*
X21856224Y-3673434D01*
X21082000Y-2899210D01*
X20307776Y-3673434D01*
X1472000Y-3673434D01*
X1472000Y-2611996D01*
X1482261Y-2507345D01*
X2507929Y-1481677D01*
X2600000Y-1472000D01*
X19985179Y-1472000D01*
X19819983Y-1637196D01*
M02*
