G04 #@! TF.GenerationSoftware,KiCad,Pcbnew,5.1.6-c6e7f7d~87~ubuntu16.04.1*
G04 #@! TF.CreationDate,2020-09-01T19:23:28-04:00*
G04 #@! TF.ProjectId,Controller,436f6e74-726f-46c6-9c65-722e6b696361,rev?*
G04 #@! TF.SameCoordinates,PX5734380PY65bcec0*
G04 #@! TF.FileFunction,Legend,Bot*
G04 #@! TF.FilePolarity,Positive*
%FSLAX46Y46*%
G04 Gerber Fmt 4.6, Leading zero omitted, Abs format (unit mm)*
G04 Created by KiCad (PCBNEW 5.1.6-c6e7f7d~87~ubuntu16.04.1) date 2020-09-01 19:23:28*
%MOMM*%
%LPD*%
G01*
G04 APERTURE LIST*
%ADD10C,0.254000*%
%ADD11C,0.152400*%
G04 APERTURE END LIST*
D10*
X49486820Y-34074100D02*
X49088040Y-34074100D01*
X49088040Y-34074100D02*
X49088040Y-33073340D01*
X49088040Y-33073340D02*
X47688500Y-33073340D01*
X47688500Y-33073340D02*
X47688500Y-34074100D01*
X47688500Y-34074100D02*
X47089060Y-34074100D01*
X51488340Y-34074100D02*
X49486820Y-34074100D01*
X49088040Y-34074100D02*
X49088040Y-33073340D01*
X47688500Y-33073340D02*
X47688500Y-34074100D01*
X47287180Y-34074100D02*
X45288200Y-34074100D01*
X45288200Y-34074100D02*
X45288200Y-21074380D01*
X45288200Y-21074380D02*
X51488340Y-21074380D01*
X51488340Y-21074380D02*
X51488340Y-34074100D01*
X4826000Y-36830000D02*
X4826000Y-46736000D01*
X7112000Y-36830000D02*
X4826000Y-36830000D01*
X14478000Y-36830000D02*
X14478000Y-46736000D01*
X12192000Y-36830000D02*
X14478000Y-36830000D01*
X14478000Y-46736000D02*
X4826000Y-46736000D01*
X63754000Y-36830000D02*
X61468000Y-36830000D01*
X63754000Y-46736000D02*
X63754000Y-36830000D01*
X48006000Y-46736000D02*
X63754000Y-46736000D01*
X48006000Y-36830000D02*
X48006000Y-46736000D01*
X50292000Y-36830000D02*
X48006000Y-36830000D01*
X25654000Y-36830000D02*
X23368000Y-36830000D01*
X23368000Y-36830000D02*
X23368000Y-46736000D01*
X23368000Y-46736000D02*
X39116000Y-46736000D01*
X39116000Y-46736000D02*
X39116000Y-36830000D01*
X39116000Y-36830000D02*
X36830000Y-36830000D01*
D11*
X46554571Y-34888714D02*
X46554571Y-35505571D01*
X46518285Y-35578142D01*
X46482000Y-35614428D01*
X46409428Y-35650714D01*
X46264285Y-35650714D01*
X46191714Y-35614428D01*
X46155428Y-35578142D01*
X46119142Y-35505571D01*
X46119142Y-34888714D01*
X45357142Y-35650714D02*
X45792571Y-35650714D01*
X45574857Y-35650714D02*
X45574857Y-34888714D01*
X45647428Y-34997571D01*
X45720000Y-35070142D01*
X45792571Y-35106428D01*
X14224000Y-35142714D02*
X14224000Y-35687000D01*
X14260285Y-35795857D01*
X14332857Y-35868428D01*
X14441714Y-35904714D01*
X14514285Y-35904714D01*
X13462000Y-35904714D02*
X13897428Y-35904714D01*
X13679714Y-35904714D02*
X13679714Y-35142714D01*
X13752285Y-35251571D01*
X13824857Y-35324142D01*
X13897428Y-35360428D01*
X63119000Y-35142714D02*
X63119000Y-35687000D01*
X63155285Y-35795857D01*
X63227857Y-35868428D01*
X63336714Y-35904714D01*
X63409285Y-35904714D01*
X62828714Y-35142714D02*
X62357000Y-35142714D01*
X62611000Y-35433000D01*
X62502142Y-35433000D01*
X62429571Y-35469285D01*
X62393285Y-35505571D01*
X62357000Y-35578142D01*
X62357000Y-35759571D01*
X62393285Y-35832142D01*
X62429571Y-35868428D01*
X62502142Y-35904714D01*
X62719857Y-35904714D01*
X62792428Y-35868428D01*
X62828714Y-35832142D01*
X24511000Y-35142714D02*
X24511000Y-35687000D01*
X24547285Y-35795857D01*
X24619857Y-35868428D01*
X24728714Y-35904714D01*
X24801285Y-35904714D01*
X23821571Y-35396714D02*
X23821571Y-35904714D01*
X24003000Y-35106428D02*
X24184428Y-35650714D01*
X23712714Y-35650714D01*
M02*
